G75*
%MOIN*%
%OFA0B0*%
%FSLAX25Y25*%
%IPPOS*%
%LPD*%
%AMOC8*
5,1,8,0,0,1.08239X$1,22.5*
%
%ADD10C,0.00600*%
%ADD11C,0.00500*%
%ADD12C,0.00800*%
%ADD13C,0.00400*%
%ADD14C,0.02400*%
%ADD15C,0.00100*%
%ADD16C,0.00020*%
%ADD17C,0.00200*%
%ADD18R,0.05512X0.02559*%
%ADD19C,0.00700*%
%ADD20C,0.00080*%
%ADD21R,0.00787X0.00787*%
D10*
X0020820Y0010440D02*
X0025090Y0010440D01*
X0022955Y0012575D02*
X0022955Y0008305D01*
X0037158Y0008305D02*
X0038226Y0007237D01*
X0040361Y0007237D01*
X0041429Y0008305D01*
X0043604Y0007237D02*
X0047874Y0007237D01*
X0045739Y0007237D02*
X0045739Y0013642D01*
X0043604Y0011507D01*
X0041429Y0012575D02*
X0040361Y0013642D01*
X0038226Y0013642D01*
X0037158Y0012575D01*
X0037158Y0008305D01*
X0061568Y0010440D02*
X0065838Y0010440D01*
X0079284Y0010440D02*
X0083555Y0010440D01*
X0081419Y0012575D02*
X0081419Y0008305D01*
X0094835Y0008305D02*
X0095903Y0007237D01*
X0098038Y0007237D01*
X0099106Y0008305D01*
X0101281Y0007237D02*
X0105551Y0011507D01*
X0105551Y0012575D01*
X0104484Y0013642D01*
X0102348Y0013642D01*
X0101281Y0012575D01*
X0099106Y0012575D02*
X0098038Y0013642D01*
X0095903Y0013642D01*
X0094835Y0012575D01*
X0094835Y0008305D01*
X0101281Y0007237D02*
X0105551Y0007237D01*
X0120229Y0010440D02*
X0124499Y0010440D01*
X0138536Y0010440D02*
X0142807Y0010440D01*
X0140671Y0012575D02*
X0140671Y0008305D01*
X0154875Y0008305D02*
X0155942Y0007237D01*
X0158078Y0007237D01*
X0159145Y0008305D01*
X0161320Y0008305D02*
X0162388Y0007237D01*
X0164523Y0007237D01*
X0165591Y0008305D01*
X0165591Y0009372D01*
X0164523Y0010440D01*
X0163455Y0010440D01*
X0164523Y0010440D02*
X0165591Y0011507D01*
X0165591Y0012575D01*
X0164523Y0013642D01*
X0162388Y0013642D01*
X0161320Y0012575D01*
X0159145Y0012575D02*
X0158078Y0013642D01*
X0155942Y0013642D01*
X0154875Y0012575D01*
X0154875Y0008305D01*
X0179284Y0010440D02*
X0183555Y0010440D01*
X0198379Y0010440D02*
X0202649Y0010440D01*
X0200514Y0012575D02*
X0200514Y0008305D01*
X0214520Y0008305D02*
X0215588Y0007237D01*
X0217723Y0007237D01*
X0218791Y0008305D01*
X0220966Y0010440D02*
X0225236Y0010440D01*
X0224169Y0013642D02*
X0220966Y0010440D01*
X0218791Y0012575D02*
X0217723Y0013642D01*
X0215588Y0013642D01*
X0214520Y0012575D01*
X0214520Y0008305D01*
X0224169Y0007237D02*
X0224169Y0013642D01*
X0238733Y0010440D02*
X0243003Y0010440D01*
X0056634Y0083390D02*
X0056634Y0126390D01*
X0056632Y0126450D01*
X0056627Y0126511D01*
X0056618Y0126570D01*
X0056605Y0126629D01*
X0056589Y0126688D01*
X0056569Y0126745D01*
X0056546Y0126800D01*
X0056519Y0126855D01*
X0056490Y0126907D01*
X0056457Y0126958D01*
X0056421Y0127007D01*
X0056383Y0127053D01*
X0056341Y0127097D01*
X0056297Y0127139D01*
X0056251Y0127177D01*
X0056202Y0127213D01*
X0056151Y0127246D01*
X0056099Y0127275D01*
X0056044Y0127302D01*
X0055989Y0127325D01*
X0055932Y0127345D01*
X0055873Y0127361D01*
X0055814Y0127374D01*
X0055755Y0127383D01*
X0055694Y0127388D01*
X0055634Y0127390D01*
X0051634Y0127390D01*
X0042634Y0127390D02*
X0038634Y0127390D01*
X0038574Y0127388D01*
X0038513Y0127383D01*
X0038454Y0127374D01*
X0038395Y0127361D01*
X0038336Y0127345D01*
X0038279Y0127325D01*
X0038224Y0127302D01*
X0038169Y0127275D01*
X0038117Y0127246D01*
X0038066Y0127213D01*
X0038017Y0127177D01*
X0037971Y0127139D01*
X0037927Y0127097D01*
X0037885Y0127053D01*
X0037847Y0127007D01*
X0037811Y0126958D01*
X0037778Y0126907D01*
X0037749Y0126855D01*
X0037722Y0126800D01*
X0037699Y0126745D01*
X0037679Y0126688D01*
X0037663Y0126629D01*
X0037650Y0126570D01*
X0037641Y0126511D01*
X0037636Y0126450D01*
X0037634Y0126390D01*
X0037634Y0083390D01*
X0037636Y0083330D01*
X0037641Y0083269D01*
X0037650Y0083210D01*
X0037663Y0083151D01*
X0037679Y0083092D01*
X0037699Y0083035D01*
X0037722Y0082980D01*
X0037749Y0082925D01*
X0037778Y0082873D01*
X0037811Y0082822D01*
X0037847Y0082773D01*
X0037885Y0082727D01*
X0037927Y0082683D01*
X0037971Y0082641D01*
X0038017Y0082603D01*
X0038066Y0082567D01*
X0038117Y0082534D01*
X0038169Y0082505D01*
X0038224Y0082478D01*
X0038279Y0082455D01*
X0038336Y0082435D01*
X0038395Y0082419D01*
X0038454Y0082406D01*
X0038513Y0082397D01*
X0038574Y0082392D01*
X0038634Y0082390D01*
X0042634Y0082390D01*
X0051634Y0082390D02*
X0055634Y0082390D01*
X0055694Y0082392D01*
X0055755Y0082397D01*
X0055814Y0082406D01*
X0055873Y0082419D01*
X0055932Y0082435D01*
X0055989Y0082455D01*
X0056044Y0082478D01*
X0056099Y0082505D01*
X0056151Y0082534D01*
X0056202Y0082567D01*
X0056251Y0082603D01*
X0056297Y0082641D01*
X0056341Y0082683D01*
X0056383Y0082727D01*
X0056421Y0082773D01*
X0056457Y0082822D01*
X0056490Y0082873D01*
X0056519Y0082925D01*
X0056546Y0082980D01*
X0056569Y0083035D01*
X0056589Y0083092D01*
X0056605Y0083151D01*
X0056618Y0083210D01*
X0056627Y0083269D01*
X0056632Y0083330D01*
X0056634Y0083390D01*
X0049634Y0102390D02*
X0047134Y0102390D01*
X0044634Y0102390D01*
X0044634Y0103890D02*
X0044634Y0105890D01*
X0049634Y0105890D01*
X0049634Y0103890D01*
X0044634Y0103890D01*
X0044634Y0107390D02*
X0047134Y0107390D01*
X0049634Y0107390D01*
D11*
X0035884Y0090246D02*
X0035884Y0087244D01*
X0035884Y0088745D02*
X0031380Y0088745D01*
X0032881Y0087244D01*
X0032131Y0085642D02*
X0035133Y0085642D01*
X0035884Y0084892D01*
X0035884Y0083390D01*
X0035133Y0082640D01*
X0032131Y0082640D01*
X0031380Y0083390D01*
X0031380Y0084892D01*
X0032131Y0085642D01*
X0034383Y0084141D02*
X0035884Y0085642D01*
X0013433Y0054181D02*
X0072488Y0054181D01*
X0072488Y0014811D01*
X0013433Y0014811D01*
X0013433Y0054181D01*
X0072173Y0054181D02*
X0131228Y0054181D01*
X0131228Y0014811D01*
X0072173Y0014811D01*
X0072173Y0054181D01*
X0131386Y0054181D02*
X0190441Y0054181D01*
X0190441Y0014811D01*
X0131386Y0014811D01*
X0131386Y0054181D01*
X0190598Y0054181D02*
X0249654Y0054181D01*
X0249654Y0014811D01*
X0190598Y0014811D01*
X0190598Y0054181D01*
X0211338Y0087104D02*
X0210588Y0087854D01*
X0211338Y0087104D02*
X0212840Y0087104D01*
X0213590Y0087854D01*
X0213590Y0088605D01*
X0212840Y0089355D01*
X0211338Y0089355D01*
X0210588Y0090106D01*
X0210588Y0090857D01*
X0211338Y0091607D01*
X0212840Y0091607D01*
X0213590Y0090857D01*
X0215192Y0091607D02*
X0215192Y0087104D01*
X0218194Y0087104D01*
X0219796Y0087104D02*
X0222798Y0087104D01*
X0221297Y0087104D02*
X0221297Y0091607D01*
X0219796Y0090106D01*
X0220318Y0136788D02*
X0220318Y0141292D01*
X0222570Y0141292D01*
X0223321Y0140541D01*
X0223321Y0139040D01*
X0222570Y0138289D01*
X0220318Y0138289D01*
X0218717Y0139791D02*
X0215714Y0139791D01*
X0215714Y0140541D02*
X0215714Y0139040D01*
X0216465Y0138289D01*
X0217966Y0138289D01*
X0218717Y0139791D02*
X0218717Y0140541D01*
X0217966Y0141292D01*
X0216465Y0141292D01*
X0215714Y0140541D01*
X0214113Y0140541D02*
X0214113Y0138289D01*
X0212612Y0138289D02*
X0212612Y0140541D01*
X0213362Y0141292D01*
X0214113Y0140541D01*
X0212612Y0140541D02*
X0211861Y0141292D01*
X0211111Y0141292D01*
X0211111Y0138289D01*
X0209509Y0138289D02*
X0209509Y0140541D01*
X0208759Y0141292D01*
X0207257Y0141292D01*
X0207257Y0139791D02*
X0209509Y0139791D01*
X0209509Y0138289D02*
X0207257Y0138289D01*
X0206507Y0139040D01*
X0207257Y0139791D01*
X0204905Y0139040D02*
X0204905Y0140541D01*
X0203404Y0140541D01*
X0204905Y0139040D02*
X0204155Y0138289D01*
X0202653Y0138289D01*
X0201903Y0139040D01*
X0201903Y0142043D01*
X0202653Y0142793D01*
X0204155Y0142793D01*
X0204905Y0142043D01*
X0210638Y0147685D02*
X0210638Y0187055D01*
X0171268Y0187055D01*
X0171268Y0147685D01*
X0210638Y0147685D01*
X0210835Y0147685D02*
X0210835Y0187055D01*
X0250205Y0187055D01*
X0250205Y0147685D01*
X0210835Y0147685D01*
X0207601Y0152994D02*
X0204599Y0152994D01*
X0206100Y0152994D02*
X0206100Y0157498D01*
X0204599Y0155997D01*
X0188601Y0155997D02*
X0188601Y0156747D01*
X0187851Y0157498D01*
X0186349Y0157498D01*
X0185599Y0156747D01*
X0188601Y0155997D02*
X0185599Y0152994D01*
X0188601Y0152994D01*
X0188024Y0142793D02*
X0188024Y0138289D01*
X0189626Y0138289D02*
X0191127Y0138289D01*
X0190376Y0138289D02*
X0190376Y0142793D01*
X0189626Y0142793D02*
X0191127Y0142793D01*
X0192695Y0142793D02*
X0194947Y0142793D01*
X0195697Y0142043D01*
X0195697Y0139040D01*
X0194947Y0138289D01*
X0192695Y0138289D01*
X0192695Y0142793D01*
X0188024Y0140541D02*
X0185022Y0140541D01*
X0185022Y0138289D02*
X0185022Y0142793D01*
X0171268Y0147685D02*
X0171268Y0187055D01*
X0131898Y0187055D01*
X0131898Y0147685D01*
X0171268Y0147685D01*
X0168231Y0152994D02*
X0165229Y0152994D01*
X0166730Y0152994D02*
X0166730Y0157498D01*
X0165229Y0155997D01*
X0149231Y0155997D02*
X0149231Y0156747D01*
X0148481Y0157498D01*
X0146979Y0157498D01*
X0146229Y0156747D01*
X0149231Y0155997D02*
X0146229Y0152994D01*
X0149231Y0152994D01*
X0132016Y0147685D02*
X0132016Y0187055D01*
X0092646Y0187055D01*
X0092646Y0147685D01*
X0132016Y0147685D01*
X0128979Y0152994D02*
X0125977Y0152994D01*
X0127478Y0152994D02*
X0127478Y0157498D01*
X0125977Y0155997D01*
X0109979Y0155997D02*
X0109979Y0156747D01*
X0109229Y0157498D01*
X0107727Y0157498D01*
X0106977Y0156747D01*
X0109979Y0155997D02*
X0106977Y0152994D01*
X0109979Y0152994D01*
X0092567Y0147685D02*
X0092567Y0187055D01*
X0053197Y0187055D01*
X0053197Y0147685D01*
X0092567Y0147685D01*
X0089531Y0152994D02*
X0086528Y0152994D01*
X0088029Y0152994D02*
X0088029Y0157498D01*
X0086528Y0155997D01*
X0070531Y0155997D02*
X0070531Y0156747D01*
X0069780Y0157498D01*
X0068279Y0157498D01*
X0067528Y0156747D01*
X0070531Y0155997D02*
X0067528Y0152994D01*
X0070531Y0152994D01*
X0053118Y0147685D02*
X0053118Y0187055D01*
X0013748Y0187055D01*
X0013748Y0147685D01*
X0053118Y0147685D01*
X0050082Y0152994D02*
X0047079Y0152994D01*
X0048580Y0152994D02*
X0048580Y0157498D01*
X0047079Y0155997D01*
X0031082Y0155997D02*
X0028079Y0152994D01*
X0031082Y0152994D01*
X0031082Y0155997D02*
X0031082Y0156747D01*
X0030331Y0157498D01*
X0028830Y0157498D01*
X0028079Y0156747D01*
X0225166Y0156747D02*
X0225916Y0157498D01*
X0227418Y0157498D01*
X0228168Y0156747D01*
X0228168Y0155997D01*
X0225166Y0152994D01*
X0228168Y0152994D01*
X0232529Y0142793D02*
X0232529Y0138289D01*
X0230277Y0138289D01*
X0229526Y0139040D01*
X0229526Y0140541D01*
X0230277Y0141292D01*
X0232529Y0141292D01*
X0238734Y0141292D02*
X0238734Y0142043D01*
X0239485Y0142793D01*
X0240986Y0142793D01*
X0241737Y0142043D01*
X0241737Y0141292D01*
X0240986Y0140541D01*
X0239485Y0140541D01*
X0238734Y0141292D01*
X0239485Y0140541D02*
X0238734Y0139791D01*
X0238734Y0139040D01*
X0239485Y0138289D01*
X0240986Y0138289D01*
X0241737Y0139040D01*
X0241737Y0139791D01*
X0240986Y0140541D01*
X0243338Y0140541D02*
X0245590Y0140541D01*
X0246341Y0139791D01*
X0246341Y0139040D01*
X0245590Y0138289D01*
X0243338Y0138289D01*
X0243338Y0142793D01*
X0245590Y0142793D01*
X0246341Y0142043D01*
X0246341Y0141292D01*
X0245590Y0140541D01*
X0252546Y0140541D02*
X0255548Y0140541D01*
X0257150Y0140541D02*
X0260152Y0140541D01*
X0260152Y0141292D02*
X0260152Y0138289D01*
X0257150Y0138289D02*
X0257150Y0141292D01*
X0258651Y0142793D01*
X0260152Y0141292D01*
X0266358Y0141292D02*
X0267859Y0138289D01*
X0269360Y0141292D01*
X0270962Y0141292D02*
X0272463Y0142793D01*
X0272463Y0138289D01*
X0270962Y0138289D02*
X0273964Y0138289D01*
X0275566Y0138289D02*
X0275566Y0141292D01*
X0275566Y0139791D02*
X0277067Y0141292D01*
X0277817Y0141292D01*
X0279402Y0142043D02*
X0280153Y0142793D01*
X0281654Y0142793D01*
X0282405Y0142043D01*
X0279402Y0139040D01*
X0280153Y0138289D01*
X0281654Y0138289D01*
X0282405Y0139040D01*
X0282405Y0142043D01*
X0284006Y0141292D02*
X0285507Y0142793D01*
X0285507Y0138289D01*
X0284006Y0138289D02*
X0287009Y0138289D01*
X0279402Y0139040D02*
X0279402Y0142043D01*
X0289378Y0147685D02*
X0289378Y0187055D01*
X0328748Y0187055D01*
X0328748Y0147685D01*
X0289378Y0147685D01*
X0289378Y0187055D01*
X0250008Y0187055D01*
X0250008Y0147685D01*
X0289378Y0147685D01*
X0286342Y0152994D02*
X0283339Y0152994D01*
X0284840Y0152994D02*
X0284840Y0157498D01*
X0283339Y0155997D01*
X0267342Y0155997D02*
X0267342Y0156747D01*
X0266591Y0157498D01*
X0265090Y0157498D01*
X0264339Y0156747D01*
X0267342Y0155997D02*
X0264339Y0152994D01*
X0267342Y0152994D01*
X0254798Y0142793D02*
X0252546Y0140541D01*
X0254798Y0138289D02*
X0254798Y0142793D01*
X0247168Y0152994D02*
X0244166Y0152994D01*
X0245667Y0152994D02*
X0245667Y0157498D01*
X0244166Y0155997D01*
X0227925Y0140541D02*
X0227925Y0138289D01*
X0225673Y0138289D01*
X0224922Y0139040D01*
X0225673Y0139791D01*
X0227925Y0139791D01*
X0227925Y0140541D02*
X0227174Y0141292D01*
X0225673Y0141292D01*
X0303709Y0152994D02*
X0306712Y0155997D01*
X0306712Y0156747D01*
X0305961Y0157498D01*
X0304460Y0157498D01*
X0303709Y0156747D01*
X0303709Y0152994D02*
X0306712Y0152994D01*
X0322709Y0152994D02*
X0325712Y0152994D01*
X0324210Y0152994D02*
X0324210Y0157498D01*
X0322709Y0155997D01*
D12*
X0322528Y0099890D02*
X0307567Y0099890D01*
X0291031Y0099890D02*
X0275677Y0099890D01*
X0275677Y0052646D01*
X0291031Y0052646D01*
X0307567Y0052646D02*
X0322528Y0052646D01*
X0260638Y0077154D02*
X0260638Y0082154D01*
X0258138Y0084654D01*
X0253138Y0084654D01*
X0250638Y0082154D01*
X0248138Y0084654D01*
X0243138Y0084654D01*
X0240638Y0082154D01*
X0238138Y0084654D01*
X0233138Y0084654D01*
X0230638Y0082154D01*
X0228138Y0084654D01*
X0223138Y0084654D01*
X0220638Y0082154D01*
X0218138Y0084654D01*
X0213138Y0084654D01*
X0210638Y0082154D01*
X0210638Y0077154D01*
X0213138Y0074654D01*
X0218138Y0074654D01*
X0220638Y0077154D01*
X0223138Y0074654D01*
X0228138Y0074654D01*
X0230638Y0077154D01*
X0233138Y0074654D01*
X0238138Y0074654D01*
X0240638Y0077154D01*
X0243138Y0074654D01*
X0248138Y0074654D01*
X0250638Y0077154D01*
X0253138Y0074654D01*
X0258138Y0074654D01*
X0260638Y0077154D01*
X0198472Y0091858D02*
X0194929Y0088315D01*
X0192370Y0088315D01*
X0198472Y0091858D02*
X0198472Y0109181D01*
X0192370Y0109181D01*
X0183709Y0109181D02*
X0177606Y0109181D01*
X0177606Y0091858D01*
X0181150Y0088315D01*
X0183709Y0088315D01*
X0122493Y0138439D02*
X0122493Y0141542D01*
X0121458Y0142576D01*
X0120424Y0141542D01*
X0120424Y0138439D01*
X0118356Y0138439D02*
X0118356Y0142576D01*
X0119390Y0142576D01*
X0120424Y0141542D01*
X0116047Y0141542D02*
X0116047Y0139474D01*
X0115013Y0138439D01*
X0112944Y0138439D01*
X0111910Y0139474D01*
X0111910Y0141542D01*
X0112944Y0142576D01*
X0115013Y0142576D01*
X0116047Y0141542D01*
X0109602Y0142576D02*
X0106499Y0142576D01*
X0105465Y0141542D01*
X0105465Y0139474D01*
X0106499Y0138439D01*
X0109602Y0138439D01*
X0103276Y0138439D02*
X0102242Y0138439D01*
X0102242Y0139474D01*
X0103276Y0139474D01*
X0103276Y0138439D01*
X0099933Y0139474D02*
X0098899Y0140508D01*
X0096831Y0140508D01*
X0095796Y0141542D01*
X0096831Y0142576D01*
X0099933Y0142576D01*
X0093488Y0142576D02*
X0090385Y0142576D01*
X0089351Y0141542D01*
X0089351Y0139474D01*
X0090385Y0138439D01*
X0093488Y0138439D01*
X0093488Y0144645D01*
X0087082Y0142576D02*
X0086048Y0142576D01*
X0083980Y0140508D01*
X0083980Y0142576D02*
X0083980Y0138439D01*
X0081671Y0138439D02*
X0081671Y0141542D01*
X0080637Y0142576D01*
X0078568Y0142576D01*
X0078568Y0140508D02*
X0081671Y0140508D01*
X0081671Y0138439D02*
X0078568Y0138439D01*
X0077534Y0139474D01*
X0078568Y0140508D01*
X0075226Y0139474D02*
X0075226Y0141542D01*
X0074191Y0142576D01*
X0072123Y0142576D01*
X0071089Y0141542D01*
X0071089Y0139474D01*
X0072123Y0138439D01*
X0074191Y0138439D01*
X0075226Y0139474D01*
X0068780Y0139474D02*
X0068780Y0141542D01*
X0067746Y0142576D01*
X0064643Y0142576D01*
X0064643Y0144645D02*
X0064643Y0138439D01*
X0067746Y0138439D01*
X0068780Y0139474D01*
X0062335Y0138439D02*
X0059232Y0138439D01*
X0058198Y0139474D01*
X0058198Y0141542D01*
X0059232Y0142576D01*
X0062335Y0142576D01*
X0055969Y0138439D02*
X0053901Y0138439D01*
X0054935Y0138439D02*
X0054935Y0142576D01*
X0053901Y0142576D01*
X0051672Y0142576D02*
X0049604Y0142576D01*
X0050638Y0143610D02*
X0050638Y0139474D01*
X0051672Y0138439D01*
X0047295Y0138439D02*
X0047295Y0141542D01*
X0046261Y0142576D01*
X0044192Y0142576D01*
X0044192Y0140508D02*
X0047295Y0140508D01*
X0047295Y0138439D02*
X0044192Y0138439D01*
X0043158Y0139474D01*
X0044192Y0140508D01*
X0040930Y0142576D02*
X0038861Y0142576D01*
X0039895Y0143610D02*
X0039895Y0139474D01*
X0040930Y0138439D01*
X0036553Y0139474D02*
X0036553Y0140508D01*
X0035518Y0141542D01*
X0033450Y0141542D01*
X0032416Y0142576D01*
X0032416Y0143610D01*
X0033450Y0144645D01*
X0035518Y0144645D01*
X0036553Y0143610D01*
X0036553Y0139474D02*
X0035518Y0138439D01*
X0033450Y0138439D01*
X0032416Y0139474D01*
X0054935Y0144645D02*
X0054935Y0145679D01*
X0095796Y0138439D02*
X0098899Y0138439D01*
X0099933Y0139474D01*
D13*
X0079694Y0121312D02*
X0078926Y0122080D01*
X0077392Y0122080D01*
X0076624Y0121312D01*
X0078159Y0119778D02*
X0078926Y0119778D01*
X0079694Y0119010D01*
X0079694Y0118243D01*
X0078926Y0117476D01*
X0077392Y0117476D01*
X0076624Y0118243D01*
X0075090Y0117476D02*
X0072020Y0117476D01*
X0073555Y0117476D02*
X0073555Y0122080D01*
X0072020Y0120545D01*
X0070486Y0121312D02*
X0069718Y0122080D01*
X0068184Y0122080D01*
X0067417Y0121312D01*
X0067417Y0118243D01*
X0068184Y0117476D01*
X0069718Y0117476D01*
X0070486Y0118243D01*
X0078926Y0119778D02*
X0079694Y0120545D01*
X0079694Y0121312D01*
X0080343Y0110283D02*
X0080343Y0107214D01*
X0080343Y0108749D02*
X0075739Y0108749D01*
X0077274Y0107214D01*
X0076507Y0105680D02*
X0075739Y0104912D01*
X0075739Y0103378D01*
X0076507Y0102610D01*
X0079576Y0102610D01*
X0080343Y0103378D01*
X0080343Y0104912D01*
X0079576Y0105680D01*
X0065493Y0105631D02*
X0063958Y0104097D01*
X0063958Y0104864D02*
X0063958Y0102562D01*
X0065493Y0102562D02*
X0060889Y0102562D01*
X0060889Y0104864D01*
X0061656Y0105631D01*
X0063191Y0105631D01*
X0063958Y0104864D01*
X0062424Y0107166D02*
X0060889Y0108701D01*
X0065493Y0108701D01*
X0065493Y0110235D02*
X0065493Y0107166D01*
X0071333Y0091371D02*
X0070566Y0090604D01*
X0070566Y0087534D01*
X0071333Y0086767D01*
X0072868Y0086767D01*
X0073635Y0087534D01*
X0075170Y0086767D02*
X0078239Y0086767D01*
X0076705Y0086767D02*
X0076705Y0091371D01*
X0075170Y0089836D01*
X0073635Y0090604D02*
X0072868Y0091371D01*
X0071333Y0091371D01*
X0079774Y0090604D02*
X0080541Y0091371D01*
X0082076Y0091371D01*
X0082843Y0090604D01*
X0082843Y0089836D01*
X0079774Y0086767D01*
X0082843Y0086767D01*
X0091624Y0060954D02*
X0093159Y0059419D01*
X0093159Y0056350D01*
X0094694Y0056350D02*
X0097763Y0060954D01*
X0099298Y0060954D02*
X0100832Y0060954D01*
X0100065Y0060954D02*
X0100065Y0056350D01*
X0099298Y0056350D02*
X0100832Y0056350D01*
X0102367Y0057117D02*
X0103134Y0056350D01*
X0104669Y0056350D01*
X0105436Y0057117D01*
X0105436Y0057884D01*
X0104669Y0058652D01*
X0103134Y0058652D01*
X0102367Y0059419D01*
X0102367Y0060186D01*
X0103134Y0060954D01*
X0104669Y0060954D01*
X0105436Y0060186D01*
X0111575Y0060186D02*
X0112342Y0060954D01*
X0113877Y0060954D01*
X0114644Y0060186D01*
X0114644Y0059419D01*
X0111575Y0056350D01*
X0114644Y0056350D01*
X0110040Y0055582D02*
X0106971Y0055582D01*
X0101429Y0049596D02*
X0100662Y0050363D01*
X0099127Y0050363D01*
X0098360Y0049596D01*
X0101429Y0049596D02*
X0101429Y0048828D01*
X0098360Y0045759D01*
X0101429Y0045759D01*
X0097763Y0056350D02*
X0094694Y0060954D01*
X0093159Y0058652D02*
X0090090Y0058652D01*
X0090090Y0059419D02*
X0091624Y0060954D01*
X0090090Y0059419D02*
X0090090Y0056350D01*
X0079498Y0050363D02*
X0077964Y0048828D01*
X0079498Y0050363D02*
X0079498Y0045759D01*
X0077964Y0045759D02*
X0081033Y0045759D01*
X0062689Y0046526D02*
X0061922Y0045759D01*
X0060387Y0045759D01*
X0059620Y0046526D01*
X0061154Y0048061D02*
X0061922Y0048061D01*
X0062689Y0047294D01*
X0062689Y0046526D01*
X0061922Y0048061D02*
X0062689Y0048828D01*
X0062689Y0049596D01*
X0061922Y0050363D01*
X0060387Y0050363D01*
X0059620Y0049596D01*
X0052324Y0055582D02*
X0049254Y0055582D01*
X0047720Y0057117D02*
X0046952Y0056350D01*
X0045418Y0056350D01*
X0044650Y0057117D01*
X0043116Y0056350D02*
X0041581Y0056350D01*
X0042348Y0056350D02*
X0042348Y0060954D01*
X0041581Y0060954D02*
X0043116Y0060954D01*
X0044650Y0060186D02*
X0044650Y0059419D01*
X0045418Y0058652D01*
X0046952Y0058652D01*
X0047720Y0057884D01*
X0047720Y0057117D01*
X0047720Y0060186D02*
X0046952Y0060954D01*
X0045418Y0060954D01*
X0044650Y0060186D01*
X0040046Y0060954D02*
X0036977Y0056350D01*
X0035443Y0056350D02*
X0035443Y0059419D01*
X0033908Y0060954D01*
X0032373Y0059419D01*
X0032373Y0056350D01*
X0032373Y0058652D02*
X0035443Y0058652D01*
X0036977Y0060954D02*
X0040046Y0056350D01*
X0040387Y0050363D02*
X0039620Y0049596D01*
X0040387Y0050363D02*
X0041922Y0050363D01*
X0042689Y0049596D01*
X0042689Y0048828D01*
X0039620Y0045759D01*
X0042689Y0045759D01*
X0053858Y0056350D02*
X0056927Y0056350D01*
X0055393Y0056350D02*
X0055393Y0060954D01*
X0053858Y0059419D01*
X0022293Y0045759D02*
X0019224Y0045759D01*
X0020758Y0045759D02*
X0020758Y0050363D01*
X0019224Y0048828D01*
X0118360Y0049596D02*
X0119127Y0050363D01*
X0120662Y0050363D01*
X0121429Y0049596D01*
X0121429Y0048828D01*
X0120662Y0048061D01*
X0121429Y0047294D01*
X0121429Y0046526D01*
X0120662Y0045759D01*
X0119127Y0045759D01*
X0118360Y0046526D01*
X0119894Y0048061D02*
X0120662Y0048061D01*
X0137176Y0048828D02*
X0138711Y0050363D01*
X0138711Y0045759D01*
X0137176Y0045759D02*
X0140246Y0045759D01*
X0148712Y0056350D02*
X0148712Y0059419D01*
X0150246Y0060954D01*
X0151781Y0059419D01*
X0151781Y0056350D01*
X0153316Y0056350D02*
X0156385Y0060954D01*
X0157920Y0060954D02*
X0159454Y0060954D01*
X0158687Y0060954D02*
X0158687Y0056350D01*
X0157920Y0056350D02*
X0159454Y0056350D01*
X0160989Y0057117D02*
X0161756Y0056350D01*
X0163291Y0056350D01*
X0164058Y0057117D01*
X0164058Y0057884D01*
X0163291Y0058652D01*
X0161756Y0058652D01*
X0160989Y0059419D01*
X0160989Y0060186D01*
X0161756Y0060954D01*
X0163291Y0060954D01*
X0164058Y0060186D01*
X0170197Y0060186D02*
X0170964Y0060954D01*
X0172499Y0060954D01*
X0173266Y0060186D01*
X0173266Y0059419D01*
X0172499Y0058652D01*
X0173266Y0057884D01*
X0173266Y0057117D01*
X0172499Y0056350D01*
X0170964Y0056350D01*
X0170197Y0057117D01*
X0171731Y0058652D02*
X0172499Y0058652D01*
X0168662Y0055582D02*
X0165593Y0055582D01*
X0159874Y0050363D02*
X0158340Y0050363D01*
X0157572Y0049596D01*
X0159874Y0050363D02*
X0160642Y0049596D01*
X0160642Y0048828D01*
X0157572Y0045759D01*
X0160642Y0045759D01*
X0156385Y0056350D02*
X0153316Y0060954D01*
X0151781Y0058652D02*
X0148712Y0058652D01*
X0177572Y0049596D02*
X0178340Y0050363D01*
X0179874Y0050363D01*
X0180642Y0049596D01*
X0180642Y0048828D01*
X0179874Y0048061D01*
X0180642Y0047294D01*
X0180642Y0046526D01*
X0179874Y0045759D01*
X0178340Y0045759D01*
X0177572Y0046526D01*
X0179107Y0048061D02*
X0179874Y0048061D01*
X0196389Y0048828D02*
X0197924Y0050363D01*
X0197924Y0045759D01*
X0199458Y0045759D02*
X0196389Y0045759D01*
X0207924Y0056350D02*
X0207924Y0059419D01*
X0209459Y0060954D01*
X0210994Y0059419D01*
X0210994Y0056350D01*
X0212528Y0056350D02*
X0215598Y0060954D01*
X0217132Y0060954D02*
X0218667Y0060954D01*
X0217900Y0060954D02*
X0217900Y0056350D01*
X0218667Y0056350D02*
X0217132Y0056350D01*
X0215598Y0056350D02*
X0212528Y0060954D01*
X0210994Y0058652D02*
X0207924Y0058652D01*
X0220202Y0059419D02*
X0220969Y0058652D01*
X0222503Y0058652D01*
X0223271Y0057884D01*
X0223271Y0057117D01*
X0222503Y0056350D01*
X0220969Y0056350D01*
X0220202Y0057117D01*
X0220202Y0059419D02*
X0220202Y0060186D01*
X0220969Y0060954D01*
X0222503Y0060954D01*
X0223271Y0060186D01*
X0229409Y0058652D02*
X0232479Y0058652D01*
X0231711Y0056350D02*
X0231711Y0060954D01*
X0229409Y0058652D01*
X0227875Y0055582D02*
X0224805Y0055582D01*
X0219087Y0050363D02*
X0217552Y0050363D01*
X0216785Y0049596D01*
X0219087Y0050363D02*
X0219854Y0049596D01*
X0219854Y0048828D01*
X0216785Y0045759D01*
X0219854Y0045759D01*
X0236785Y0046526D02*
X0237552Y0045759D01*
X0239087Y0045759D01*
X0239854Y0046526D01*
X0239854Y0047294D01*
X0239087Y0048061D01*
X0238320Y0048061D01*
X0239087Y0048061D02*
X0239854Y0048828D01*
X0239854Y0049596D01*
X0239087Y0050363D01*
X0237552Y0050363D01*
X0236785Y0049596D01*
X0203804Y0100528D02*
X0204572Y0101295D01*
X0204572Y0102830D01*
X0203804Y0103597D01*
X0203804Y0105131D02*
X0204572Y0105899D01*
X0204572Y0107433D01*
X0203804Y0108201D01*
X0203037Y0108201D01*
X0202270Y0107433D01*
X0202270Y0106666D01*
X0202270Y0107433D02*
X0201502Y0108201D01*
X0200735Y0108201D01*
X0199968Y0107433D01*
X0199968Y0105899D01*
X0200735Y0105131D01*
X0200735Y0103597D02*
X0199968Y0102830D01*
X0199968Y0101295D01*
X0200735Y0100528D01*
X0203804Y0100528D01*
X0175910Y0111960D02*
X0175910Y0113494D01*
X0175910Y0112727D02*
X0171306Y0112727D01*
X0171306Y0111960D02*
X0171306Y0113494D01*
X0172074Y0115029D02*
X0175143Y0115029D01*
X0175910Y0115796D01*
X0175910Y0117331D01*
X0175143Y0118098D01*
X0175910Y0119633D02*
X0175910Y0122702D01*
X0175910Y0121168D02*
X0171306Y0121168D01*
X0172841Y0119633D01*
X0172074Y0118098D02*
X0171306Y0117331D01*
X0171306Y0115796D01*
X0172074Y0115029D01*
X0194472Y0122247D02*
X0194472Y0124549D01*
X0195239Y0125317D01*
X0196774Y0125317D01*
X0197541Y0124549D01*
X0197541Y0122247D01*
X0199076Y0122247D02*
X0194472Y0122247D01*
X0197541Y0123782D02*
X0199076Y0125317D01*
X0199076Y0126851D02*
X0199076Y0129920D01*
X0199076Y0128386D02*
X0194472Y0128386D01*
X0196006Y0126851D01*
X0195239Y0131455D02*
X0194472Y0132222D01*
X0194472Y0133757D01*
X0195239Y0134524D01*
X0198308Y0131455D01*
X0199076Y0132222D01*
X0199076Y0133757D01*
X0198308Y0134524D01*
X0195239Y0134524D01*
X0195239Y0131455D02*
X0198308Y0131455D01*
X0208842Y0132990D02*
X0210376Y0131455D01*
X0208842Y0132990D02*
X0213446Y0132990D01*
X0213446Y0134524D02*
X0213446Y0131455D01*
X0213446Y0129920D02*
X0213446Y0126851D01*
X0213446Y0125317D02*
X0211911Y0123782D01*
X0211911Y0124549D02*
X0211911Y0122247D01*
X0213446Y0122247D02*
X0208842Y0122247D01*
X0208842Y0124549D01*
X0209609Y0125317D01*
X0211144Y0125317D01*
X0211911Y0124549D01*
X0210376Y0126851D02*
X0208842Y0128386D01*
X0213446Y0128386D01*
X0223212Y0128386D02*
X0224746Y0126851D01*
X0223979Y0125317D02*
X0225514Y0125317D01*
X0226281Y0124549D01*
X0226281Y0122247D01*
X0227816Y0122247D02*
X0223212Y0122247D01*
X0223212Y0124549D01*
X0223979Y0125317D01*
X0226281Y0123782D02*
X0227816Y0125317D01*
X0227816Y0126851D02*
X0227816Y0129920D01*
X0227816Y0128386D02*
X0223212Y0128386D01*
X0223979Y0131455D02*
X0223212Y0132222D01*
X0223212Y0133757D01*
X0223979Y0134524D01*
X0224746Y0134524D01*
X0227816Y0131455D01*
X0227816Y0134524D01*
X0237976Y0133757D02*
X0238743Y0134524D01*
X0239510Y0134524D01*
X0240278Y0133757D01*
X0241045Y0134524D01*
X0241812Y0134524D01*
X0242580Y0133757D01*
X0242580Y0132222D01*
X0241812Y0131455D01*
X0242580Y0129920D02*
X0242580Y0126851D01*
X0242580Y0125317D02*
X0241045Y0123782D01*
X0241045Y0124549D02*
X0241045Y0122247D01*
X0242580Y0122247D02*
X0237976Y0122247D01*
X0237976Y0124549D01*
X0238743Y0125317D01*
X0240278Y0125317D01*
X0241045Y0124549D01*
X0239510Y0126851D02*
X0237976Y0128386D01*
X0242580Y0128386D01*
X0238743Y0131455D02*
X0237976Y0132222D01*
X0237976Y0133757D01*
X0240278Y0133757D02*
X0240278Y0132990D01*
X0252779Y0128653D02*
X0252779Y0127118D01*
X0253546Y0126351D01*
X0253546Y0124817D02*
X0252779Y0124049D01*
X0252779Y0122515D01*
X0253546Y0121747D01*
X0256615Y0121747D01*
X0257383Y0122515D01*
X0257383Y0124049D01*
X0256615Y0124817D01*
X0257383Y0126351D02*
X0254313Y0129420D01*
X0253546Y0129420D01*
X0252779Y0128653D01*
X0257383Y0129420D02*
X0257383Y0126351D01*
X0267621Y0127618D02*
X0268389Y0126851D01*
X0267621Y0127618D02*
X0267621Y0129153D01*
X0268389Y0129920D01*
X0269156Y0129920D01*
X0272225Y0126851D01*
X0272225Y0129920D01*
X0272225Y0125317D02*
X0270691Y0123782D01*
X0270691Y0124549D02*
X0270691Y0122247D01*
X0272225Y0122247D02*
X0267621Y0122247D01*
X0267621Y0124549D01*
X0268389Y0125317D01*
X0269923Y0125317D01*
X0270691Y0124549D01*
X0319180Y0124293D02*
X0319180Y0126595D01*
X0319948Y0127362D01*
X0321482Y0127362D01*
X0322250Y0126595D01*
X0322250Y0124293D01*
X0323784Y0124293D02*
X0319180Y0124293D01*
X0319180Y0122758D02*
X0319180Y0119689D01*
X0323784Y0119689D01*
X0323784Y0122758D01*
X0321482Y0121224D02*
X0321482Y0119689D01*
X0323784Y0118154D02*
X0319180Y0118154D01*
X0322250Y0116620D02*
X0323784Y0118154D01*
X0322250Y0116620D02*
X0323784Y0115085D01*
X0319180Y0115085D01*
X0319948Y0113550D02*
X0319180Y0112783D01*
X0319180Y0111248D01*
X0319948Y0110481D01*
X0323017Y0110481D01*
X0323784Y0111248D01*
X0323784Y0112783D01*
X0323017Y0113550D01*
X0319948Y0113550D01*
X0319948Y0108946D02*
X0321482Y0108946D01*
X0322250Y0108179D01*
X0322250Y0105877D01*
X0323784Y0105877D02*
X0319180Y0105877D01*
X0319180Y0108179D01*
X0319948Y0108946D01*
X0322250Y0125827D02*
X0323784Y0127362D01*
D14*
X0099961Y0097689D02*
X0099963Y0097755D01*
X0099969Y0097821D01*
X0099979Y0097887D01*
X0099992Y0097952D01*
X0100010Y0098016D01*
X0100031Y0098078D01*
X0100056Y0098140D01*
X0100084Y0098200D01*
X0100116Y0098258D01*
X0100152Y0098314D01*
X0100190Y0098367D01*
X0100232Y0098419D01*
X0100277Y0098468D01*
X0100324Y0098514D01*
X0100375Y0098557D01*
X0100427Y0098597D01*
X0100482Y0098634D01*
X0100539Y0098668D01*
X0100598Y0098698D01*
X0100659Y0098725D01*
X0100721Y0098748D01*
X0100784Y0098767D01*
X0100849Y0098783D01*
X0100914Y0098795D01*
X0100980Y0098803D01*
X0101046Y0098807D01*
X0101112Y0098807D01*
X0101178Y0098803D01*
X0101244Y0098795D01*
X0101309Y0098783D01*
X0101374Y0098767D01*
X0101437Y0098748D01*
X0101499Y0098725D01*
X0101560Y0098698D01*
X0101619Y0098668D01*
X0101676Y0098634D01*
X0101731Y0098597D01*
X0101783Y0098557D01*
X0101834Y0098514D01*
X0101881Y0098468D01*
X0101926Y0098419D01*
X0101968Y0098367D01*
X0102006Y0098314D01*
X0102042Y0098258D01*
X0102074Y0098200D01*
X0102102Y0098140D01*
X0102127Y0098078D01*
X0102148Y0098016D01*
X0102166Y0097952D01*
X0102179Y0097887D01*
X0102189Y0097821D01*
X0102195Y0097755D01*
X0102197Y0097689D01*
X0102195Y0097623D01*
X0102189Y0097557D01*
X0102179Y0097491D01*
X0102166Y0097426D01*
X0102148Y0097362D01*
X0102127Y0097300D01*
X0102102Y0097238D01*
X0102074Y0097178D01*
X0102042Y0097120D01*
X0102006Y0097064D01*
X0101968Y0097011D01*
X0101926Y0096959D01*
X0101881Y0096910D01*
X0101834Y0096864D01*
X0101783Y0096821D01*
X0101731Y0096781D01*
X0101676Y0096744D01*
X0101619Y0096710D01*
X0101560Y0096680D01*
X0101499Y0096653D01*
X0101437Y0096630D01*
X0101374Y0096611D01*
X0101309Y0096595D01*
X0101244Y0096583D01*
X0101178Y0096575D01*
X0101112Y0096571D01*
X0101046Y0096571D01*
X0100980Y0096575D01*
X0100914Y0096583D01*
X0100849Y0096595D01*
X0100784Y0096611D01*
X0100721Y0096630D01*
X0100659Y0096653D01*
X0100598Y0096680D01*
X0100539Y0096710D01*
X0100482Y0096744D01*
X0100427Y0096781D01*
X0100375Y0096821D01*
X0100324Y0096864D01*
X0100277Y0096910D01*
X0100232Y0096959D01*
X0100190Y0097011D01*
X0100152Y0097064D01*
X0100116Y0097120D01*
X0100084Y0097178D01*
X0100056Y0097238D01*
X0100031Y0097300D01*
X0100010Y0097362D01*
X0099992Y0097426D01*
X0099979Y0097491D01*
X0099969Y0097557D01*
X0099963Y0097623D01*
X0099961Y0097689D01*
D15*
X0289300Y0059968D02*
X0289550Y0059718D01*
X0289800Y0059718D01*
X0290050Y0059968D01*
X0290050Y0061219D01*
X0289800Y0061219D02*
X0290300Y0061219D01*
X0290773Y0061219D02*
X0290773Y0059718D01*
X0290773Y0060218D02*
X0291523Y0060218D01*
X0291774Y0060468D01*
X0291774Y0060969D01*
X0291523Y0061219D01*
X0290773Y0061219D01*
X0292246Y0060719D02*
X0292746Y0061219D01*
X0292746Y0059718D01*
X0292246Y0059718D02*
X0293247Y0059718D01*
D16*
X0051692Y0084707D02*
X0051591Y0084856D01*
X0051592Y0084856D02*
X0051749Y0084966D01*
X0051903Y0085080D01*
X0052055Y0085197D01*
X0052204Y0085319D01*
X0052350Y0085443D01*
X0052493Y0085572D01*
X0052632Y0085703D01*
X0052769Y0085839D01*
X0052902Y0085977D01*
X0053031Y0086119D01*
X0053158Y0086263D01*
X0053280Y0086411D01*
X0053399Y0086562D01*
X0053515Y0086715D01*
X0053626Y0086871D01*
X0053734Y0087030D01*
X0053838Y0087192D01*
X0053938Y0087356D01*
X0054034Y0087522D01*
X0054126Y0087691D01*
X0054213Y0087861D01*
X0054297Y0088034D01*
X0054376Y0088209D01*
X0054451Y0088386D01*
X0054522Y0088564D01*
X0054588Y0088744D01*
X0054650Y0088926D01*
X0054708Y0089109D01*
X0054761Y0089294D01*
X0054810Y0089479D01*
X0054854Y0089666D01*
X0054893Y0089854D01*
X0054928Y0090043D01*
X0054959Y0090232D01*
X0054985Y0090423D01*
X0055006Y0090613D01*
X0055022Y0090805D01*
X0055034Y0090996D01*
X0055041Y0091188D01*
X0055044Y0091380D01*
X0055223Y0091381D01*
X0055224Y0091380D01*
X0055221Y0091184D01*
X0055214Y0090988D01*
X0055202Y0090792D01*
X0055185Y0090596D01*
X0055163Y0090401D01*
X0055137Y0090206D01*
X0055106Y0090012D01*
X0055070Y0089819D01*
X0055030Y0089627D01*
X0054984Y0089436D01*
X0054935Y0089246D01*
X0054880Y0089057D01*
X0054821Y0088870D01*
X0054758Y0088684D01*
X0054690Y0088500D01*
X0054618Y0088317D01*
X0054541Y0088137D01*
X0054460Y0087958D01*
X0054374Y0087781D01*
X0054285Y0087606D01*
X0054191Y0087434D01*
X0054093Y0087264D01*
X0053990Y0087096D01*
X0053884Y0086931D01*
X0053774Y0086768D01*
X0053660Y0086609D01*
X0053542Y0086452D01*
X0053420Y0086298D01*
X0053295Y0086147D01*
X0053166Y0085999D01*
X0053033Y0085854D01*
X0052897Y0085712D01*
X0052757Y0085574D01*
X0052615Y0085439D01*
X0052468Y0085308D01*
X0052319Y0085180D01*
X0052167Y0085056D01*
X0052012Y0084936D01*
X0051854Y0084819D01*
X0051693Y0084707D01*
X0051683Y0084722D01*
X0051843Y0084834D01*
X0052001Y0084950D01*
X0052156Y0085070D01*
X0052308Y0085194D01*
X0052457Y0085321D01*
X0052602Y0085452D01*
X0052745Y0085587D01*
X0052884Y0085725D01*
X0053020Y0085866D01*
X0053152Y0086011D01*
X0053281Y0086158D01*
X0053406Y0086309D01*
X0053528Y0086463D01*
X0053645Y0086619D01*
X0053759Y0086779D01*
X0053869Y0086941D01*
X0053975Y0087106D01*
X0054077Y0087273D01*
X0054175Y0087443D01*
X0054269Y0087615D01*
X0054358Y0087789D01*
X0054444Y0087965D01*
X0054525Y0088144D01*
X0054601Y0088324D01*
X0054673Y0088506D01*
X0054741Y0088690D01*
X0054804Y0088876D01*
X0054863Y0089062D01*
X0054917Y0089251D01*
X0054967Y0089440D01*
X0055012Y0089631D01*
X0055052Y0089823D01*
X0055088Y0090015D01*
X0055119Y0090209D01*
X0055145Y0090403D01*
X0055167Y0090598D01*
X0055184Y0090793D01*
X0055196Y0090988D01*
X0055203Y0091184D01*
X0055206Y0091380D01*
X0055188Y0091380D01*
X0055185Y0091185D01*
X0055178Y0090989D01*
X0055166Y0090794D01*
X0055149Y0090599D01*
X0055128Y0090405D01*
X0055101Y0090211D01*
X0055070Y0090018D01*
X0055035Y0089826D01*
X0054994Y0089635D01*
X0054950Y0089445D01*
X0054900Y0089256D01*
X0054846Y0089068D01*
X0054787Y0088881D01*
X0054724Y0088696D01*
X0054657Y0088513D01*
X0054584Y0088331D01*
X0054508Y0088151D01*
X0054427Y0087973D01*
X0054342Y0087797D01*
X0054253Y0087623D01*
X0054159Y0087451D01*
X0054062Y0087282D01*
X0053960Y0087115D01*
X0053854Y0086951D01*
X0053744Y0086789D01*
X0053631Y0086630D01*
X0053513Y0086474D01*
X0053392Y0086320D01*
X0053267Y0086170D01*
X0053139Y0086023D01*
X0053007Y0085878D01*
X0052871Y0085737D01*
X0052732Y0085600D01*
X0052590Y0085466D01*
X0052445Y0085335D01*
X0052296Y0085208D01*
X0052145Y0085084D01*
X0051990Y0084965D01*
X0051833Y0084849D01*
X0051673Y0084737D01*
X0051663Y0084751D01*
X0051822Y0084863D01*
X0051979Y0084979D01*
X0052133Y0085099D01*
X0052285Y0085222D01*
X0052433Y0085349D01*
X0052578Y0085479D01*
X0052720Y0085613D01*
X0052858Y0085750D01*
X0052994Y0085891D01*
X0053125Y0086035D01*
X0053254Y0086182D01*
X0053378Y0086332D01*
X0053499Y0086485D01*
X0053616Y0086641D01*
X0053730Y0086799D01*
X0053839Y0086961D01*
X0053945Y0087125D01*
X0054046Y0087291D01*
X0054144Y0087460D01*
X0054237Y0087632D01*
X0054326Y0087805D01*
X0054411Y0087981D01*
X0054492Y0088158D01*
X0054568Y0088338D01*
X0054640Y0088519D01*
X0054707Y0088702D01*
X0054770Y0088887D01*
X0054829Y0089073D01*
X0054883Y0089260D01*
X0054932Y0089449D01*
X0054977Y0089639D01*
X0055017Y0089830D01*
X0055053Y0090021D01*
X0055083Y0090214D01*
X0055110Y0090407D01*
X0055131Y0090601D01*
X0055148Y0090796D01*
X0055160Y0090990D01*
X0055167Y0091185D01*
X0055170Y0091380D01*
X0055152Y0091380D01*
X0055149Y0091186D01*
X0055142Y0090991D01*
X0055130Y0090797D01*
X0055113Y0090603D01*
X0055092Y0090410D01*
X0055066Y0090217D01*
X0055035Y0090025D01*
X0054999Y0089833D01*
X0054959Y0089643D01*
X0054915Y0089453D01*
X0054865Y0089265D01*
X0054811Y0089078D01*
X0054753Y0088892D01*
X0054690Y0088708D01*
X0054623Y0088526D01*
X0054551Y0088345D01*
X0054475Y0088166D01*
X0054395Y0087988D01*
X0054310Y0087813D01*
X0054221Y0087640D01*
X0054128Y0087469D01*
X0054031Y0087301D01*
X0053929Y0087134D01*
X0053824Y0086971D01*
X0053715Y0086810D01*
X0053602Y0086651D01*
X0053485Y0086496D01*
X0053364Y0086343D01*
X0053240Y0086193D01*
X0053112Y0086047D01*
X0052980Y0085903D01*
X0052846Y0085763D01*
X0052707Y0085626D01*
X0052566Y0085492D01*
X0052421Y0085362D01*
X0052273Y0085236D01*
X0052122Y0085113D01*
X0051968Y0084993D01*
X0051812Y0084878D01*
X0051652Y0084766D01*
X0051642Y0084781D01*
X0051801Y0084893D01*
X0051958Y0085008D01*
X0052111Y0085127D01*
X0052262Y0085249D01*
X0052409Y0085376D01*
X0052554Y0085505D01*
X0052695Y0085639D01*
X0052833Y0085775D01*
X0052967Y0085915D01*
X0053099Y0086059D01*
X0053226Y0086205D01*
X0053350Y0086354D01*
X0053471Y0086507D01*
X0053587Y0086662D01*
X0053700Y0086820D01*
X0053809Y0086981D01*
X0053914Y0087144D01*
X0054015Y0087310D01*
X0054112Y0087478D01*
X0054205Y0087648D01*
X0054294Y0087821D01*
X0054378Y0087996D01*
X0054459Y0088173D01*
X0054535Y0088352D01*
X0054606Y0088532D01*
X0054673Y0088714D01*
X0054736Y0088898D01*
X0054794Y0089083D01*
X0054848Y0089270D01*
X0054897Y0089458D01*
X0054942Y0089647D01*
X0054982Y0089837D01*
X0055017Y0090028D01*
X0055048Y0090219D01*
X0055074Y0090412D01*
X0055095Y0090605D01*
X0055112Y0090798D01*
X0055124Y0090992D01*
X0055131Y0091186D01*
X0055134Y0091380D01*
X0055116Y0091380D01*
X0055113Y0091186D01*
X0055106Y0090993D01*
X0055094Y0090799D01*
X0055077Y0090606D01*
X0055056Y0090414D01*
X0055030Y0090222D01*
X0054999Y0090031D01*
X0054964Y0089840D01*
X0054924Y0089651D01*
X0054880Y0089462D01*
X0054831Y0089275D01*
X0054777Y0089088D01*
X0054719Y0088904D01*
X0054656Y0088720D01*
X0054589Y0088538D01*
X0054518Y0088358D01*
X0054442Y0088180D01*
X0054362Y0088004D01*
X0054278Y0087829D01*
X0054189Y0087657D01*
X0054097Y0087487D01*
X0054000Y0087319D01*
X0053899Y0087153D01*
X0053794Y0086991D01*
X0053685Y0086830D01*
X0053573Y0086673D01*
X0053456Y0086518D01*
X0053336Y0086366D01*
X0053212Y0086217D01*
X0053085Y0086071D01*
X0052954Y0085928D01*
X0052820Y0085788D01*
X0052682Y0085652D01*
X0052541Y0085519D01*
X0052397Y0085389D01*
X0052250Y0085263D01*
X0052100Y0085141D01*
X0051947Y0085022D01*
X0051791Y0084907D01*
X0051632Y0084796D01*
X0051622Y0084811D01*
X0051780Y0084922D01*
X0051936Y0085037D01*
X0052089Y0085155D01*
X0052239Y0085277D01*
X0052385Y0085403D01*
X0052529Y0085532D01*
X0052670Y0085665D01*
X0052807Y0085801D01*
X0052941Y0085940D01*
X0053072Y0086083D01*
X0053199Y0086228D01*
X0053322Y0086377D01*
X0053442Y0086529D01*
X0053558Y0086683D01*
X0053671Y0086840D01*
X0053779Y0087000D01*
X0053884Y0087163D01*
X0053984Y0087328D01*
X0054081Y0087496D01*
X0054173Y0087665D01*
X0054262Y0087837D01*
X0054346Y0088011D01*
X0054426Y0088187D01*
X0054501Y0088365D01*
X0054572Y0088545D01*
X0054639Y0088726D01*
X0054702Y0088909D01*
X0054760Y0089094D01*
X0054813Y0089279D01*
X0054862Y0089466D01*
X0054907Y0089654D01*
X0054946Y0089844D01*
X0054982Y0090034D01*
X0055012Y0090225D01*
X0055038Y0090416D01*
X0055060Y0090608D01*
X0055076Y0090801D01*
X0055088Y0090994D01*
X0055095Y0091187D01*
X0055098Y0091380D01*
X0055080Y0091380D01*
X0055077Y0091187D01*
X0055070Y0090995D01*
X0055058Y0090802D01*
X0055042Y0090610D01*
X0055020Y0090418D01*
X0054994Y0090227D01*
X0054964Y0090037D01*
X0054929Y0089847D01*
X0054889Y0089658D01*
X0054845Y0089471D01*
X0054796Y0089284D01*
X0054742Y0089099D01*
X0054685Y0088915D01*
X0054622Y0088732D01*
X0054556Y0088551D01*
X0054485Y0088372D01*
X0054409Y0088195D01*
X0054329Y0088019D01*
X0054246Y0087845D01*
X0054157Y0087674D01*
X0054065Y0087504D01*
X0053969Y0087337D01*
X0053868Y0087173D01*
X0053764Y0087010D01*
X0053656Y0086851D01*
X0053544Y0086694D01*
X0053428Y0086540D01*
X0053308Y0086388D01*
X0053185Y0086240D01*
X0053058Y0086095D01*
X0052928Y0085952D01*
X0052794Y0085813D01*
X0052657Y0085678D01*
X0052517Y0085545D01*
X0052374Y0085416D01*
X0052227Y0085291D01*
X0052078Y0085169D01*
X0051925Y0085051D01*
X0051770Y0084937D01*
X0051612Y0084826D01*
X0051602Y0084841D01*
X0051759Y0084951D01*
X0051914Y0085065D01*
X0052066Y0085183D01*
X0052216Y0085305D01*
X0052362Y0085430D01*
X0052505Y0085558D01*
X0052645Y0085691D01*
X0052782Y0085826D01*
X0052915Y0085965D01*
X0053045Y0086107D01*
X0053171Y0086252D01*
X0053294Y0086400D01*
X0053414Y0086551D01*
X0053529Y0086704D01*
X0053641Y0086861D01*
X0053749Y0087020D01*
X0053853Y0087182D01*
X0053953Y0087346D01*
X0054049Y0087513D01*
X0054141Y0087682D01*
X0054229Y0087853D01*
X0054313Y0088027D01*
X0054393Y0088202D01*
X0054468Y0088379D01*
X0054539Y0088558D01*
X0054605Y0088738D01*
X0054668Y0088920D01*
X0054725Y0089104D01*
X0054779Y0089289D01*
X0054827Y0089475D01*
X0054871Y0089662D01*
X0054911Y0089851D01*
X0054946Y0090040D01*
X0054977Y0090230D01*
X0055002Y0090420D01*
X0055024Y0090612D01*
X0055040Y0090803D01*
X0055052Y0090995D01*
X0055059Y0091188D01*
X0055062Y0091380D01*
X0051719Y0089181D02*
X0051557Y0089259D01*
X0051615Y0089383D01*
X0051669Y0089509D01*
X0051720Y0089637D01*
X0051767Y0089765D01*
X0051811Y0089895D01*
X0051851Y0090027D01*
X0051887Y0090159D01*
X0051920Y0090292D01*
X0051948Y0090426D01*
X0051974Y0090561D01*
X0051995Y0090697D01*
X0052012Y0090833D01*
X0052026Y0090969D01*
X0052036Y0091106D01*
X0052042Y0091243D01*
X0052044Y0091380D01*
X0052223Y0091381D01*
X0052224Y0091380D01*
X0052222Y0091246D01*
X0052216Y0091112D01*
X0052207Y0090979D01*
X0052195Y0090846D01*
X0052179Y0090713D01*
X0052159Y0090580D01*
X0052136Y0090448D01*
X0052110Y0090317D01*
X0052080Y0090187D01*
X0052046Y0090057D01*
X0052010Y0089928D01*
X0051970Y0089801D01*
X0051926Y0089674D01*
X0051879Y0089549D01*
X0051829Y0089424D01*
X0051776Y0089302D01*
X0051719Y0089180D01*
X0051703Y0089188D01*
X0051763Y0089317D01*
X0051819Y0089447D01*
X0051871Y0089578D01*
X0051920Y0089712D01*
X0051965Y0089846D01*
X0052007Y0089982D01*
X0052044Y0090118D01*
X0052078Y0090256D01*
X0052107Y0090394D01*
X0052133Y0090534D01*
X0052155Y0090674D01*
X0052173Y0090814D01*
X0052187Y0090955D01*
X0052198Y0091097D01*
X0052204Y0091238D01*
X0052206Y0091380D01*
X0052188Y0091380D01*
X0052186Y0091239D01*
X0052180Y0091098D01*
X0052169Y0090957D01*
X0052155Y0090816D01*
X0052137Y0090676D01*
X0052115Y0090537D01*
X0052090Y0090398D01*
X0052060Y0090260D01*
X0052027Y0090123D01*
X0051989Y0089987D01*
X0051948Y0089851D01*
X0051903Y0089718D01*
X0051855Y0089585D01*
X0051802Y0089454D01*
X0051746Y0089324D01*
X0051687Y0089196D01*
X0051671Y0089204D01*
X0051730Y0089331D01*
X0051786Y0089461D01*
X0051838Y0089591D01*
X0051886Y0089724D01*
X0051931Y0089857D01*
X0051972Y0089992D01*
X0052009Y0090127D01*
X0052042Y0090264D01*
X0052072Y0090402D01*
X0052098Y0090540D01*
X0052120Y0090679D01*
X0052137Y0090818D01*
X0052151Y0090958D01*
X0052162Y0091099D01*
X0052168Y0091239D01*
X0052170Y0091380D01*
X0052152Y0091380D01*
X0052150Y0091240D01*
X0052144Y0091100D01*
X0052134Y0090960D01*
X0052120Y0090820D01*
X0052102Y0090681D01*
X0052080Y0090543D01*
X0052054Y0090405D01*
X0052025Y0090268D01*
X0051992Y0090132D01*
X0051955Y0089997D01*
X0051914Y0089862D01*
X0051869Y0089729D01*
X0051821Y0089598D01*
X0051769Y0089468D01*
X0051714Y0089339D01*
X0051655Y0089212D01*
X0051638Y0089220D01*
X0051697Y0089346D01*
X0051753Y0089475D01*
X0051804Y0089604D01*
X0051852Y0089735D01*
X0051897Y0089868D01*
X0051937Y0090002D01*
X0051974Y0090136D01*
X0052007Y0090272D01*
X0052037Y0090409D01*
X0052062Y0090546D01*
X0052084Y0090684D01*
X0052102Y0090823D01*
X0052116Y0090962D01*
X0052126Y0091101D01*
X0052132Y0091240D01*
X0052134Y0091380D01*
X0052116Y0091380D01*
X0052114Y0091241D01*
X0052108Y0091102D01*
X0052098Y0090963D01*
X0052084Y0090825D01*
X0052066Y0090686D01*
X0052044Y0090549D01*
X0052019Y0090412D01*
X0051990Y0090276D01*
X0051957Y0090141D01*
X0051920Y0090007D01*
X0051880Y0089873D01*
X0051835Y0089741D01*
X0051787Y0089611D01*
X0051736Y0089481D01*
X0051681Y0089354D01*
X0051622Y0089227D01*
X0051606Y0089235D01*
X0051664Y0089361D01*
X0051719Y0089488D01*
X0051771Y0089617D01*
X0051818Y0089747D01*
X0051862Y0089879D01*
X0051903Y0090012D01*
X0051939Y0090145D01*
X0051972Y0090280D01*
X0052001Y0090416D01*
X0052027Y0090552D01*
X0052048Y0090689D01*
X0052066Y0090827D01*
X0052080Y0090965D01*
X0052090Y0091103D01*
X0052096Y0091241D01*
X0052098Y0091380D01*
X0052080Y0091380D01*
X0052078Y0091242D01*
X0052072Y0091104D01*
X0052062Y0090966D01*
X0052048Y0090829D01*
X0052030Y0090692D01*
X0052009Y0090555D01*
X0051984Y0090419D01*
X0051955Y0090284D01*
X0051922Y0090150D01*
X0051885Y0090017D01*
X0051845Y0089884D01*
X0051801Y0089753D01*
X0051754Y0089624D01*
X0051703Y0089495D01*
X0051648Y0089368D01*
X0051590Y0089243D01*
X0051574Y0089251D01*
X0051632Y0089376D01*
X0051686Y0089502D01*
X0051737Y0089630D01*
X0051784Y0089759D01*
X0051828Y0089890D01*
X0051868Y0090022D01*
X0051905Y0090154D01*
X0051937Y0090288D01*
X0051966Y0090423D01*
X0051991Y0090558D01*
X0052013Y0090694D01*
X0052030Y0090831D01*
X0052044Y0090968D01*
X0052054Y0091105D01*
X0052060Y0091242D01*
X0052062Y0091380D01*
X0042045Y0091381D02*
X0042225Y0091381D01*
X0042224Y0091380D02*
X0042226Y0091243D01*
X0042232Y0091106D01*
X0042242Y0090969D01*
X0042256Y0090833D01*
X0042273Y0090697D01*
X0042294Y0090561D01*
X0042320Y0090426D01*
X0042348Y0090292D01*
X0042381Y0090159D01*
X0042417Y0090027D01*
X0042457Y0089895D01*
X0042501Y0089765D01*
X0042548Y0089637D01*
X0042599Y0089509D01*
X0042653Y0089383D01*
X0042711Y0089259D01*
X0042549Y0089181D01*
X0042549Y0089180D01*
X0042492Y0089302D01*
X0042439Y0089424D01*
X0042389Y0089549D01*
X0042342Y0089674D01*
X0042298Y0089801D01*
X0042258Y0089928D01*
X0042222Y0090057D01*
X0042188Y0090187D01*
X0042158Y0090317D01*
X0042132Y0090448D01*
X0042109Y0090580D01*
X0042089Y0090713D01*
X0042073Y0090846D01*
X0042061Y0090979D01*
X0042052Y0091112D01*
X0042046Y0091246D01*
X0042044Y0091380D01*
X0042062Y0091380D01*
X0042064Y0091238D01*
X0042070Y0091097D01*
X0042081Y0090955D01*
X0042095Y0090814D01*
X0042113Y0090674D01*
X0042135Y0090534D01*
X0042161Y0090394D01*
X0042190Y0090256D01*
X0042224Y0090118D01*
X0042261Y0089982D01*
X0042303Y0089846D01*
X0042348Y0089712D01*
X0042397Y0089578D01*
X0042449Y0089447D01*
X0042505Y0089317D01*
X0042565Y0089188D01*
X0042581Y0089196D01*
X0042522Y0089324D01*
X0042466Y0089454D01*
X0042413Y0089585D01*
X0042365Y0089718D01*
X0042320Y0089851D01*
X0042279Y0089987D01*
X0042241Y0090123D01*
X0042208Y0090260D01*
X0042178Y0090398D01*
X0042153Y0090537D01*
X0042131Y0090676D01*
X0042113Y0090816D01*
X0042099Y0090957D01*
X0042088Y0091098D01*
X0042082Y0091239D01*
X0042080Y0091380D01*
X0042098Y0091380D01*
X0042100Y0091239D01*
X0042106Y0091099D01*
X0042117Y0090958D01*
X0042131Y0090818D01*
X0042148Y0090679D01*
X0042170Y0090540D01*
X0042196Y0090402D01*
X0042226Y0090264D01*
X0042259Y0090127D01*
X0042296Y0089992D01*
X0042337Y0089857D01*
X0042382Y0089724D01*
X0042430Y0089591D01*
X0042482Y0089461D01*
X0042538Y0089331D01*
X0042597Y0089204D01*
X0042613Y0089212D01*
X0042554Y0089339D01*
X0042499Y0089468D01*
X0042447Y0089598D01*
X0042399Y0089729D01*
X0042354Y0089862D01*
X0042313Y0089997D01*
X0042276Y0090132D01*
X0042243Y0090268D01*
X0042214Y0090405D01*
X0042188Y0090543D01*
X0042166Y0090681D01*
X0042148Y0090820D01*
X0042134Y0090960D01*
X0042124Y0091100D01*
X0042118Y0091240D01*
X0042116Y0091380D01*
X0042134Y0091380D01*
X0042136Y0091240D01*
X0042142Y0091101D01*
X0042152Y0090962D01*
X0042166Y0090823D01*
X0042184Y0090684D01*
X0042206Y0090546D01*
X0042231Y0090409D01*
X0042261Y0090272D01*
X0042294Y0090136D01*
X0042331Y0090002D01*
X0042371Y0089868D01*
X0042416Y0089735D01*
X0042464Y0089604D01*
X0042515Y0089475D01*
X0042571Y0089346D01*
X0042630Y0089220D01*
X0042646Y0089227D01*
X0042587Y0089354D01*
X0042532Y0089481D01*
X0042481Y0089611D01*
X0042433Y0089741D01*
X0042388Y0089873D01*
X0042348Y0090007D01*
X0042311Y0090141D01*
X0042278Y0090276D01*
X0042249Y0090412D01*
X0042224Y0090549D01*
X0042202Y0090686D01*
X0042184Y0090825D01*
X0042170Y0090963D01*
X0042160Y0091102D01*
X0042154Y0091241D01*
X0042152Y0091380D01*
X0042170Y0091380D01*
X0042172Y0091241D01*
X0042178Y0091103D01*
X0042188Y0090965D01*
X0042202Y0090827D01*
X0042220Y0090689D01*
X0042241Y0090552D01*
X0042267Y0090416D01*
X0042296Y0090280D01*
X0042329Y0090145D01*
X0042365Y0090012D01*
X0042406Y0089879D01*
X0042450Y0089747D01*
X0042497Y0089617D01*
X0042549Y0089488D01*
X0042604Y0089361D01*
X0042662Y0089235D01*
X0042678Y0089243D01*
X0042620Y0089368D01*
X0042565Y0089495D01*
X0042514Y0089624D01*
X0042467Y0089753D01*
X0042423Y0089884D01*
X0042383Y0090017D01*
X0042346Y0090150D01*
X0042313Y0090284D01*
X0042284Y0090419D01*
X0042259Y0090555D01*
X0042238Y0090692D01*
X0042220Y0090829D01*
X0042206Y0090966D01*
X0042196Y0091104D01*
X0042190Y0091242D01*
X0042188Y0091380D01*
X0042206Y0091380D01*
X0042208Y0091242D01*
X0042214Y0091105D01*
X0042224Y0090968D01*
X0042238Y0090831D01*
X0042255Y0090694D01*
X0042277Y0090558D01*
X0042302Y0090423D01*
X0042331Y0090288D01*
X0042363Y0090154D01*
X0042400Y0090022D01*
X0042440Y0089890D01*
X0042484Y0089759D01*
X0042531Y0089630D01*
X0042582Y0089502D01*
X0042636Y0089376D01*
X0042694Y0089251D01*
X0039045Y0091380D02*
X0039225Y0091380D01*
X0039224Y0091380D02*
X0039227Y0091188D01*
X0039234Y0090996D01*
X0039246Y0090804D01*
X0039262Y0090613D01*
X0039283Y0090422D01*
X0039309Y0090232D01*
X0039340Y0090042D01*
X0039375Y0089854D01*
X0039414Y0089666D01*
X0039458Y0089479D01*
X0039507Y0089293D01*
X0039560Y0089109D01*
X0039618Y0088926D01*
X0039680Y0088744D01*
X0039746Y0088564D01*
X0039817Y0088385D01*
X0039892Y0088209D01*
X0039971Y0088034D01*
X0040055Y0087861D01*
X0040143Y0087690D01*
X0040234Y0087522D01*
X0040330Y0087355D01*
X0040430Y0087191D01*
X0040534Y0087030D01*
X0040642Y0086871D01*
X0040754Y0086715D01*
X0040869Y0086561D01*
X0040988Y0086411D01*
X0041111Y0086263D01*
X0041237Y0086118D01*
X0041366Y0085977D01*
X0041499Y0085838D01*
X0041636Y0085703D01*
X0041776Y0085572D01*
X0041918Y0085443D01*
X0042064Y0085318D01*
X0042213Y0085197D01*
X0042365Y0085080D01*
X0042519Y0084966D01*
X0042677Y0084856D01*
X0042576Y0084707D01*
X0042575Y0084707D01*
X0042414Y0084819D01*
X0042256Y0084936D01*
X0042101Y0085056D01*
X0041949Y0085180D01*
X0041800Y0085308D01*
X0041654Y0085439D01*
X0041511Y0085574D01*
X0041371Y0085712D01*
X0041235Y0085853D01*
X0041103Y0085998D01*
X0040974Y0086146D01*
X0040848Y0086297D01*
X0040726Y0086451D01*
X0040608Y0086608D01*
X0040494Y0086768D01*
X0040384Y0086931D01*
X0040278Y0087096D01*
X0040176Y0087263D01*
X0040077Y0087434D01*
X0039984Y0087606D01*
X0039894Y0087781D01*
X0039808Y0087957D01*
X0039727Y0088136D01*
X0039650Y0088317D01*
X0039578Y0088500D01*
X0039510Y0088684D01*
X0039447Y0088870D01*
X0039388Y0089057D01*
X0039333Y0089246D01*
X0039284Y0089436D01*
X0039239Y0089627D01*
X0039198Y0089819D01*
X0039162Y0090012D01*
X0039131Y0090206D01*
X0039105Y0090400D01*
X0039083Y0090596D01*
X0039066Y0090791D01*
X0039054Y0090987D01*
X0039047Y0091183D01*
X0039044Y0091380D01*
X0039062Y0091380D01*
X0039065Y0091184D01*
X0039072Y0090988D01*
X0039084Y0090792D01*
X0039101Y0090597D01*
X0039123Y0090403D01*
X0039149Y0090208D01*
X0039180Y0090015D01*
X0039216Y0089822D01*
X0039256Y0089631D01*
X0039301Y0089440D01*
X0039351Y0089250D01*
X0039405Y0089062D01*
X0039464Y0088875D01*
X0039527Y0088690D01*
X0039595Y0088506D01*
X0039667Y0088324D01*
X0039744Y0088143D01*
X0039825Y0087965D01*
X0039910Y0087789D01*
X0039999Y0087614D01*
X0040093Y0087442D01*
X0040191Y0087273D01*
X0040293Y0087105D01*
X0040399Y0086941D01*
X0040509Y0086778D01*
X0040623Y0086619D01*
X0040741Y0086462D01*
X0040862Y0086309D01*
X0040987Y0086158D01*
X0041116Y0086010D01*
X0041248Y0085866D01*
X0041384Y0085725D01*
X0041523Y0085587D01*
X0041666Y0085452D01*
X0041812Y0085321D01*
X0041960Y0085194D01*
X0042112Y0085070D01*
X0042267Y0084950D01*
X0042425Y0084834D01*
X0042585Y0084722D01*
X0042596Y0084736D01*
X0042435Y0084849D01*
X0042278Y0084965D01*
X0042124Y0085084D01*
X0041972Y0085208D01*
X0041823Y0085335D01*
X0041678Y0085466D01*
X0041536Y0085600D01*
X0041397Y0085737D01*
X0041261Y0085878D01*
X0041129Y0086022D01*
X0041001Y0086170D01*
X0040876Y0086320D01*
X0040755Y0086473D01*
X0040637Y0086630D01*
X0040524Y0086789D01*
X0040414Y0086951D01*
X0040308Y0087115D01*
X0040207Y0087282D01*
X0040109Y0087451D01*
X0040015Y0087623D01*
X0039926Y0087797D01*
X0039841Y0087973D01*
X0039760Y0088151D01*
X0039684Y0088331D01*
X0039612Y0088512D01*
X0039544Y0088696D01*
X0039481Y0088881D01*
X0039422Y0089067D01*
X0039368Y0089255D01*
X0039319Y0089444D01*
X0039274Y0089634D01*
X0039233Y0089826D01*
X0039198Y0090018D01*
X0039167Y0090211D01*
X0039140Y0090405D01*
X0039119Y0090599D01*
X0039102Y0090794D01*
X0039090Y0090989D01*
X0039083Y0091184D01*
X0039080Y0091380D01*
X0039098Y0091380D01*
X0039101Y0091185D01*
X0039108Y0090990D01*
X0039120Y0090795D01*
X0039137Y0090601D01*
X0039158Y0090407D01*
X0039185Y0090214D01*
X0039215Y0090021D01*
X0039251Y0089829D01*
X0039291Y0089638D01*
X0039336Y0089449D01*
X0039385Y0089260D01*
X0039439Y0089072D01*
X0039498Y0088886D01*
X0039561Y0088702D01*
X0039628Y0088519D01*
X0039700Y0088337D01*
X0039777Y0088158D01*
X0039857Y0087980D01*
X0039942Y0087805D01*
X0040031Y0087631D01*
X0040125Y0087460D01*
X0040222Y0087291D01*
X0040324Y0087124D01*
X0040429Y0086960D01*
X0040539Y0086799D01*
X0040652Y0086640D01*
X0040769Y0086484D01*
X0040890Y0086331D01*
X0041015Y0086181D01*
X0041143Y0086034D01*
X0041275Y0085890D01*
X0041410Y0085750D01*
X0041548Y0085613D01*
X0041690Y0085479D01*
X0041835Y0085348D01*
X0041983Y0085222D01*
X0042135Y0085098D01*
X0042289Y0084979D01*
X0042446Y0084863D01*
X0042606Y0084751D01*
X0042616Y0084766D01*
X0042456Y0084878D01*
X0042300Y0084993D01*
X0042146Y0085112D01*
X0041995Y0085235D01*
X0041847Y0085362D01*
X0041702Y0085492D01*
X0041561Y0085626D01*
X0041423Y0085763D01*
X0041288Y0085903D01*
X0041156Y0086046D01*
X0041028Y0086193D01*
X0040904Y0086343D01*
X0040783Y0086495D01*
X0040666Y0086651D01*
X0040553Y0086809D01*
X0040444Y0086970D01*
X0040339Y0087134D01*
X0040237Y0087300D01*
X0040140Y0087469D01*
X0040047Y0087640D01*
X0039958Y0087813D01*
X0039874Y0087988D01*
X0039793Y0088165D01*
X0039717Y0088344D01*
X0039645Y0088525D01*
X0039578Y0088708D01*
X0039515Y0088892D01*
X0039457Y0089078D01*
X0039403Y0089265D01*
X0039354Y0089453D01*
X0039309Y0089642D01*
X0039269Y0089833D01*
X0039233Y0090024D01*
X0039202Y0090216D01*
X0039176Y0090409D01*
X0039155Y0090603D01*
X0039138Y0090796D01*
X0039126Y0090991D01*
X0039119Y0091185D01*
X0039116Y0091380D01*
X0039134Y0091380D01*
X0039137Y0091186D01*
X0039144Y0090992D01*
X0039156Y0090798D01*
X0039173Y0090604D01*
X0039194Y0090411D01*
X0039220Y0090219D01*
X0039251Y0090027D01*
X0039286Y0089836D01*
X0039326Y0089646D01*
X0039371Y0089457D01*
X0039420Y0089269D01*
X0039474Y0089083D01*
X0039532Y0088898D01*
X0039595Y0088714D01*
X0039662Y0088532D01*
X0039734Y0088351D01*
X0039810Y0088172D01*
X0039890Y0087996D01*
X0039974Y0087821D01*
X0040063Y0087648D01*
X0040156Y0087478D01*
X0040253Y0087309D01*
X0040354Y0087144D01*
X0040459Y0086980D01*
X0040568Y0086820D01*
X0040681Y0086662D01*
X0040798Y0086506D01*
X0040918Y0086354D01*
X0041042Y0086205D01*
X0041170Y0086058D01*
X0041301Y0085915D01*
X0041435Y0085775D01*
X0041573Y0085639D01*
X0041715Y0085505D01*
X0041859Y0085375D01*
X0042007Y0085249D01*
X0042157Y0085127D01*
X0042311Y0085008D01*
X0042467Y0084892D01*
X0042626Y0084781D01*
X0042636Y0084796D01*
X0042477Y0084907D01*
X0042321Y0085022D01*
X0042168Y0085141D01*
X0042018Y0085263D01*
X0041871Y0085389D01*
X0041727Y0085519D01*
X0041586Y0085651D01*
X0041448Y0085788D01*
X0041314Y0085927D01*
X0041183Y0086070D01*
X0041056Y0086216D01*
X0040932Y0086365D01*
X0040812Y0086517D01*
X0040695Y0086672D01*
X0040583Y0086830D01*
X0040474Y0086990D01*
X0040369Y0087153D01*
X0040268Y0087319D01*
X0040172Y0087486D01*
X0040079Y0087657D01*
X0039990Y0087829D01*
X0039906Y0088003D01*
X0039826Y0088180D01*
X0039750Y0088358D01*
X0039679Y0088538D01*
X0039612Y0088720D01*
X0039549Y0088903D01*
X0039491Y0089088D01*
X0039438Y0089274D01*
X0039388Y0089462D01*
X0039344Y0089650D01*
X0039304Y0089840D01*
X0039269Y0090030D01*
X0039238Y0090221D01*
X0039212Y0090413D01*
X0039191Y0090606D01*
X0039174Y0090799D01*
X0039162Y0090992D01*
X0039155Y0091186D01*
X0039152Y0091380D01*
X0039170Y0091380D01*
X0039173Y0091186D01*
X0039180Y0090993D01*
X0039192Y0090800D01*
X0039209Y0090608D01*
X0039230Y0090416D01*
X0039256Y0090224D01*
X0039286Y0090033D01*
X0039322Y0089843D01*
X0039361Y0089654D01*
X0039406Y0089466D01*
X0039455Y0089279D01*
X0039508Y0089093D01*
X0039566Y0088909D01*
X0039629Y0088726D01*
X0039696Y0088545D01*
X0039767Y0088365D01*
X0039843Y0088187D01*
X0039922Y0088011D01*
X0040007Y0087837D01*
X0040095Y0087665D01*
X0040187Y0087495D01*
X0040284Y0087328D01*
X0040385Y0087163D01*
X0040489Y0087000D01*
X0040598Y0086840D01*
X0040710Y0086683D01*
X0040826Y0086528D01*
X0040946Y0086377D01*
X0041069Y0086228D01*
X0041197Y0086082D01*
X0041327Y0085940D01*
X0041461Y0085800D01*
X0041598Y0085664D01*
X0041739Y0085532D01*
X0041883Y0085403D01*
X0042030Y0085277D01*
X0042179Y0085155D01*
X0042332Y0085036D01*
X0042488Y0084922D01*
X0042646Y0084811D01*
X0042656Y0084826D01*
X0042498Y0084936D01*
X0042343Y0085051D01*
X0042191Y0085169D01*
X0042041Y0085291D01*
X0041895Y0085416D01*
X0041751Y0085545D01*
X0041611Y0085677D01*
X0041474Y0085813D01*
X0041340Y0085952D01*
X0041210Y0086094D01*
X0041083Y0086240D01*
X0040960Y0086388D01*
X0040840Y0086539D01*
X0040724Y0086694D01*
X0040612Y0086850D01*
X0040504Y0087010D01*
X0040400Y0087172D01*
X0040299Y0087337D01*
X0040203Y0087504D01*
X0040111Y0087673D01*
X0040023Y0087845D01*
X0039939Y0088019D01*
X0039859Y0088194D01*
X0039784Y0088372D01*
X0039713Y0088551D01*
X0039646Y0088732D01*
X0039583Y0088914D01*
X0039526Y0089098D01*
X0039472Y0089284D01*
X0039423Y0089470D01*
X0039379Y0089658D01*
X0039339Y0089847D01*
X0039304Y0090036D01*
X0039274Y0090227D01*
X0039248Y0090418D01*
X0039226Y0090610D01*
X0039210Y0090802D01*
X0039198Y0090994D01*
X0039191Y0091187D01*
X0039188Y0091380D01*
X0039206Y0091380D01*
X0039209Y0091187D01*
X0039216Y0090995D01*
X0039228Y0090803D01*
X0039244Y0090611D01*
X0039266Y0090420D01*
X0039291Y0090229D01*
X0039322Y0090039D01*
X0039357Y0089850D01*
X0039397Y0089662D01*
X0039441Y0089475D01*
X0039490Y0089288D01*
X0039543Y0089104D01*
X0039601Y0088920D01*
X0039663Y0088738D01*
X0039729Y0088557D01*
X0039800Y0088378D01*
X0039875Y0088201D01*
X0039955Y0088026D01*
X0040039Y0087853D01*
X0040127Y0087682D01*
X0040219Y0087513D01*
X0040315Y0087346D01*
X0040415Y0087182D01*
X0040519Y0087020D01*
X0040627Y0086861D01*
X0040739Y0086704D01*
X0040855Y0086550D01*
X0040974Y0086399D01*
X0041097Y0086251D01*
X0041223Y0086106D01*
X0041353Y0085964D01*
X0041487Y0085826D01*
X0041623Y0085690D01*
X0041763Y0085558D01*
X0041906Y0085430D01*
X0042053Y0085305D01*
X0042202Y0085183D01*
X0042354Y0085065D01*
X0042509Y0084951D01*
X0042666Y0084841D01*
X0055223Y0118399D02*
X0055043Y0118399D01*
X0055044Y0118399D02*
X0055041Y0118591D01*
X0055034Y0118783D01*
X0055022Y0118975D01*
X0055006Y0119166D01*
X0054985Y0119357D01*
X0054959Y0119547D01*
X0054928Y0119737D01*
X0054893Y0119926D01*
X0054854Y0120113D01*
X0054810Y0120300D01*
X0054761Y0120486D01*
X0054708Y0120670D01*
X0054650Y0120854D01*
X0054588Y0121035D01*
X0054522Y0121215D01*
X0054451Y0121394D01*
X0054376Y0121571D01*
X0054297Y0121745D01*
X0054213Y0121918D01*
X0054125Y0122089D01*
X0054033Y0122258D01*
X0053938Y0122424D01*
X0053838Y0122588D01*
X0053734Y0122749D01*
X0053626Y0122908D01*
X0053514Y0123064D01*
X0053399Y0123218D01*
X0053280Y0123368D01*
X0053157Y0123516D01*
X0053031Y0123661D01*
X0052901Y0123802D01*
X0052768Y0123941D01*
X0052632Y0124076D01*
X0052492Y0124208D01*
X0052350Y0124336D01*
X0052204Y0124461D01*
X0052055Y0124582D01*
X0051903Y0124700D01*
X0051749Y0124814D01*
X0051591Y0124924D01*
X0051692Y0125072D01*
X0051853Y0124960D01*
X0052011Y0124843D01*
X0052167Y0124723D01*
X0052319Y0124599D01*
X0052468Y0124471D01*
X0052614Y0124340D01*
X0052757Y0124205D01*
X0052896Y0124067D01*
X0053033Y0123926D01*
X0053165Y0123781D01*
X0053294Y0123633D01*
X0053420Y0123482D01*
X0053542Y0123328D01*
X0053660Y0123171D01*
X0053774Y0123011D01*
X0053884Y0122849D01*
X0053990Y0122683D01*
X0054092Y0122516D01*
X0054190Y0122346D01*
X0054284Y0122173D01*
X0054374Y0121999D01*
X0054460Y0121822D01*
X0054541Y0121643D01*
X0054618Y0121462D01*
X0054690Y0121280D01*
X0054758Y0121095D01*
X0054821Y0120910D01*
X0054880Y0120722D01*
X0054935Y0120534D01*
X0054984Y0120344D01*
X0055029Y0120153D01*
X0055070Y0119960D01*
X0055106Y0119767D01*
X0055137Y0119573D01*
X0055163Y0119379D01*
X0055185Y0119184D01*
X0055202Y0118988D01*
X0055214Y0118792D01*
X0055221Y0118596D01*
X0055224Y0118399D01*
X0055206Y0118399D01*
X0055203Y0118595D01*
X0055196Y0118791D01*
X0055184Y0118987D01*
X0055167Y0119182D01*
X0055145Y0119377D01*
X0055119Y0119571D01*
X0055088Y0119764D01*
X0055052Y0119957D01*
X0055012Y0120149D01*
X0054967Y0120339D01*
X0054917Y0120529D01*
X0054863Y0120717D01*
X0054804Y0120904D01*
X0054741Y0121089D01*
X0054673Y0121273D01*
X0054601Y0121455D01*
X0054524Y0121636D01*
X0054443Y0121814D01*
X0054358Y0121990D01*
X0054268Y0122165D01*
X0054175Y0122337D01*
X0054077Y0122507D01*
X0053975Y0122674D01*
X0053869Y0122839D01*
X0053759Y0123001D01*
X0053645Y0123160D01*
X0053527Y0123317D01*
X0053406Y0123470D01*
X0053281Y0123621D01*
X0053152Y0123769D01*
X0053019Y0123913D01*
X0052884Y0124055D01*
X0052744Y0124192D01*
X0052602Y0124327D01*
X0052456Y0124458D01*
X0052307Y0124585D01*
X0052155Y0124709D01*
X0052001Y0124829D01*
X0051843Y0124945D01*
X0051682Y0125058D01*
X0051672Y0125043D01*
X0051832Y0124931D01*
X0051990Y0124815D01*
X0052144Y0124695D01*
X0052296Y0124571D01*
X0052444Y0124444D01*
X0052590Y0124314D01*
X0052732Y0124179D01*
X0052871Y0124042D01*
X0053006Y0123901D01*
X0053138Y0123757D01*
X0053267Y0123610D01*
X0053392Y0123459D01*
X0053513Y0123306D01*
X0053630Y0123150D01*
X0053744Y0122990D01*
X0053854Y0122829D01*
X0053960Y0122664D01*
X0054061Y0122497D01*
X0054159Y0122328D01*
X0054253Y0122156D01*
X0054342Y0121982D01*
X0054427Y0121806D01*
X0054508Y0121628D01*
X0054584Y0121449D01*
X0054656Y0121267D01*
X0054724Y0121083D01*
X0054787Y0120898D01*
X0054846Y0120712D01*
X0054900Y0120524D01*
X0054949Y0120335D01*
X0054994Y0120145D01*
X0055035Y0119953D01*
X0055070Y0119761D01*
X0055101Y0119568D01*
X0055127Y0119374D01*
X0055149Y0119180D01*
X0055166Y0118985D01*
X0055178Y0118790D01*
X0055185Y0118595D01*
X0055188Y0118399D01*
X0055170Y0118399D01*
X0055167Y0118595D01*
X0055160Y0118789D01*
X0055148Y0118984D01*
X0055131Y0119178D01*
X0055110Y0119372D01*
X0055083Y0119566D01*
X0055053Y0119758D01*
X0055017Y0119950D01*
X0054977Y0120141D01*
X0054932Y0120331D01*
X0054882Y0120519D01*
X0054829Y0120707D01*
X0054770Y0120893D01*
X0054707Y0121077D01*
X0054639Y0121260D01*
X0054568Y0121442D01*
X0054491Y0121621D01*
X0054411Y0121799D01*
X0054326Y0121974D01*
X0054237Y0122148D01*
X0054143Y0122319D01*
X0054046Y0122488D01*
X0053944Y0122655D01*
X0053839Y0122819D01*
X0053729Y0122980D01*
X0053616Y0123139D01*
X0053499Y0123295D01*
X0053378Y0123448D01*
X0053253Y0123598D01*
X0053125Y0123745D01*
X0052993Y0123889D01*
X0052858Y0124029D01*
X0052719Y0124167D01*
X0052578Y0124300D01*
X0052433Y0124431D01*
X0052284Y0124558D01*
X0052133Y0124681D01*
X0051979Y0124800D01*
X0051822Y0124916D01*
X0051662Y0125028D01*
X0051652Y0125013D01*
X0051811Y0124901D01*
X0051968Y0124786D01*
X0052122Y0124667D01*
X0052273Y0124544D01*
X0052421Y0124417D01*
X0052565Y0124287D01*
X0052707Y0124154D01*
X0052845Y0124017D01*
X0052980Y0123876D01*
X0053112Y0123733D01*
X0053240Y0123586D01*
X0053364Y0123436D01*
X0053485Y0123284D01*
X0053601Y0123128D01*
X0053715Y0122970D01*
X0053824Y0122809D01*
X0053929Y0122645D01*
X0054030Y0122479D01*
X0054128Y0122310D01*
X0054221Y0122139D01*
X0054310Y0121966D01*
X0054394Y0121791D01*
X0054475Y0121614D01*
X0054551Y0121435D01*
X0054623Y0121254D01*
X0054690Y0121071D01*
X0054753Y0120887D01*
X0054811Y0120702D01*
X0054865Y0120515D01*
X0054914Y0120326D01*
X0054959Y0120137D01*
X0054999Y0119946D01*
X0055035Y0119755D01*
X0055066Y0119563D01*
X0055092Y0119370D01*
X0055113Y0119177D01*
X0055130Y0118983D01*
X0055142Y0118789D01*
X0055149Y0118594D01*
X0055152Y0118399D01*
X0055134Y0118399D01*
X0055131Y0118594D01*
X0055124Y0118788D01*
X0055112Y0118981D01*
X0055095Y0119175D01*
X0055074Y0119368D01*
X0055048Y0119560D01*
X0055017Y0119752D01*
X0054982Y0119943D01*
X0054942Y0120133D01*
X0054897Y0120322D01*
X0054848Y0120510D01*
X0054794Y0120696D01*
X0054736Y0120882D01*
X0054673Y0121065D01*
X0054606Y0121248D01*
X0054534Y0121428D01*
X0054458Y0121607D01*
X0054378Y0121784D01*
X0054294Y0121958D01*
X0054205Y0122131D01*
X0054112Y0122302D01*
X0054015Y0122470D01*
X0053914Y0122636D01*
X0053809Y0122799D01*
X0053700Y0122960D01*
X0053587Y0123118D01*
X0053470Y0123273D01*
X0053350Y0123425D01*
X0053226Y0123575D01*
X0053098Y0123721D01*
X0052967Y0123864D01*
X0052832Y0124004D01*
X0052694Y0124141D01*
X0052553Y0124274D01*
X0052409Y0124404D01*
X0052261Y0124530D01*
X0052111Y0124653D01*
X0051957Y0124771D01*
X0051801Y0124887D01*
X0051642Y0124998D01*
X0051632Y0124983D01*
X0051790Y0124872D01*
X0051946Y0124757D01*
X0052100Y0124638D01*
X0052250Y0124516D01*
X0052397Y0124390D01*
X0052541Y0124261D01*
X0052682Y0124128D01*
X0052820Y0123991D01*
X0052954Y0123852D01*
X0053085Y0123709D01*
X0053212Y0123563D01*
X0053336Y0123414D01*
X0053456Y0123262D01*
X0053572Y0123107D01*
X0053685Y0122949D01*
X0053794Y0122789D01*
X0053899Y0122626D01*
X0053999Y0122461D01*
X0054096Y0122293D01*
X0054189Y0122123D01*
X0054277Y0121950D01*
X0054362Y0121776D01*
X0054442Y0121600D01*
X0054518Y0121421D01*
X0054589Y0121241D01*
X0054656Y0121059D01*
X0054719Y0120876D01*
X0054777Y0120691D01*
X0054830Y0120505D01*
X0054880Y0120318D01*
X0054924Y0120129D01*
X0054964Y0119939D01*
X0054999Y0119749D01*
X0055030Y0119558D01*
X0055056Y0119366D01*
X0055077Y0119173D01*
X0055094Y0118980D01*
X0055106Y0118787D01*
X0055113Y0118593D01*
X0055116Y0118399D01*
X0055098Y0118399D01*
X0055095Y0118593D01*
X0055088Y0118786D01*
X0055076Y0118979D01*
X0055059Y0119171D01*
X0055038Y0119364D01*
X0055012Y0119555D01*
X0054982Y0119746D01*
X0054946Y0119936D01*
X0054906Y0120125D01*
X0054862Y0120313D01*
X0054813Y0120500D01*
X0054760Y0120686D01*
X0054702Y0120870D01*
X0054639Y0121053D01*
X0054572Y0121235D01*
X0054501Y0121414D01*
X0054425Y0121592D01*
X0054346Y0121768D01*
X0054261Y0121942D01*
X0054173Y0122114D01*
X0054081Y0122284D01*
X0053984Y0122451D01*
X0053883Y0122616D01*
X0053779Y0122779D01*
X0053670Y0122939D01*
X0053558Y0123096D01*
X0053442Y0123251D01*
X0053322Y0123402D01*
X0053198Y0123551D01*
X0053071Y0123697D01*
X0052941Y0123839D01*
X0052807Y0123979D01*
X0052669Y0124115D01*
X0052529Y0124247D01*
X0052385Y0124377D01*
X0052238Y0124502D01*
X0052088Y0124624D01*
X0051936Y0124743D01*
X0051780Y0124857D01*
X0051622Y0124968D01*
X0051611Y0124953D01*
X0051769Y0124843D01*
X0051925Y0124728D01*
X0052077Y0124610D01*
X0052227Y0124488D01*
X0052373Y0124363D01*
X0052517Y0124234D01*
X0052657Y0124102D01*
X0052794Y0123966D01*
X0052928Y0123827D01*
X0053058Y0123685D01*
X0053185Y0123539D01*
X0053308Y0123391D01*
X0053428Y0123240D01*
X0053543Y0123086D01*
X0053655Y0122929D01*
X0053764Y0122769D01*
X0053868Y0122607D01*
X0053968Y0122442D01*
X0054065Y0122275D01*
X0054157Y0122106D01*
X0054245Y0121934D01*
X0054329Y0121761D01*
X0054409Y0121585D01*
X0054484Y0121408D01*
X0054555Y0121228D01*
X0054622Y0121047D01*
X0054684Y0120865D01*
X0054742Y0120681D01*
X0054796Y0120495D01*
X0054845Y0120309D01*
X0054889Y0120121D01*
X0054929Y0119933D01*
X0054964Y0119743D01*
X0054994Y0119552D01*
X0055020Y0119361D01*
X0055042Y0119170D01*
X0055058Y0118978D01*
X0055070Y0118785D01*
X0055077Y0118592D01*
X0055080Y0118399D01*
X0055062Y0118399D01*
X0055059Y0118592D01*
X0055052Y0118784D01*
X0055040Y0118976D01*
X0055024Y0119168D01*
X0055002Y0119359D01*
X0054977Y0119550D01*
X0054946Y0119740D01*
X0054911Y0119929D01*
X0054871Y0120117D01*
X0054827Y0120305D01*
X0054778Y0120491D01*
X0054725Y0120676D01*
X0054667Y0120859D01*
X0054605Y0121041D01*
X0054539Y0121222D01*
X0054468Y0121401D01*
X0054392Y0121578D01*
X0054313Y0121753D01*
X0054229Y0121926D01*
X0054141Y0122097D01*
X0054049Y0122266D01*
X0053953Y0122433D01*
X0053853Y0122597D01*
X0053749Y0122759D01*
X0053641Y0122918D01*
X0053529Y0123075D01*
X0053413Y0123229D01*
X0053294Y0123380D01*
X0053171Y0123528D01*
X0053045Y0123673D01*
X0052915Y0123815D01*
X0052781Y0123953D01*
X0052644Y0124089D01*
X0052505Y0124221D01*
X0052361Y0124349D01*
X0052215Y0124475D01*
X0052066Y0124596D01*
X0051914Y0124714D01*
X0051759Y0124828D01*
X0051601Y0124938D01*
X0042576Y0125073D02*
X0042677Y0124924D01*
X0042676Y0124924D02*
X0042519Y0124814D01*
X0042365Y0124700D01*
X0042213Y0124583D01*
X0042064Y0124461D01*
X0041918Y0124337D01*
X0041775Y0124208D01*
X0041636Y0124077D01*
X0041499Y0123941D01*
X0041366Y0123803D01*
X0041237Y0123661D01*
X0041110Y0123517D01*
X0040988Y0123369D01*
X0040869Y0123218D01*
X0040753Y0123065D01*
X0040642Y0122909D01*
X0040534Y0122750D01*
X0040430Y0122588D01*
X0040330Y0122424D01*
X0040234Y0122258D01*
X0040142Y0122089D01*
X0040055Y0121919D01*
X0039971Y0121746D01*
X0039892Y0121571D01*
X0039817Y0121394D01*
X0039746Y0121216D01*
X0039680Y0121036D01*
X0039618Y0120854D01*
X0039560Y0120671D01*
X0039507Y0120486D01*
X0039458Y0120301D01*
X0039414Y0120114D01*
X0039375Y0119926D01*
X0039340Y0119737D01*
X0039309Y0119548D01*
X0039283Y0119357D01*
X0039262Y0119167D01*
X0039246Y0118975D01*
X0039234Y0118784D01*
X0039227Y0118592D01*
X0039224Y0118400D01*
X0039045Y0118399D01*
X0039044Y0118400D01*
X0039047Y0118596D01*
X0039054Y0118792D01*
X0039066Y0118988D01*
X0039083Y0119184D01*
X0039105Y0119379D01*
X0039131Y0119574D01*
X0039162Y0119768D01*
X0039198Y0119961D01*
X0039238Y0120153D01*
X0039284Y0120344D01*
X0039333Y0120534D01*
X0039388Y0120723D01*
X0039447Y0120910D01*
X0039510Y0121096D01*
X0039578Y0121280D01*
X0039650Y0121463D01*
X0039727Y0121643D01*
X0039808Y0121822D01*
X0039894Y0121999D01*
X0039983Y0122174D01*
X0040077Y0122346D01*
X0040175Y0122516D01*
X0040278Y0122684D01*
X0040384Y0122849D01*
X0040494Y0123012D01*
X0040608Y0123171D01*
X0040726Y0123328D01*
X0040848Y0123482D01*
X0040973Y0123633D01*
X0041102Y0123781D01*
X0041235Y0123926D01*
X0041371Y0124068D01*
X0041511Y0124206D01*
X0041653Y0124341D01*
X0041800Y0124472D01*
X0041949Y0124600D01*
X0042101Y0124724D01*
X0042256Y0124844D01*
X0042414Y0124961D01*
X0042575Y0125073D01*
X0042585Y0125058D01*
X0042425Y0124946D01*
X0042267Y0124830D01*
X0042112Y0124710D01*
X0041960Y0124586D01*
X0041811Y0124459D01*
X0041666Y0124328D01*
X0041523Y0124193D01*
X0041384Y0124055D01*
X0041248Y0123914D01*
X0041116Y0123769D01*
X0040987Y0123622D01*
X0040862Y0123471D01*
X0040740Y0123317D01*
X0040623Y0123161D01*
X0040509Y0123001D01*
X0040399Y0122839D01*
X0040293Y0122674D01*
X0040191Y0122507D01*
X0040093Y0122337D01*
X0039999Y0122165D01*
X0039910Y0121991D01*
X0039824Y0121815D01*
X0039743Y0121636D01*
X0039667Y0121456D01*
X0039595Y0121274D01*
X0039527Y0121090D01*
X0039464Y0120904D01*
X0039405Y0120718D01*
X0039351Y0120529D01*
X0039301Y0120340D01*
X0039256Y0120149D01*
X0039216Y0119957D01*
X0039180Y0119765D01*
X0039149Y0119571D01*
X0039123Y0119377D01*
X0039101Y0119182D01*
X0039084Y0118987D01*
X0039072Y0118792D01*
X0039065Y0118596D01*
X0039062Y0118400D01*
X0039080Y0118400D01*
X0039083Y0118595D01*
X0039090Y0118791D01*
X0039102Y0118986D01*
X0039119Y0119181D01*
X0039140Y0119375D01*
X0039167Y0119569D01*
X0039198Y0119762D01*
X0039233Y0119954D01*
X0039274Y0120145D01*
X0039318Y0120335D01*
X0039368Y0120524D01*
X0039422Y0120712D01*
X0039481Y0120899D01*
X0039544Y0121084D01*
X0039611Y0121267D01*
X0039684Y0121449D01*
X0039760Y0121629D01*
X0039841Y0121807D01*
X0039926Y0121983D01*
X0040015Y0122157D01*
X0040109Y0122329D01*
X0040206Y0122498D01*
X0040308Y0122665D01*
X0040414Y0122829D01*
X0040524Y0122991D01*
X0040637Y0123150D01*
X0040755Y0123306D01*
X0040876Y0123460D01*
X0041001Y0123610D01*
X0041129Y0123757D01*
X0041261Y0123902D01*
X0041397Y0124043D01*
X0041536Y0124180D01*
X0041678Y0124314D01*
X0041823Y0124445D01*
X0041972Y0124572D01*
X0042123Y0124696D01*
X0042278Y0124815D01*
X0042435Y0124931D01*
X0042595Y0125043D01*
X0042605Y0125029D01*
X0042446Y0124917D01*
X0042289Y0124801D01*
X0042135Y0124681D01*
X0041983Y0124558D01*
X0041835Y0124431D01*
X0041690Y0124301D01*
X0041548Y0124167D01*
X0041410Y0124030D01*
X0041274Y0123889D01*
X0041143Y0123745D01*
X0041014Y0123598D01*
X0040890Y0123448D01*
X0040769Y0123295D01*
X0040652Y0123139D01*
X0040538Y0122981D01*
X0040429Y0122819D01*
X0040323Y0122655D01*
X0040222Y0122489D01*
X0040124Y0122320D01*
X0040031Y0122148D01*
X0039942Y0121975D01*
X0039857Y0121799D01*
X0039776Y0121622D01*
X0039700Y0121442D01*
X0039628Y0121261D01*
X0039561Y0121078D01*
X0039498Y0120893D01*
X0039439Y0120707D01*
X0039385Y0120520D01*
X0039336Y0120331D01*
X0039291Y0120141D01*
X0039251Y0119950D01*
X0039215Y0119759D01*
X0039185Y0119566D01*
X0039158Y0119373D01*
X0039137Y0119179D01*
X0039120Y0118984D01*
X0039108Y0118790D01*
X0039101Y0118595D01*
X0039098Y0118400D01*
X0039116Y0118400D01*
X0039119Y0118594D01*
X0039126Y0118789D01*
X0039138Y0118983D01*
X0039155Y0119177D01*
X0039176Y0119370D01*
X0039202Y0119563D01*
X0039233Y0119755D01*
X0039269Y0119947D01*
X0039309Y0120137D01*
X0039353Y0120327D01*
X0039403Y0120515D01*
X0039457Y0120702D01*
X0039515Y0120888D01*
X0039578Y0121072D01*
X0039645Y0121254D01*
X0039717Y0121435D01*
X0039793Y0121614D01*
X0039873Y0121792D01*
X0039958Y0121967D01*
X0040047Y0122140D01*
X0040140Y0122311D01*
X0040237Y0122479D01*
X0040339Y0122646D01*
X0040444Y0122809D01*
X0040553Y0122970D01*
X0040666Y0123129D01*
X0040783Y0123284D01*
X0040904Y0123437D01*
X0041028Y0123587D01*
X0041156Y0123733D01*
X0041288Y0123877D01*
X0041422Y0124017D01*
X0041561Y0124154D01*
X0041702Y0124288D01*
X0041847Y0124418D01*
X0041995Y0124544D01*
X0042146Y0124667D01*
X0042300Y0124787D01*
X0042456Y0124902D01*
X0042616Y0125014D01*
X0042626Y0124999D01*
X0042467Y0124887D01*
X0042310Y0124772D01*
X0042157Y0124653D01*
X0042006Y0124531D01*
X0041859Y0124404D01*
X0041714Y0124275D01*
X0041573Y0124141D01*
X0041435Y0124005D01*
X0041301Y0123865D01*
X0041169Y0123721D01*
X0041042Y0123575D01*
X0040918Y0123426D01*
X0040797Y0123273D01*
X0040681Y0123118D01*
X0040568Y0122960D01*
X0040459Y0122799D01*
X0040354Y0122636D01*
X0040253Y0122470D01*
X0040156Y0122302D01*
X0040063Y0122132D01*
X0039974Y0121959D01*
X0039890Y0121784D01*
X0039809Y0121607D01*
X0039733Y0121428D01*
X0039662Y0121248D01*
X0039595Y0121066D01*
X0039532Y0120882D01*
X0039474Y0120697D01*
X0039420Y0120510D01*
X0039371Y0120322D01*
X0039326Y0120133D01*
X0039286Y0119943D01*
X0039251Y0119752D01*
X0039220Y0119561D01*
X0039194Y0119368D01*
X0039173Y0119175D01*
X0039156Y0118982D01*
X0039144Y0118788D01*
X0039137Y0118594D01*
X0039134Y0118400D01*
X0039152Y0118400D01*
X0039155Y0118594D01*
X0039162Y0118787D01*
X0039174Y0118981D01*
X0039191Y0119174D01*
X0039212Y0119366D01*
X0039238Y0119558D01*
X0039269Y0119749D01*
X0039304Y0119940D01*
X0039344Y0120129D01*
X0039388Y0120318D01*
X0039437Y0120505D01*
X0039491Y0120692D01*
X0039549Y0120876D01*
X0039612Y0121060D01*
X0039679Y0121242D01*
X0039750Y0121422D01*
X0039826Y0121600D01*
X0039906Y0121776D01*
X0039990Y0121951D01*
X0040079Y0122123D01*
X0040171Y0122293D01*
X0040268Y0122461D01*
X0040369Y0122627D01*
X0040474Y0122789D01*
X0040583Y0122950D01*
X0040695Y0123107D01*
X0040812Y0123262D01*
X0040932Y0123414D01*
X0041056Y0123563D01*
X0041183Y0123709D01*
X0041314Y0123852D01*
X0041448Y0123992D01*
X0041586Y0124128D01*
X0041727Y0124261D01*
X0041871Y0124391D01*
X0042018Y0124517D01*
X0042168Y0124639D01*
X0042321Y0124758D01*
X0042477Y0124873D01*
X0042636Y0124984D01*
X0042646Y0124969D01*
X0042488Y0124858D01*
X0042332Y0124743D01*
X0042179Y0124625D01*
X0042029Y0124503D01*
X0041883Y0124377D01*
X0041739Y0124248D01*
X0041598Y0124115D01*
X0041461Y0123979D01*
X0041327Y0123840D01*
X0041196Y0123697D01*
X0041069Y0123552D01*
X0040946Y0123403D01*
X0040826Y0123251D01*
X0040710Y0123097D01*
X0040597Y0122940D01*
X0040489Y0122780D01*
X0040384Y0122617D01*
X0040284Y0122452D01*
X0040187Y0122284D01*
X0040095Y0122115D01*
X0040006Y0121943D01*
X0039922Y0121769D01*
X0039842Y0121593D01*
X0039767Y0121415D01*
X0039696Y0121235D01*
X0039629Y0121054D01*
X0039566Y0120871D01*
X0039508Y0120686D01*
X0039455Y0120501D01*
X0039406Y0120314D01*
X0039361Y0120126D01*
X0039322Y0119936D01*
X0039286Y0119746D01*
X0039256Y0119555D01*
X0039230Y0119364D01*
X0039208Y0119172D01*
X0039192Y0118979D01*
X0039180Y0118786D01*
X0039173Y0118593D01*
X0039170Y0118400D01*
X0039188Y0118400D01*
X0039191Y0118593D01*
X0039198Y0118785D01*
X0039210Y0118978D01*
X0039226Y0119170D01*
X0039248Y0119362D01*
X0039274Y0119553D01*
X0039304Y0119743D01*
X0039339Y0119933D01*
X0039379Y0120122D01*
X0039423Y0120309D01*
X0039472Y0120496D01*
X0039526Y0120681D01*
X0039583Y0120865D01*
X0039646Y0121048D01*
X0039712Y0121229D01*
X0039783Y0121408D01*
X0039859Y0121585D01*
X0039939Y0121761D01*
X0040022Y0121935D01*
X0040111Y0122106D01*
X0040203Y0122276D01*
X0040299Y0122443D01*
X0040400Y0122607D01*
X0040504Y0122770D01*
X0040612Y0122929D01*
X0040724Y0123086D01*
X0040840Y0123240D01*
X0040960Y0123392D01*
X0041083Y0123540D01*
X0041210Y0123685D01*
X0041340Y0123828D01*
X0041474Y0123967D01*
X0041611Y0124102D01*
X0041751Y0124235D01*
X0041894Y0124364D01*
X0042041Y0124489D01*
X0042190Y0124611D01*
X0042343Y0124729D01*
X0042498Y0124843D01*
X0042656Y0124954D01*
X0042666Y0124939D01*
X0042509Y0124829D01*
X0042354Y0124715D01*
X0042202Y0124597D01*
X0042052Y0124475D01*
X0041906Y0124350D01*
X0041763Y0124222D01*
X0041623Y0124089D01*
X0041486Y0123954D01*
X0041353Y0123815D01*
X0041223Y0123673D01*
X0041097Y0123528D01*
X0040974Y0123380D01*
X0040854Y0123229D01*
X0040739Y0123076D01*
X0040627Y0122919D01*
X0040519Y0122760D01*
X0040415Y0122598D01*
X0040315Y0122434D01*
X0040219Y0122267D01*
X0040127Y0122098D01*
X0040039Y0121927D01*
X0039955Y0121753D01*
X0039875Y0121578D01*
X0039800Y0121401D01*
X0039729Y0121222D01*
X0039663Y0121042D01*
X0039600Y0120860D01*
X0039543Y0120676D01*
X0039489Y0120491D01*
X0039441Y0120305D01*
X0039397Y0120118D01*
X0039357Y0119929D01*
X0039322Y0119740D01*
X0039291Y0119550D01*
X0039266Y0119360D01*
X0039244Y0119168D01*
X0039228Y0118977D01*
X0039216Y0118785D01*
X0039209Y0118592D01*
X0039206Y0118400D01*
X0042549Y0120599D02*
X0042711Y0120521D01*
X0042653Y0120397D01*
X0042599Y0120271D01*
X0042548Y0120143D01*
X0042501Y0120015D01*
X0042457Y0119885D01*
X0042417Y0119753D01*
X0042381Y0119621D01*
X0042348Y0119488D01*
X0042320Y0119354D01*
X0042294Y0119219D01*
X0042273Y0119083D01*
X0042256Y0118947D01*
X0042242Y0118811D01*
X0042232Y0118674D01*
X0042226Y0118537D01*
X0042224Y0118400D01*
X0042045Y0118399D01*
X0042044Y0118400D01*
X0042046Y0118534D01*
X0042052Y0118668D01*
X0042061Y0118801D01*
X0042073Y0118934D01*
X0042089Y0119067D01*
X0042109Y0119200D01*
X0042132Y0119332D01*
X0042158Y0119463D01*
X0042188Y0119593D01*
X0042222Y0119723D01*
X0042258Y0119852D01*
X0042298Y0119979D01*
X0042342Y0120106D01*
X0042389Y0120231D01*
X0042439Y0120356D01*
X0042492Y0120478D01*
X0042549Y0120600D01*
X0042565Y0120592D01*
X0042505Y0120463D01*
X0042449Y0120333D01*
X0042397Y0120202D01*
X0042348Y0120068D01*
X0042303Y0119934D01*
X0042261Y0119798D01*
X0042224Y0119662D01*
X0042190Y0119524D01*
X0042161Y0119386D01*
X0042135Y0119246D01*
X0042113Y0119106D01*
X0042095Y0118966D01*
X0042081Y0118825D01*
X0042070Y0118683D01*
X0042064Y0118542D01*
X0042062Y0118400D01*
X0042080Y0118400D01*
X0042082Y0118541D01*
X0042088Y0118682D01*
X0042099Y0118823D01*
X0042113Y0118964D01*
X0042131Y0119104D01*
X0042153Y0119243D01*
X0042178Y0119382D01*
X0042208Y0119520D01*
X0042241Y0119657D01*
X0042279Y0119793D01*
X0042320Y0119929D01*
X0042365Y0120062D01*
X0042413Y0120195D01*
X0042466Y0120326D01*
X0042522Y0120456D01*
X0042581Y0120584D01*
X0042597Y0120576D01*
X0042538Y0120449D01*
X0042482Y0120319D01*
X0042430Y0120189D01*
X0042382Y0120056D01*
X0042337Y0119923D01*
X0042296Y0119788D01*
X0042259Y0119653D01*
X0042226Y0119516D01*
X0042196Y0119378D01*
X0042170Y0119240D01*
X0042148Y0119101D01*
X0042131Y0118962D01*
X0042117Y0118822D01*
X0042106Y0118681D01*
X0042100Y0118541D01*
X0042098Y0118400D01*
X0042116Y0118400D01*
X0042118Y0118540D01*
X0042124Y0118680D01*
X0042134Y0118820D01*
X0042148Y0118960D01*
X0042166Y0119099D01*
X0042188Y0119237D01*
X0042214Y0119375D01*
X0042243Y0119512D01*
X0042276Y0119648D01*
X0042313Y0119783D01*
X0042354Y0119918D01*
X0042399Y0120051D01*
X0042447Y0120182D01*
X0042499Y0120312D01*
X0042554Y0120441D01*
X0042613Y0120568D01*
X0042630Y0120560D01*
X0042571Y0120434D01*
X0042515Y0120305D01*
X0042464Y0120176D01*
X0042416Y0120045D01*
X0042371Y0119912D01*
X0042331Y0119778D01*
X0042294Y0119644D01*
X0042261Y0119508D01*
X0042231Y0119371D01*
X0042206Y0119234D01*
X0042184Y0119096D01*
X0042166Y0118957D01*
X0042152Y0118818D01*
X0042142Y0118679D01*
X0042136Y0118540D01*
X0042134Y0118400D01*
X0042152Y0118400D01*
X0042154Y0118539D01*
X0042160Y0118678D01*
X0042170Y0118817D01*
X0042184Y0118955D01*
X0042202Y0119094D01*
X0042224Y0119231D01*
X0042249Y0119368D01*
X0042278Y0119504D01*
X0042311Y0119639D01*
X0042348Y0119773D01*
X0042388Y0119907D01*
X0042433Y0120039D01*
X0042481Y0120169D01*
X0042532Y0120299D01*
X0042587Y0120426D01*
X0042646Y0120553D01*
X0042662Y0120545D01*
X0042604Y0120419D01*
X0042549Y0120292D01*
X0042497Y0120163D01*
X0042450Y0120033D01*
X0042406Y0119901D01*
X0042365Y0119768D01*
X0042329Y0119635D01*
X0042296Y0119500D01*
X0042267Y0119364D01*
X0042241Y0119228D01*
X0042220Y0119091D01*
X0042202Y0118953D01*
X0042188Y0118815D01*
X0042178Y0118677D01*
X0042172Y0118539D01*
X0042170Y0118400D01*
X0042188Y0118400D01*
X0042190Y0118538D01*
X0042196Y0118676D01*
X0042206Y0118814D01*
X0042220Y0118951D01*
X0042238Y0119088D01*
X0042259Y0119225D01*
X0042284Y0119361D01*
X0042313Y0119496D01*
X0042346Y0119630D01*
X0042383Y0119763D01*
X0042423Y0119896D01*
X0042467Y0120027D01*
X0042514Y0120156D01*
X0042565Y0120285D01*
X0042620Y0120412D01*
X0042678Y0120537D01*
X0042694Y0120529D01*
X0042636Y0120404D01*
X0042582Y0120278D01*
X0042531Y0120150D01*
X0042484Y0120021D01*
X0042440Y0119890D01*
X0042400Y0119758D01*
X0042363Y0119626D01*
X0042331Y0119492D01*
X0042302Y0119357D01*
X0042277Y0119222D01*
X0042255Y0119086D01*
X0042238Y0118949D01*
X0042224Y0118812D01*
X0042214Y0118675D01*
X0042208Y0118538D01*
X0042206Y0118400D01*
X0052223Y0118399D02*
X0052043Y0118399D01*
X0052044Y0118400D02*
X0052042Y0118537D01*
X0052036Y0118674D01*
X0052026Y0118811D01*
X0052012Y0118947D01*
X0051995Y0119083D01*
X0051974Y0119219D01*
X0051948Y0119354D01*
X0051920Y0119488D01*
X0051887Y0119621D01*
X0051851Y0119753D01*
X0051811Y0119885D01*
X0051767Y0120015D01*
X0051720Y0120143D01*
X0051669Y0120271D01*
X0051615Y0120397D01*
X0051557Y0120521D01*
X0051719Y0120599D01*
X0051719Y0120600D01*
X0051776Y0120478D01*
X0051829Y0120356D01*
X0051879Y0120231D01*
X0051926Y0120106D01*
X0051970Y0119979D01*
X0052010Y0119852D01*
X0052046Y0119723D01*
X0052080Y0119593D01*
X0052110Y0119463D01*
X0052136Y0119332D01*
X0052159Y0119200D01*
X0052179Y0119067D01*
X0052195Y0118934D01*
X0052207Y0118801D01*
X0052216Y0118668D01*
X0052222Y0118534D01*
X0052224Y0118400D01*
X0052206Y0118400D01*
X0052204Y0118542D01*
X0052198Y0118683D01*
X0052187Y0118825D01*
X0052173Y0118966D01*
X0052155Y0119106D01*
X0052133Y0119246D01*
X0052107Y0119386D01*
X0052078Y0119524D01*
X0052044Y0119662D01*
X0052007Y0119798D01*
X0051965Y0119934D01*
X0051920Y0120068D01*
X0051871Y0120202D01*
X0051819Y0120333D01*
X0051763Y0120463D01*
X0051703Y0120592D01*
X0051687Y0120584D01*
X0051746Y0120456D01*
X0051802Y0120326D01*
X0051855Y0120195D01*
X0051903Y0120062D01*
X0051948Y0119929D01*
X0051989Y0119793D01*
X0052027Y0119657D01*
X0052060Y0119520D01*
X0052090Y0119382D01*
X0052115Y0119243D01*
X0052137Y0119104D01*
X0052155Y0118964D01*
X0052169Y0118823D01*
X0052180Y0118682D01*
X0052186Y0118541D01*
X0052188Y0118400D01*
X0052170Y0118400D01*
X0052168Y0118541D01*
X0052162Y0118681D01*
X0052151Y0118822D01*
X0052137Y0118962D01*
X0052120Y0119101D01*
X0052098Y0119240D01*
X0052072Y0119378D01*
X0052042Y0119516D01*
X0052009Y0119653D01*
X0051972Y0119788D01*
X0051931Y0119923D01*
X0051886Y0120056D01*
X0051838Y0120189D01*
X0051786Y0120319D01*
X0051730Y0120449D01*
X0051671Y0120576D01*
X0051655Y0120568D01*
X0051714Y0120441D01*
X0051769Y0120312D01*
X0051821Y0120182D01*
X0051869Y0120051D01*
X0051914Y0119918D01*
X0051955Y0119783D01*
X0051992Y0119648D01*
X0052025Y0119512D01*
X0052054Y0119375D01*
X0052080Y0119237D01*
X0052102Y0119099D01*
X0052120Y0118960D01*
X0052134Y0118820D01*
X0052144Y0118680D01*
X0052150Y0118540D01*
X0052152Y0118400D01*
X0052134Y0118400D01*
X0052132Y0118540D01*
X0052126Y0118679D01*
X0052116Y0118818D01*
X0052102Y0118957D01*
X0052084Y0119096D01*
X0052062Y0119234D01*
X0052037Y0119371D01*
X0052007Y0119508D01*
X0051974Y0119644D01*
X0051937Y0119778D01*
X0051897Y0119912D01*
X0051852Y0120045D01*
X0051804Y0120176D01*
X0051753Y0120305D01*
X0051697Y0120434D01*
X0051638Y0120560D01*
X0051622Y0120553D01*
X0051681Y0120426D01*
X0051736Y0120299D01*
X0051787Y0120169D01*
X0051835Y0120039D01*
X0051880Y0119907D01*
X0051920Y0119773D01*
X0051957Y0119639D01*
X0051990Y0119504D01*
X0052019Y0119368D01*
X0052044Y0119231D01*
X0052066Y0119094D01*
X0052084Y0118955D01*
X0052098Y0118817D01*
X0052108Y0118678D01*
X0052114Y0118539D01*
X0052116Y0118400D01*
X0052098Y0118400D01*
X0052096Y0118539D01*
X0052090Y0118677D01*
X0052080Y0118815D01*
X0052066Y0118953D01*
X0052048Y0119091D01*
X0052027Y0119228D01*
X0052001Y0119364D01*
X0051972Y0119500D01*
X0051939Y0119635D01*
X0051903Y0119768D01*
X0051862Y0119901D01*
X0051818Y0120033D01*
X0051771Y0120163D01*
X0051719Y0120292D01*
X0051664Y0120419D01*
X0051606Y0120545D01*
X0051590Y0120537D01*
X0051648Y0120412D01*
X0051703Y0120285D01*
X0051754Y0120156D01*
X0051801Y0120027D01*
X0051845Y0119896D01*
X0051885Y0119763D01*
X0051922Y0119630D01*
X0051955Y0119496D01*
X0051984Y0119361D01*
X0052009Y0119225D01*
X0052030Y0119088D01*
X0052048Y0118951D01*
X0052062Y0118814D01*
X0052072Y0118676D01*
X0052078Y0118538D01*
X0052080Y0118400D01*
X0052062Y0118400D01*
X0052060Y0118538D01*
X0052054Y0118675D01*
X0052044Y0118812D01*
X0052030Y0118949D01*
X0052013Y0119086D01*
X0051991Y0119222D01*
X0051966Y0119357D01*
X0051937Y0119492D01*
X0051905Y0119626D01*
X0051868Y0119758D01*
X0051828Y0119890D01*
X0051784Y0120021D01*
X0051737Y0120150D01*
X0051686Y0120278D01*
X0051632Y0120404D01*
X0051574Y0120529D01*
D17*
X0052134Y0118390D02*
X0052134Y0091390D01*
X0055134Y0091390D02*
X0055134Y0118390D01*
X0042134Y0118390D02*
X0042134Y0091390D01*
X0039134Y0091390D02*
X0039134Y0118390D01*
X0047134Y0108890D02*
X0047134Y0107390D01*
X0047134Y0102390D02*
X0047134Y0100890D01*
D18*
X0069687Y0102442D03*
X0069687Y0108242D03*
X0203270Y0122127D03*
X0203270Y0127927D03*
X0217640Y0127927D03*
X0217640Y0122127D03*
X0232010Y0122127D03*
X0232010Y0127927D03*
X0246774Y0127927D03*
X0246774Y0122127D03*
X0276419Y0122127D03*
X0276419Y0127927D03*
D19*
X0269290Y0189263D02*
X0269290Y0190314D01*
X0273494Y0194518D01*
X0273494Y0195569D01*
X0269290Y0195569D01*
X0267048Y0194518D02*
X0267048Y0193467D01*
X0265998Y0192416D01*
X0262845Y0192416D01*
X0265998Y0192416D02*
X0267048Y0191365D01*
X0267048Y0190314D01*
X0265998Y0189263D01*
X0262845Y0189263D01*
X0262845Y0195569D01*
X0265998Y0195569D01*
X0267048Y0194518D01*
X0233927Y0195569D02*
X0231825Y0194518D01*
X0229723Y0192416D01*
X0232876Y0192416D01*
X0233927Y0191365D01*
X0233927Y0190314D01*
X0232876Y0189263D01*
X0230774Y0189263D01*
X0229723Y0190314D01*
X0229723Y0192416D01*
X0227481Y0191365D02*
X0227481Y0190314D01*
X0226431Y0189263D01*
X0223278Y0189263D01*
X0223278Y0195569D01*
X0226431Y0195569D01*
X0227481Y0194518D01*
X0227481Y0193467D01*
X0226431Y0192416D01*
X0223278Y0192416D01*
X0226431Y0192416D02*
X0227481Y0191365D01*
X0194754Y0190314D02*
X0193703Y0189263D01*
X0191601Y0189263D01*
X0190550Y0190314D01*
X0190550Y0192416D02*
X0192652Y0193467D01*
X0193703Y0193467D01*
X0194754Y0192416D01*
X0194754Y0190314D01*
X0190550Y0192416D02*
X0190550Y0195569D01*
X0194754Y0195569D01*
X0188308Y0194518D02*
X0188308Y0193467D01*
X0187257Y0192416D01*
X0184105Y0192416D01*
X0187257Y0192416D02*
X0188308Y0191365D01*
X0188308Y0190314D01*
X0187257Y0189263D01*
X0184105Y0189263D01*
X0184105Y0195569D01*
X0187257Y0195569D01*
X0188308Y0194518D01*
X0155187Y0192416D02*
X0150983Y0192416D01*
X0154136Y0195569D01*
X0154136Y0189263D01*
X0148741Y0190314D02*
X0147690Y0189263D01*
X0144538Y0189263D01*
X0144538Y0195569D01*
X0147690Y0195569D01*
X0148741Y0194518D01*
X0148741Y0193467D01*
X0147690Y0192416D01*
X0144538Y0192416D01*
X0147690Y0192416D02*
X0148741Y0191365D01*
X0148741Y0190314D01*
X0116132Y0190314D02*
X0115081Y0189263D01*
X0112979Y0189263D01*
X0111928Y0190314D01*
X0109686Y0190314D02*
X0108635Y0189263D01*
X0105483Y0189263D01*
X0105483Y0195569D01*
X0108635Y0195569D01*
X0109686Y0194518D01*
X0109686Y0193467D01*
X0108635Y0192416D01*
X0105483Y0192416D01*
X0108635Y0192416D02*
X0109686Y0191365D01*
X0109686Y0190314D01*
X0114030Y0192416D02*
X0115081Y0192416D01*
X0116132Y0191365D01*
X0116132Y0190314D01*
X0115081Y0192416D02*
X0116132Y0193467D01*
X0116132Y0194518D01*
X0115081Y0195569D01*
X0112979Y0195569D01*
X0111928Y0194518D01*
X0076092Y0194518D02*
X0076092Y0193467D01*
X0071889Y0189263D01*
X0076092Y0189263D01*
X0069647Y0190314D02*
X0068596Y0189263D01*
X0065443Y0189263D01*
X0065443Y0195569D01*
X0068596Y0195569D01*
X0069647Y0194518D01*
X0069647Y0193467D01*
X0068596Y0192416D01*
X0065443Y0192416D01*
X0068596Y0192416D02*
X0069647Y0191365D01*
X0069647Y0190314D01*
X0071889Y0194518D02*
X0072940Y0195569D01*
X0075041Y0195569D01*
X0076092Y0194518D01*
X0037431Y0189263D02*
X0033227Y0189263D01*
X0035329Y0189263D02*
X0035329Y0195569D01*
X0033227Y0193467D01*
X0030985Y0193467D02*
X0030985Y0194518D01*
X0029935Y0195569D01*
X0026782Y0195569D01*
X0026782Y0189263D01*
X0029935Y0189263D01*
X0030985Y0190314D01*
X0030985Y0191365D01*
X0029935Y0192416D01*
X0026782Y0192416D01*
X0029935Y0192416D02*
X0030985Y0193467D01*
X0301624Y0192416D02*
X0304777Y0192416D01*
X0305828Y0191365D01*
X0305828Y0190314D01*
X0304777Y0189263D01*
X0301624Y0189263D01*
X0301624Y0195569D01*
X0304777Y0195569D01*
X0305828Y0194518D01*
X0305828Y0193467D01*
X0304777Y0192416D01*
X0308070Y0191365D02*
X0309121Y0192416D01*
X0311223Y0192416D01*
X0312273Y0191365D01*
X0312273Y0190314D01*
X0311223Y0189263D01*
X0309121Y0189263D01*
X0308070Y0190314D01*
X0308070Y0191365D01*
X0309121Y0192416D02*
X0308070Y0193467D01*
X0308070Y0194518D01*
X0309121Y0195569D01*
X0311223Y0195569D01*
X0312273Y0194518D01*
X0312273Y0193467D01*
X0311223Y0192416D01*
D20*
X0184120Y0107723D02*
X0184406Y0107062D01*
X0184405Y0107063D02*
X0184203Y0106971D01*
X0184004Y0106875D01*
X0183807Y0106775D01*
X0183612Y0106669D01*
X0183420Y0106559D01*
X0183231Y0106444D01*
X0183045Y0106324D01*
X0182862Y0106200D01*
X0182681Y0106072D01*
X0182504Y0105939D01*
X0182331Y0105802D01*
X0182160Y0105660D01*
X0181993Y0105515D01*
X0181830Y0105365D01*
X0181671Y0105212D01*
X0181515Y0105055D01*
X0181363Y0104894D01*
X0181215Y0104729D01*
X0181071Y0104561D01*
X0180931Y0104389D01*
X0180796Y0104214D01*
X0180665Y0104036D01*
X0180538Y0103854D01*
X0180416Y0103670D01*
X0180298Y0103482D01*
X0180185Y0103292D01*
X0180076Y0103099D01*
X0179972Y0102904D01*
X0179874Y0102706D01*
X0179779Y0102505D01*
X0179690Y0102303D01*
X0179606Y0102098D01*
X0179527Y0101891D01*
X0179453Y0101683D01*
X0179384Y0101472D01*
X0179320Y0101260D01*
X0179261Y0101047D01*
X0179208Y0100832D01*
X0179159Y0100616D01*
X0179116Y0100399D01*
X0179079Y0100181D01*
X0179047Y0099962D01*
X0179020Y0099742D01*
X0178998Y0099522D01*
X0178982Y0099301D01*
X0178971Y0099080D01*
X0178966Y0098859D01*
X0178966Y0098637D01*
X0178971Y0098416D01*
X0178982Y0098195D01*
X0178998Y0097974D01*
X0179020Y0097754D01*
X0179047Y0097534D01*
X0179079Y0097315D01*
X0179116Y0097097D01*
X0179159Y0096880D01*
X0179208Y0096664D01*
X0179261Y0096449D01*
X0179320Y0096236D01*
X0179384Y0096024D01*
X0179453Y0095813D01*
X0179527Y0095605D01*
X0179606Y0095398D01*
X0179690Y0095193D01*
X0179779Y0094991D01*
X0179874Y0094790D01*
X0179972Y0094592D01*
X0180076Y0094397D01*
X0180185Y0094204D01*
X0180298Y0094014D01*
X0180416Y0093826D01*
X0180538Y0093642D01*
X0180665Y0093460D01*
X0180796Y0093282D01*
X0180931Y0093107D01*
X0181071Y0092935D01*
X0181215Y0092767D01*
X0181363Y0092602D01*
X0181515Y0092441D01*
X0181671Y0092284D01*
X0181830Y0092131D01*
X0181993Y0091981D01*
X0182160Y0091836D01*
X0182331Y0091694D01*
X0182504Y0091557D01*
X0182681Y0091424D01*
X0182862Y0091296D01*
X0183045Y0091172D01*
X0183231Y0091052D01*
X0183420Y0090937D01*
X0183612Y0090827D01*
X0183807Y0090721D01*
X0184004Y0090621D01*
X0184203Y0090525D01*
X0184405Y0090433D01*
X0184120Y0089773D01*
X0184120Y0089772D01*
X0183902Y0089871D01*
X0183686Y0089974D01*
X0183474Y0090083D01*
X0183264Y0090197D01*
X0183056Y0090316D01*
X0182852Y0090440D01*
X0182651Y0090569D01*
X0182453Y0090703D01*
X0182258Y0090842D01*
X0182067Y0090985D01*
X0181880Y0091133D01*
X0181696Y0091286D01*
X0181515Y0091443D01*
X0181339Y0091604D01*
X0181167Y0091770D01*
X0180999Y0091940D01*
X0180835Y0092113D01*
X0180675Y0092291D01*
X0180519Y0092473D01*
X0180369Y0092658D01*
X0180222Y0092847D01*
X0180081Y0093039D01*
X0179944Y0093235D01*
X0179812Y0093435D01*
X0179684Y0093637D01*
X0179562Y0093842D01*
X0179445Y0094050D01*
X0179333Y0094262D01*
X0179226Y0094475D01*
X0179125Y0094692D01*
X0179028Y0094910D01*
X0178937Y0095131D01*
X0178852Y0095354D01*
X0178772Y0095580D01*
X0178697Y0095807D01*
X0178628Y0096036D01*
X0178565Y0096266D01*
X0178507Y0096498D01*
X0178455Y0096731D01*
X0178409Y0096966D01*
X0178368Y0097201D01*
X0178333Y0097437D01*
X0178304Y0097675D01*
X0178281Y0097913D01*
X0178263Y0098151D01*
X0178252Y0098390D01*
X0178246Y0098629D01*
X0178246Y0098867D01*
X0178252Y0099106D01*
X0178263Y0099345D01*
X0178281Y0099583D01*
X0178304Y0099821D01*
X0178333Y0100059D01*
X0178368Y0100295D01*
X0178409Y0100530D01*
X0178455Y0100765D01*
X0178507Y0100998D01*
X0178565Y0101230D01*
X0178628Y0101460D01*
X0178697Y0101689D01*
X0178772Y0101916D01*
X0178852Y0102142D01*
X0178937Y0102365D01*
X0179028Y0102586D01*
X0179125Y0102804D01*
X0179226Y0103021D01*
X0179333Y0103234D01*
X0179445Y0103446D01*
X0179562Y0103654D01*
X0179684Y0103859D01*
X0179812Y0104061D01*
X0179944Y0104261D01*
X0180081Y0104457D01*
X0180222Y0104649D01*
X0180369Y0104838D01*
X0180519Y0105023D01*
X0180675Y0105205D01*
X0180835Y0105383D01*
X0180999Y0105556D01*
X0181167Y0105726D01*
X0181339Y0105892D01*
X0181515Y0106053D01*
X0181696Y0106210D01*
X0181880Y0106363D01*
X0182067Y0106511D01*
X0182258Y0106654D01*
X0182453Y0106793D01*
X0182651Y0106927D01*
X0182852Y0107056D01*
X0183056Y0107180D01*
X0183264Y0107299D01*
X0183474Y0107413D01*
X0183686Y0107522D01*
X0183902Y0107625D01*
X0184120Y0107724D01*
X0184149Y0107655D01*
X0183933Y0107557D01*
X0183719Y0107454D01*
X0183508Y0107346D01*
X0183300Y0107233D01*
X0183094Y0107115D01*
X0182892Y0106992D01*
X0182692Y0106864D01*
X0182496Y0106731D01*
X0182302Y0106593D01*
X0182113Y0106451D01*
X0181927Y0106304D01*
X0181744Y0106153D01*
X0181565Y0105997D01*
X0181390Y0105837D01*
X0181219Y0105673D01*
X0181052Y0105504D01*
X0180890Y0105332D01*
X0180731Y0105155D01*
X0180577Y0104975D01*
X0180427Y0104791D01*
X0180282Y0104604D01*
X0180142Y0104413D01*
X0180006Y0104218D01*
X0179875Y0104021D01*
X0179748Y0103820D01*
X0179627Y0103616D01*
X0179511Y0103409D01*
X0179400Y0103200D01*
X0179294Y0102988D01*
X0179193Y0102773D01*
X0179097Y0102556D01*
X0179007Y0102337D01*
X0178922Y0102115D01*
X0178843Y0101892D01*
X0178769Y0101667D01*
X0178700Y0101440D01*
X0178637Y0101211D01*
X0178580Y0100981D01*
X0178528Y0100749D01*
X0178482Y0100517D01*
X0178442Y0100283D01*
X0178407Y0100048D01*
X0178379Y0099813D01*
X0178355Y0099577D01*
X0178338Y0099341D01*
X0178327Y0099104D01*
X0178321Y0098867D01*
X0178321Y0098629D01*
X0178327Y0098392D01*
X0178338Y0098155D01*
X0178355Y0097919D01*
X0178379Y0097683D01*
X0178407Y0097448D01*
X0178442Y0097213D01*
X0178482Y0096979D01*
X0178528Y0096747D01*
X0178580Y0096515D01*
X0178637Y0096285D01*
X0178700Y0096056D01*
X0178769Y0095829D01*
X0178843Y0095604D01*
X0178922Y0095381D01*
X0179007Y0095159D01*
X0179097Y0094940D01*
X0179193Y0094723D01*
X0179294Y0094508D01*
X0179400Y0094296D01*
X0179511Y0094087D01*
X0179627Y0093880D01*
X0179748Y0093676D01*
X0179875Y0093475D01*
X0180006Y0093278D01*
X0180142Y0093083D01*
X0180282Y0092892D01*
X0180427Y0092705D01*
X0180577Y0092521D01*
X0180731Y0092341D01*
X0180890Y0092164D01*
X0181052Y0091992D01*
X0181219Y0091823D01*
X0181390Y0091659D01*
X0181565Y0091499D01*
X0181744Y0091343D01*
X0181927Y0091192D01*
X0182113Y0091045D01*
X0182302Y0090903D01*
X0182496Y0090765D01*
X0182692Y0090632D01*
X0182892Y0090504D01*
X0183094Y0090381D01*
X0183300Y0090263D01*
X0183508Y0090150D01*
X0183719Y0090042D01*
X0183933Y0089939D01*
X0184149Y0089841D01*
X0184179Y0089910D01*
X0183965Y0090007D01*
X0183753Y0090109D01*
X0183543Y0090216D01*
X0183336Y0090328D01*
X0183132Y0090446D01*
X0182931Y0090568D01*
X0182733Y0090695D01*
X0182538Y0090827D01*
X0182347Y0090963D01*
X0182158Y0091104D01*
X0181974Y0091250D01*
X0181792Y0091400D01*
X0181615Y0091555D01*
X0181441Y0091714D01*
X0181272Y0091877D01*
X0181106Y0092044D01*
X0180945Y0092215D01*
X0180787Y0092390D01*
X0180634Y0092569D01*
X0180486Y0092752D01*
X0180342Y0092938D01*
X0180202Y0093127D01*
X0180068Y0093320D01*
X0179937Y0093516D01*
X0179812Y0093715D01*
X0179692Y0093918D01*
X0179577Y0094123D01*
X0179466Y0094331D01*
X0179361Y0094541D01*
X0179261Y0094754D01*
X0179166Y0094969D01*
X0179077Y0095187D01*
X0178992Y0095407D01*
X0178914Y0095628D01*
X0178840Y0095852D01*
X0178772Y0096077D01*
X0178710Y0096304D01*
X0178653Y0096532D01*
X0178602Y0096762D01*
X0178556Y0096993D01*
X0178516Y0097225D01*
X0178482Y0097458D01*
X0178453Y0097691D01*
X0178430Y0097925D01*
X0178413Y0098160D01*
X0178401Y0098395D01*
X0178396Y0098630D01*
X0178396Y0098866D01*
X0178401Y0099101D01*
X0178413Y0099336D01*
X0178430Y0099571D01*
X0178453Y0099805D01*
X0178482Y0100038D01*
X0178516Y0100271D01*
X0178556Y0100503D01*
X0178602Y0100734D01*
X0178653Y0100964D01*
X0178710Y0101192D01*
X0178772Y0101419D01*
X0178840Y0101644D01*
X0178914Y0101868D01*
X0178992Y0102089D01*
X0179077Y0102309D01*
X0179166Y0102527D01*
X0179261Y0102742D01*
X0179361Y0102955D01*
X0179466Y0103165D01*
X0179577Y0103373D01*
X0179692Y0103578D01*
X0179812Y0103781D01*
X0179937Y0103980D01*
X0180068Y0104176D01*
X0180202Y0104369D01*
X0180342Y0104558D01*
X0180486Y0104744D01*
X0180634Y0104927D01*
X0180787Y0105106D01*
X0180945Y0105281D01*
X0181106Y0105452D01*
X0181272Y0105619D01*
X0181441Y0105782D01*
X0181615Y0105941D01*
X0181792Y0106096D01*
X0181974Y0106246D01*
X0182158Y0106392D01*
X0182347Y0106533D01*
X0182538Y0106669D01*
X0182733Y0106801D01*
X0182931Y0106928D01*
X0183132Y0107050D01*
X0183336Y0107168D01*
X0183543Y0107280D01*
X0183753Y0107387D01*
X0183965Y0107489D01*
X0184179Y0107586D01*
X0184209Y0107517D01*
X0183996Y0107421D01*
X0183786Y0107320D01*
X0183578Y0107213D01*
X0183373Y0107102D01*
X0183170Y0106986D01*
X0182971Y0106864D01*
X0182774Y0106738D01*
X0182581Y0106608D01*
X0182391Y0106472D01*
X0182204Y0106332D01*
X0182021Y0106187D01*
X0181841Y0106038D01*
X0181665Y0105885D01*
X0181493Y0105727D01*
X0181324Y0105565D01*
X0181160Y0105400D01*
X0181000Y0105230D01*
X0180844Y0105056D01*
X0180692Y0104879D01*
X0180545Y0104698D01*
X0180402Y0104513D01*
X0180263Y0104325D01*
X0180129Y0104134D01*
X0180000Y0103939D01*
X0179876Y0103741D01*
X0179757Y0103541D01*
X0179642Y0103337D01*
X0179533Y0103131D01*
X0179428Y0102922D01*
X0179329Y0102711D01*
X0179235Y0102497D01*
X0179146Y0102281D01*
X0179063Y0102063D01*
X0178984Y0101843D01*
X0178912Y0101621D01*
X0178844Y0101398D01*
X0178782Y0101173D01*
X0178726Y0100946D01*
X0178675Y0100718D01*
X0178630Y0100489D01*
X0178590Y0100259D01*
X0178556Y0100028D01*
X0178528Y0099797D01*
X0178505Y0099564D01*
X0178488Y0099331D01*
X0178476Y0099098D01*
X0178471Y0098865D01*
X0178471Y0098631D01*
X0178476Y0098398D01*
X0178488Y0098165D01*
X0178505Y0097932D01*
X0178528Y0097699D01*
X0178556Y0097468D01*
X0178590Y0097237D01*
X0178630Y0097007D01*
X0178675Y0096778D01*
X0178726Y0096550D01*
X0178782Y0096323D01*
X0178844Y0096098D01*
X0178912Y0095875D01*
X0178984Y0095653D01*
X0179063Y0095433D01*
X0179146Y0095215D01*
X0179235Y0094999D01*
X0179329Y0094785D01*
X0179428Y0094574D01*
X0179533Y0094365D01*
X0179642Y0094159D01*
X0179757Y0093955D01*
X0179876Y0093755D01*
X0180000Y0093557D01*
X0180129Y0093362D01*
X0180263Y0093171D01*
X0180402Y0092983D01*
X0180545Y0092798D01*
X0180692Y0092617D01*
X0180844Y0092440D01*
X0181000Y0092266D01*
X0181160Y0092096D01*
X0181324Y0091931D01*
X0181493Y0091769D01*
X0181665Y0091611D01*
X0181841Y0091458D01*
X0182021Y0091309D01*
X0182204Y0091164D01*
X0182391Y0091024D01*
X0182581Y0090888D01*
X0182774Y0090758D01*
X0182971Y0090632D01*
X0183170Y0090510D01*
X0183373Y0090394D01*
X0183578Y0090283D01*
X0183786Y0090176D01*
X0183996Y0090075D01*
X0184209Y0089979D01*
X0184239Y0090048D01*
X0184027Y0090143D01*
X0183819Y0090244D01*
X0183612Y0090349D01*
X0183409Y0090460D01*
X0183208Y0090575D01*
X0183010Y0090695D01*
X0182815Y0090820D01*
X0182623Y0090950D01*
X0182435Y0091085D01*
X0182249Y0091224D01*
X0182068Y0091367D01*
X0181889Y0091515D01*
X0181715Y0091667D01*
X0181544Y0091824D01*
X0181377Y0091984D01*
X0181214Y0092149D01*
X0181055Y0092317D01*
X0180900Y0092489D01*
X0180749Y0092665D01*
X0180603Y0092845D01*
X0180461Y0093028D01*
X0180324Y0093215D01*
X0180191Y0093405D01*
X0180063Y0093598D01*
X0179940Y0093794D01*
X0179822Y0093993D01*
X0179708Y0094195D01*
X0179599Y0094399D01*
X0179496Y0094607D01*
X0179397Y0094816D01*
X0179304Y0095028D01*
X0179216Y0095242D01*
X0179133Y0095459D01*
X0179055Y0095677D01*
X0178983Y0095897D01*
X0178916Y0096119D01*
X0178855Y0096342D01*
X0178799Y0096567D01*
X0178748Y0096793D01*
X0178704Y0097020D01*
X0178664Y0097249D01*
X0178630Y0097478D01*
X0178602Y0097708D01*
X0178580Y0097938D01*
X0178563Y0098169D01*
X0178551Y0098401D01*
X0178546Y0098632D01*
X0178546Y0098864D01*
X0178551Y0099095D01*
X0178563Y0099327D01*
X0178580Y0099558D01*
X0178602Y0099788D01*
X0178630Y0100018D01*
X0178664Y0100247D01*
X0178704Y0100476D01*
X0178748Y0100703D01*
X0178799Y0100929D01*
X0178855Y0101154D01*
X0178916Y0101377D01*
X0178983Y0101599D01*
X0179055Y0101819D01*
X0179133Y0102037D01*
X0179216Y0102254D01*
X0179304Y0102468D01*
X0179397Y0102680D01*
X0179496Y0102889D01*
X0179599Y0103097D01*
X0179708Y0103301D01*
X0179822Y0103503D01*
X0179940Y0103702D01*
X0180063Y0103898D01*
X0180191Y0104091D01*
X0180324Y0104281D01*
X0180461Y0104468D01*
X0180603Y0104651D01*
X0180749Y0104831D01*
X0180900Y0105007D01*
X0181055Y0105179D01*
X0181214Y0105347D01*
X0181377Y0105512D01*
X0181544Y0105672D01*
X0181715Y0105829D01*
X0181889Y0105981D01*
X0182068Y0106129D01*
X0182249Y0106272D01*
X0182435Y0106411D01*
X0182623Y0106546D01*
X0182815Y0106676D01*
X0183010Y0106801D01*
X0183208Y0106921D01*
X0183409Y0107036D01*
X0183612Y0107147D01*
X0183819Y0107252D01*
X0184027Y0107353D01*
X0184239Y0107448D01*
X0184268Y0107379D01*
X0184059Y0107285D01*
X0183852Y0107185D01*
X0183647Y0107080D01*
X0183445Y0106971D01*
X0183246Y0106856D01*
X0183050Y0106737D01*
X0182856Y0106613D01*
X0182666Y0106484D01*
X0182479Y0106351D01*
X0182295Y0106213D01*
X0182114Y0106070D01*
X0181938Y0105924D01*
X0181764Y0105773D01*
X0181595Y0105618D01*
X0181429Y0105458D01*
X0181267Y0105295D01*
X0181110Y0105128D01*
X0180956Y0104957D01*
X0180807Y0104782D01*
X0180662Y0104604D01*
X0180521Y0104422D01*
X0180385Y0104237D01*
X0180253Y0104049D01*
X0180126Y0103857D01*
X0180004Y0103663D01*
X0179886Y0103465D01*
X0179774Y0103265D01*
X0179666Y0103062D01*
X0179563Y0102857D01*
X0179466Y0102649D01*
X0179373Y0102438D01*
X0179286Y0102226D01*
X0179203Y0102011D01*
X0179126Y0101795D01*
X0179055Y0101576D01*
X0178988Y0101356D01*
X0178927Y0101135D01*
X0178872Y0100912D01*
X0178822Y0100687D01*
X0178777Y0100462D01*
X0178738Y0100235D01*
X0178705Y0100008D01*
X0178677Y0099780D01*
X0178654Y0099551D01*
X0178638Y0099322D01*
X0178626Y0099093D01*
X0178621Y0098863D01*
X0178621Y0098633D01*
X0178626Y0098403D01*
X0178638Y0098174D01*
X0178654Y0097945D01*
X0178677Y0097716D01*
X0178705Y0097488D01*
X0178738Y0097261D01*
X0178777Y0097034D01*
X0178822Y0096809D01*
X0178872Y0096584D01*
X0178927Y0096361D01*
X0178988Y0096140D01*
X0179055Y0095920D01*
X0179126Y0095701D01*
X0179203Y0095485D01*
X0179286Y0095270D01*
X0179373Y0095058D01*
X0179466Y0094847D01*
X0179563Y0094639D01*
X0179666Y0094434D01*
X0179774Y0094231D01*
X0179886Y0094031D01*
X0180004Y0093833D01*
X0180126Y0093639D01*
X0180253Y0093447D01*
X0180385Y0093259D01*
X0180521Y0093074D01*
X0180662Y0092892D01*
X0180807Y0092714D01*
X0180956Y0092539D01*
X0181110Y0092368D01*
X0181267Y0092201D01*
X0181429Y0092038D01*
X0181595Y0091878D01*
X0181764Y0091723D01*
X0181938Y0091572D01*
X0182114Y0091426D01*
X0182295Y0091283D01*
X0182479Y0091145D01*
X0182666Y0091012D01*
X0182856Y0090883D01*
X0183050Y0090759D01*
X0183246Y0090640D01*
X0183445Y0090525D01*
X0183647Y0090416D01*
X0183852Y0090311D01*
X0184059Y0090211D01*
X0184268Y0090117D01*
X0184298Y0090186D01*
X0184090Y0090279D01*
X0183885Y0090378D01*
X0183682Y0090482D01*
X0183482Y0090591D01*
X0183284Y0090704D01*
X0183089Y0090823D01*
X0182897Y0090946D01*
X0182708Y0091074D01*
X0182523Y0091206D01*
X0182340Y0091343D01*
X0182161Y0091484D01*
X0181986Y0091630D01*
X0181814Y0091779D01*
X0181646Y0091933D01*
X0181482Y0092091D01*
X0181321Y0092253D01*
X0181165Y0092419D01*
X0181012Y0092589D01*
X0180864Y0092762D01*
X0180720Y0092939D01*
X0180581Y0093119D01*
X0180446Y0093303D01*
X0180315Y0093489D01*
X0180189Y0093679D01*
X0180068Y0093872D01*
X0179951Y0094068D01*
X0179840Y0094267D01*
X0179733Y0094468D01*
X0179631Y0094672D01*
X0179534Y0094879D01*
X0179442Y0095087D01*
X0179355Y0095298D01*
X0179274Y0095511D01*
X0179197Y0095726D01*
X0179126Y0095942D01*
X0179060Y0096161D01*
X0179000Y0096380D01*
X0178945Y0096602D01*
X0178895Y0096824D01*
X0178851Y0097048D01*
X0178812Y0097272D01*
X0178779Y0097498D01*
X0178751Y0097724D01*
X0178729Y0097951D01*
X0178712Y0098178D01*
X0178701Y0098406D01*
X0178696Y0098634D01*
X0178696Y0098862D01*
X0178701Y0099090D01*
X0178712Y0099318D01*
X0178729Y0099545D01*
X0178751Y0099772D01*
X0178779Y0099998D01*
X0178812Y0100224D01*
X0178851Y0100448D01*
X0178895Y0100672D01*
X0178945Y0100894D01*
X0179000Y0101116D01*
X0179060Y0101335D01*
X0179126Y0101554D01*
X0179197Y0101770D01*
X0179274Y0101985D01*
X0179355Y0102198D01*
X0179442Y0102409D01*
X0179534Y0102617D01*
X0179631Y0102824D01*
X0179733Y0103028D01*
X0179840Y0103229D01*
X0179951Y0103428D01*
X0180068Y0103624D01*
X0180189Y0103817D01*
X0180315Y0104007D01*
X0180446Y0104193D01*
X0180581Y0104377D01*
X0180720Y0104557D01*
X0180864Y0104734D01*
X0181012Y0104907D01*
X0181165Y0105077D01*
X0181321Y0105243D01*
X0181482Y0105405D01*
X0181646Y0105563D01*
X0181814Y0105717D01*
X0181986Y0105866D01*
X0182161Y0106012D01*
X0182340Y0106153D01*
X0182523Y0106290D01*
X0182708Y0106422D01*
X0182897Y0106550D01*
X0183089Y0106673D01*
X0183284Y0106792D01*
X0183482Y0106905D01*
X0183682Y0107014D01*
X0183885Y0107118D01*
X0184090Y0107217D01*
X0184298Y0107310D01*
X0184328Y0107242D01*
X0184122Y0107149D01*
X0183918Y0107050D01*
X0183717Y0106947D01*
X0183518Y0106840D01*
X0183322Y0106727D01*
X0183129Y0106609D01*
X0182938Y0106487D01*
X0182751Y0106361D01*
X0182567Y0106229D01*
X0182386Y0106094D01*
X0182208Y0105954D01*
X0182034Y0105809D01*
X0181864Y0105661D01*
X0181697Y0105508D01*
X0181534Y0105351D01*
X0181375Y0105190D01*
X0181220Y0105026D01*
X0181069Y0104858D01*
X0180922Y0104686D01*
X0180779Y0104511D01*
X0180641Y0104332D01*
X0180507Y0104150D01*
X0180377Y0103964D01*
X0180252Y0103776D01*
X0180132Y0103584D01*
X0180016Y0103390D01*
X0179905Y0103193D01*
X0179799Y0102993D01*
X0179698Y0102791D01*
X0179602Y0102586D01*
X0179511Y0102379D01*
X0179425Y0102170D01*
X0179344Y0101959D01*
X0179268Y0101746D01*
X0179198Y0101531D01*
X0179132Y0101315D01*
X0179072Y0101097D01*
X0179018Y0100877D01*
X0178969Y0100656D01*
X0178925Y0100435D01*
X0178886Y0100212D01*
X0178853Y0099988D01*
X0178826Y0099764D01*
X0178804Y0099539D01*
X0178787Y0099313D01*
X0178776Y0099087D01*
X0178771Y0098861D01*
X0178771Y0098635D01*
X0178776Y0098409D01*
X0178787Y0098183D01*
X0178804Y0097957D01*
X0178826Y0097732D01*
X0178853Y0097508D01*
X0178886Y0097284D01*
X0178925Y0097061D01*
X0178969Y0096840D01*
X0179018Y0096619D01*
X0179072Y0096399D01*
X0179132Y0096181D01*
X0179198Y0095965D01*
X0179268Y0095750D01*
X0179344Y0095537D01*
X0179425Y0095326D01*
X0179511Y0095117D01*
X0179602Y0094910D01*
X0179698Y0094705D01*
X0179799Y0094503D01*
X0179905Y0094303D01*
X0180016Y0094106D01*
X0180132Y0093912D01*
X0180252Y0093720D01*
X0180377Y0093532D01*
X0180507Y0093346D01*
X0180641Y0093164D01*
X0180779Y0092985D01*
X0180922Y0092810D01*
X0181069Y0092638D01*
X0181220Y0092470D01*
X0181375Y0092306D01*
X0181534Y0092145D01*
X0181697Y0091988D01*
X0181864Y0091835D01*
X0182034Y0091687D01*
X0182208Y0091542D01*
X0182386Y0091402D01*
X0182567Y0091267D01*
X0182751Y0091135D01*
X0182938Y0091009D01*
X0183129Y0090887D01*
X0183322Y0090769D01*
X0183518Y0090656D01*
X0183717Y0090549D01*
X0183918Y0090446D01*
X0184122Y0090347D01*
X0184328Y0090254D01*
X0184357Y0090323D01*
X0184153Y0090416D01*
X0183951Y0090513D01*
X0183751Y0090615D01*
X0183554Y0090722D01*
X0183360Y0090834D01*
X0183168Y0090950D01*
X0182979Y0091071D01*
X0182794Y0091197D01*
X0182611Y0091327D01*
X0182432Y0091462D01*
X0182255Y0091601D01*
X0182083Y0091744D01*
X0181914Y0091892D01*
X0181748Y0092043D01*
X0181587Y0092198D01*
X0181429Y0092358D01*
X0181275Y0092521D01*
X0181125Y0092688D01*
X0180979Y0092858D01*
X0180838Y0093032D01*
X0180700Y0093210D01*
X0180567Y0093390D01*
X0180439Y0093574D01*
X0180315Y0093761D01*
X0180196Y0093951D01*
X0180081Y0094144D01*
X0179971Y0094339D01*
X0179866Y0094537D01*
X0179766Y0094738D01*
X0179670Y0094941D01*
X0179580Y0095146D01*
X0179495Y0095354D01*
X0179414Y0095563D01*
X0179339Y0095774D01*
X0179269Y0095988D01*
X0179204Y0096202D01*
X0179145Y0096419D01*
X0179091Y0096636D01*
X0179042Y0096855D01*
X0178998Y0097075D01*
X0178960Y0097296D01*
X0178928Y0097518D01*
X0178900Y0097741D01*
X0178878Y0097964D01*
X0178862Y0098188D01*
X0178851Y0098412D01*
X0178846Y0098636D01*
X0178846Y0098860D01*
X0178851Y0099084D01*
X0178862Y0099308D01*
X0178878Y0099532D01*
X0178900Y0099755D01*
X0178928Y0099978D01*
X0178960Y0100200D01*
X0178998Y0100421D01*
X0179042Y0100641D01*
X0179091Y0100860D01*
X0179145Y0101077D01*
X0179204Y0101294D01*
X0179269Y0101508D01*
X0179339Y0101722D01*
X0179414Y0101933D01*
X0179495Y0102142D01*
X0179580Y0102350D01*
X0179670Y0102555D01*
X0179766Y0102758D01*
X0179866Y0102959D01*
X0179971Y0103157D01*
X0180081Y0103352D01*
X0180196Y0103545D01*
X0180315Y0103735D01*
X0180439Y0103922D01*
X0180567Y0104106D01*
X0180700Y0104286D01*
X0180838Y0104464D01*
X0180979Y0104638D01*
X0181125Y0104808D01*
X0181275Y0104975D01*
X0181429Y0105138D01*
X0181587Y0105298D01*
X0181748Y0105453D01*
X0181914Y0105604D01*
X0182083Y0105752D01*
X0182255Y0105895D01*
X0182432Y0106034D01*
X0182611Y0106169D01*
X0182794Y0106299D01*
X0182979Y0106425D01*
X0183168Y0106546D01*
X0183360Y0106662D01*
X0183554Y0106774D01*
X0183751Y0106881D01*
X0183951Y0106983D01*
X0184153Y0107080D01*
X0184357Y0107173D01*
X0184387Y0107104D01*
X0184184Y0107012D01*
X0183984Y0106916D01*
X0183786Y0106814D01*
X0183591Y0106708D01*
X0183398Y0106597D01*
X0183208Y0106482D01*
X0183020Y0106362D01*
X0182836Y0106237D01*
X0182655Y0106108D01*
X0182477Y0105974D01*
X0182302Y0105837D01*
X0182131Y0105695D01*
X0181964Y0105548D01*
X0181799Y0105398D01*
X0181639Y0105244D01*
X0181483Y0105086D01*
X0181330Y0104924D01*
X0181181Y0104759D01*
X0181037Y0104590D01*
X0180896Y0104417D01*
X0180760Y0104241D01*
X0180628Y0104062D01*
X0180501Y0103880D01*
X0180378Y0103694D01*
X0180260Y0103506D01*
X0180146Y0103315D01*
X0180037Y0103121D01*
X0179932Y0102924D01*
X0179833Y0102725D01*
X0179738Y0102524D01*
X0179649Y0102320D01*
X0179564Y0102115D01*
X0179485Y0101907D01*
X0179410Y0101697D01*
X0179341Y0101486D01*
X0179277Y0101273D01*
X0179218Y0101058D01*
X0179164Y0100843D01*
X0179115Y0100625D01*
X0179072Y0100407D01*
X0179034Y0100188D01*
X0179002Y0099968D01*
X0178975Y0099747D01*
X0178953Y0099526D01*
X0178937Y0099304D01*
X0178926Y0099082D01*
X0178921Y0098859D01*
X0178921Y0098637D01*
X0178926Y0098414D01*
X0178937Y0098192D01*
X0178953Y0097970D01*
X0178975Y0097749D01*
X0179002Y0097528D01*
X0179034Y0097308D01*
X0179072Y0097089D01*
X0179115Y0096871D01*
X0179164Y0096653D01*
X0179218Y0096438D01*
X0179277Y0096223D01*
X0179341Y0096010D01*
X0179410Y0095799D01*
X0179485Y0095589D01*
X0179564Y0095381D01*
X0179649Y0095176D01*
X0179738Y0094972D01*
X0179833Y0094771D01*
X0179932Y0094572D01*
X0180037Y0094375D01*
X0180146Y0094181D01*
X0180260Y0093990D01*
X0180378Y0093802D01*
X0180501Y0093616D01*
X0180628Y0093434D01*
X0180760Y0093255D01*
X0180896Y0093079D01*
X0181037Y0092906D01*
X0181181Y0092737D01*
X0181330Y0092572D01*
X0181483Y0092410D01*
X0181639Y0092252D01*
X0181799Y0092098D01*
X0181964Y0091948D01*
X0182131Y0091801D01*
X0182302Y0091659D01*
X0182477Y0091522D01*
X0182655Y0091388D01*
X0182836Y0091259D01*
X0183020Y0091134D01*
X0183208Y0091014D01*
X0183398Y0090899D01*
X0183591Y0090788D01*
X0183786Y0090682D01*
X0183984Y0090580D01*
X0184184Y0090484D01*
X0184387Y0090392D01*
X0191958Y0089773D02*
X0191672Y0090434D01*
X0191673Y0090433D02*
X0191875Y0090525D01*
X0192074Y0090621D01*
X0192271Y0090721D01*
X0192466Y0090827D01*
X0192658Y0090937D01*
X0192847Y0091052D01*
X0193033Y0091172D01*
X0193216Y0091296D01*
X0193397Y0091424D01*
X0193574Y0091557D01*
X0193747Y0091694D01*
X0193918Y0091836D01*
X0194085Y0091981D01*
X0194248Y0092131D01*
X0194407Y0092284D01*
X0194563Y0092441D01*
X0194715Y0092602D01*
X0194863Y0092767D01*
X0195007Y0092935D01*
X0195147Y0093107D01*
X0195282Y0093282D01*
X0195413Y0093460D01*
X0195540Y0093642D01*
X0195662Y0093826D01*
X0195780Y0094014D01*
X0195893Y0094204D01*
X0196002Y0094397D01*
X0196106Y0094592D01*
X0196204Y0094790D01*
X0196299Y0094991D01*
X0196388Y0095193D01*
X0196472Y0095398D01*
X0196551Y0095605D01*
X0196625Y0095813D01*
X0196694Y0096024D01*
X0196758Y0096236D01*
X0196817Y0096449D01*
X0196870Y0096664D01*
X0196919Y0096880D01*
X0196962Y0097097D01*
X0196999Y0097315D01*
X0197031Y0097534D01*
X0197058Y0097754D01*
X0197080Y0097974D01*
X0197096Y0098195D01*
X0197107Y0098416D01*
X0197112Y0098637D01*
X0197112Y0098859D01*
X0197107Y0099080D01*
X0197096Y0099301D01*
X0197080Y0099522D01*
X0197058Y0099742D01*
X0197031Y0099962D01*
X0196999Y0100181D01*
X0196962Y0100399D01*
X0196919Y0100616D01*
X0196870Y0100832D01*
X0196817Y0101047D01*
X0196758Y0101260D01*
X0196694Y0101472D01*
X0196625Y0101683D01*
X0196551Y0101891D01*
X0196472Y0102098D01*
X0196388Y0102303D01*
X0196299Y0102505D01*
X0196204Y0102706D01*
X0196106Y0102904D01*
X0196002Y0103099D01*
X0195893Y0103292D01*
X0195780Y0103482D01*
X0195662Y0103670D01*
X0195540Y0103854D01*
X0195413Y0104036D01*
X0195282Y0104214D01*
X0195147Y0104389D01*
X0195007Y0104561D01*
X0194863Y0104729D01*
X0194715Y0104894D01*
X0194563Y0105055D01*
X0194407Y0105212D01*
X0194248Y0105365D01*
X0194085Y0105515D01*
X0193918Y0105660D01*
X0193747Y0105802D01*
X0193574Y0105939D01*
X0193397Y0106072D01*
X0193216Y0106200D01*
X0193033Y0106324D01*
X0192847Y0106444D01*
X0192658Y0106559D01*
X0192466Y0106669D01*
X0192271Y0106775D01*
X0192074Y0106875D01*
X0191875Y0106971D01*
X0191673Y0107063D01*
X0191958Y0107723D01*
X0191958Y0107724D01*
X0192176Y0107625D01*
X0192392Y0107522D01*
X0192604Y0107413D01*
X0192814Y0107299D01*
X0193022Y0107180D01*
X0193226Y0107056D01*
X0193427Y0106927D01*
X0193625Y0106793D01*
X0193820Y0106654D01*
X0194011Y0106511D01*
X0194198Y0106363D01*
X0194382Y0106210D01*
X0194563Y0106053D01*
X0194739Y0105892D01*
X0194911Y0105726D01*
X0195079Y0105556D01*
X0195243Y0105383D01*
X0195403Y0105205D01*
X0195559Y0105023D01*
X0195709Y0104838D01*
X0195856Y0104649D01*
X0195997Y0104457D01*
X0196134Y0104261D01*
X0196266Y0104061D01*
X0196394Y0103859D01*
X0196516Y0103654D01*
X0196633Y0103446D01*
X0196745Y0103234D01*
X0196852Y0103021D01*
X0196953Y0102804D01*
X0197050Y0102586D01*
X0197141Y0102365D01*
X0197226Y0102142D01*
X0197306Y0101916D01*
X0197381Y0101689D01*
X0197450Y0101460D01*
X0197513Y0101230D01*
X0197571Y0100998D01*
X0197623Y0100765D01*
X0197669Y0100530D01*
X0197710Y0100295D01*
X0197745Y0100059D01*
X0197774Y0099821D01*
X0197797Y0099583D01*
X0197815Y0099345D01*
X0197826Y0099106D01*
X0197832Y0098867D01*
X0197832Y0098629D01*
X0197826Y0098390D01*
X0197815Y0098151D01*
X0197797Y0097913D01*
X0197774Y0097675D01*
X0197745Y0097437D01*
X0197710Y0097201D01*
X0197669Y0096966D01*
X0197623Y0096731D01*
X0197571Y0096498D01*
X0197513Y0096266D01*
X0197450Y0096036D01*
X0197381Y0095807D01*
X0197306Y0095580D01*
X0197226Y0095354D01*
X0197141Y0095131D01*
X0197050Y0094910D01*
X0196953Y0094692D01*
X0196852Y0094475D01*
X0196745Y0094262D01*
X0196633Y0094050D01*
X0196516Y0093842D01*
X0196394Y0093637D01*
X0196266Y0093435D01*
X0196134Y0093235D01*
X0195997Y0093039D01*
X0195856Y0092847D01*
X0195709Y0092658D01*
X0195559Y0092473D01*
X0195403Y0092291D01*
X0195243Y0092113D01*
X0195079Y0091940D01*
X0194911Y0091770D01*
X0194739Y0091604D01*
X0194563Y0091443D01*
X0194382Y0091286D01*
X0194198Y0091133D01*
X0194011Y0090985D01*
X0193820Y0090842D01*
X0193625Y0090703D01*
X0193427Y0090569D01*
X0193226Y0090440D01*
X0193022Y0090316D01*
X0192814Y0090197D01*
X0192604Y0090083D01*
X0192392Y0089974D01*
X0192176Y0089871D01*
X0191958Y0089772D01*
X0191929Y0089841D01*
X0192145Y0089939D01*
X0192359Y0090042D01*
X0192570Y0090150D01*
X0192778Y0090263D01*
X0192984Y0090381D01*
X0193186Y0090504D01*
X0193386Y0090632D01*
X0193582Y0090765D01*
X0193776Y0090903D01*
X0193965Y0091045D01*
X0194151Y0091192D01*
X0194334Y0091343D01*
X0194513Y0091499D01*
X0194688Y0091659D01*
X0194859Y0091823D01*
X0195026Y0091992D01*
X0195188Y0092164D01*
X0195347Y0092341D01*
X0195501Y0092521D01*
X0195651Y0092705D01*
X0195796Y0092892D01*
X0195936Y0093083D01*
X0196072Y0093278D01*
X0196203Y0093475D01*
X0196330Y0093676D01*
X0196451Y0093880D01*
X0196567Y0094087D01*
X0196678Y0094296D01*
X0196784Y0094508D01*
X0196885Y0094723D01*
X0196981Y0094940D01*
X0197071Y0095159D01*
X0197156Y0095381D01*
X0197235Y0095604D01*
X0197309Y0095829D01*
X0197378Y0096056D01*
X0197441Y0096285D01*
X0197498Y0096515D01*
X0197550Y0096747D01*
X0197596Y0096979D01*
X0197636Y0097213D01*
X0197671Y0097448D01*
X0197699Y0097683D01*
X0197723Y0097919D01*
X0197740Y0098155D01*
X0197751Y0098392D01*
X0197757Y0098629D01*
X0197757Y0098867D01*
X0197751Y0099104D01*
X0197740Y0099341D01*
X0197723Y0099577D01*
X0197699Y0099813D01*
X0197671Y0100048D01*
X0197636Y0100283D01*
X0197596Y0100517D01*
X0197550Y0100749D01*
X0197498Y0100981D01*
X0197441Y0101211D01*
X0197378Y0101440D01*
X0197309Y0101667D01*
X0197235Y0101892D01*
X0197156Y0102115D01*
X0197071Y0102337D01*
X0196981Y0102556D01*
X0196885Y0102773D01*
X0196784Y0102988D01*
X0196678Y0103200D01*
X0196567Y0103409D01*
X0196451Y0103616D01*
X0196330Y0103820D01*
X0196203Y0104021D01*
X0196072Y0104218D01*
X0195936Y0104413D01*
X0195796Y0104604D01*
X0195651Y0104791D01*
X0195501Y0104975D01*
X0195347Y0105155D01*
X0195188Y0105332D01*
X0195026Y0105504D01*
X0194859Y0105673D01*
X0194688Y0105837D01*
X0194513Y0105997D01*
X0194334Y0106153D01*
X0194151Y0106304D01*
X0193965Y0106451D01*
X0193776Y0106593D01*
X0193582Y0106731D01*
X0193386Y0106864D01*
X0193186Y0106992D01*
X0192984Y0107115D01*
X0192778Y0107233D01*
X0192570Y0107346D01*
X0192359Y0107454D01*
X0192145Y0107557D01*
X0191929Y0107655D01*
X0191899Y0107586D01*
X0192113Y0107489D01*
X0192325Y0107387D01*
X0192535Y0107280D01*
X0192742Y0107168D01*
X0192946Y0107050D01*
X0193147Y0106928D01*
X0193345Y0106801D01*
X0193540Y0106669D01*
X0193731Y0106533D01*
X0193920Y0106392D01*
X0194104Y0106246D01*
X0194286Y0106096D01*
X0194463Y0105941D01*
X0194637Y0105782D01*
X0194806Y0105619D01*
X0194972Y0105452D01*
X0195133Y0105281D01*
X0195291Y0105106D01*
X0195444Y0104927D01*
X0195592Y0104744D01*
X0195736Y0104558D01*
X0195876Y0104369D01*
X0196010Y0104176D01*
X0196141Y0103980D01*
X0196266Y0103781D01*
X0196386Y0103578D01*
X0196501Y0103373D01*
X0196612Y0103165D01*
X0196717Y0102955D01*
X0196817Y0102742D01*
X0196912Y0102527D01*
X0197001Y0102309D01*
X0197086Y0102089D01*
X0197164Y0101868D01*
X0197238Y0101644D01*
X0197306Y0101419D01*
X0197368Y0101192D01*
X0197425Y0100964D01*
X0197476Y0100734D01*
X0197522Y0100503D01*
X0197562Y0100271D01*
X0197596Y0100038D01*
X0197625Y0099805D01*
X0197648Y0099571D01*
X0197665Y0099336D01*
X0197677Y0099101D01*
X0197682Y0098866D01*
X0197682Y0098630D01*
X0197677Y0098395D01*
X0197665Y0098160D01*
X0197648Y0097925D01*
X0197625Y0097691D01*
X0197596Y0097458D01*
X0197562Y0097225D01*
X0197522Y0096993D01*
X0197476Y0096762D01*
X0197425Y0096532D01*
X0197368Y0096304D01*
X0197306Y0096077D01*
X0197238Y0095852D01*
X0197164Y0095628D01*
X0197086Y0095407D01*
X0197001Y0095187D01*
X0196912Y0094969D01*
X0196817Y0094754D01*
X0196717Y0094541D01*
X0196612Y0094331D01*
X0196501Y0094123D01*
X0196386Y0093918D01*
X0196266Y0093715D01*
X0196141Y0093516D01*
X0196010Y0093320D01*
X0195876Y0093127D01*
X0195736Y0092938D01*
X0195592Y0092752D01*
X0195444Y0092569D01*
X0195291Y0092390D01*
X0195133Y0092215D01*
X0194972Y0092044D01*
X0194806Y0091877D01*
X0194637Y0091714D01*
X0194463Y0091555D01*
X0194286Y0091400D01*
X0194104Y0091250D01*
X0193920Y0091104D01*
X0193731Y0090963D01*
X0193540Y0090827D01*
X0193345Y0090695D01*
X0193147Y0090568D01*
X0192946Y0090446D01*
X0192742Y0090328D01*
X0192535Y0090216D01*
X0192325Y0090109D01*
X0192113Y0090007D01*
X0191899Y0089910D01*
X0191869Y0089979D01*
X0192082Y0090075D01*
X0192292Y0090176D01*
X0192500Y0090283D01*
X0192705Y0090394D01*
X0192908Y0090510D01*
X0193107Y0090632D01*
X0193304Y0090758D01*
X0193497Y0090888D01*
X0193687Y0091024D01*
X0193874Y0091164D01*
X0194057Y0091309D01*
X0194237Y0091458D01*
X0194413Y0091611D01*
X0194585Y0091769D01*
X0194754Y0091931D01*
X0194918Y0092096D01*
X0195078Y0092266D01*
X0195234Y0092440D01*
X0195386Y0092617D01*
X0195533Y0092798D01*
X0195676Y0092983D01*
X0195815Y0093171D01*
X0195949Y0093362D01*
X0196078Y0093557D01*
X0196202Y0093755D01*
X0196321Y0093955D01*
X0196436Y0094159D01*
X0196545Y0094365D01*
X0196650Y0094574D01*
X0196749Y0094785D01*
X0196843Y0094999D01*
X0196932Y0095215D01*
X0197015Y0095433D01*
X0197094Y0095653D01*
X0197166Y0095875D01*
X0197234Y0096098D01*
X0197296Y0096323D01*
X0197352Y0096550D01*
X0197403Y0096778D01*
X0197448Y0097007D01*
X0197488Y0097237D01*
X0197522Y0097468D01*
X0197550Y0097699D01*
X0197573Y0097932D01*
X0197590Y0098165D01*
X0197602Y0098398D01*
X0197607Y0098631D01*
X0197607Y0098865D01*
X0197602Y0099098D01*
X0197590Y0099331D01*
X0197573Y0099564D01*
X0197550Y0099797D01*
X0197522Y0100028D01*
X0197488Y0100259D01*
X0197448Y0100489D01*
X0197403Y0100718D01*
X0197352Y0100946D01*
X0197296Y0101173D01*
X0197234Y0101398D01*
X0197166Y0101621D01*
X0197094Y0101843D01*
X0197015Y0102063D01*
X0196932Y0102281D01*
X0196843Y0102497D01*
X0196749Y0102711D01*
X0196650Y0102922D01*
X0196545Y0103131D01*
X0196436Y0103337D01*
X0196321Y0103541D01*
X0196202Y0103741D01*
X0196078Y0103939D01*
X0195949Y0104134D01*
X0195815Y0104325D01*
X0195676Y0104513D01*
X0195533Y0104698D01*
X0195386Y0104879D01*
X0195234Y0105056D01*
X0195078Y0105230D01*
X0194918Y0105400D01*
X0194754Y0105565D01*
X0194585Y0105727D01*
X0194413Y0105885D01*
X0194237Y0106038D01*
X0194057Y0106187D01*
X0193874Y0106332D01*
X0193687Y0106472D01*
X0193497Y0106608D01*
X0193304Y0106738D01*
X0193107Y0106864D01*
X0192908Y0106986D01*
X0192705Y0107102D01*
X0192500Y0107213D01*
X0192292Y0107320D01*
X0192082Y0107421D01*
X0191869Y0107517D01*
X0191839Y0107448D01*
X0192051Y0107353D01*
X0192259Y0107252D01*
X0192466Y0107147D01*
X0192669Y0107036D01*
X0192870Y0106921D01*
X0193068Y0106801D01*
X0193263Y0106676D01*
X0193455Y0106546D01*
X0193643Y0106411D01*
X0193829Y0106272D01*
X0194010Y0106129D01*
X0194189Y0105981D01*
X0194363Y0105829D01*
X0194534Y0105672D01*
X0194701Y0105512D01*
X0194864Y0105347D01*
X0195023Y0105179D01*
X0195178Y0105007D01*
X0195329Y0104831D01*
X0195475Y0104651D01*
X0195617Y0104468D01*
X0195754Y0104281D01*
X0195887Y0104091D01*
X0196015Y0103898D01*
X0196138Y0103702D01*
X0196256Y0103503D01*
X0196370Y0103301D01*
X0196479Y0103097D01*
X0196582Y0102889D01*
X0196681Y0102680D01*
X0196774Y0102468D01*
X0196862Y0102254D01*
X0196945Y0102037D01*
X0197023Y0101819D01*
X0197095Y0101599D01*
X0197162Y0101377D01*
X0197223Y0101154D01*
X0197279Y0100929D01*
X0197330Y0100703D01*
X0197374Y0100476D01*
X0197414Y0100247D01*
X0197448Y0100018D01*
X0197476Y0099788D01*
X0197498Y0099558D01*
X0197515Y0099327D01*
X0197527Y0099095D01*
X0197532Y0098864D01*
X0197532Y0098632D01*
X0197527Y0098401D01*
X0197515Y0098169D01*
X0197498Y0097938D01*
X0197476Y0097708D01*
X0197448Y0097478D01*
X0197414Y0097249D01*
X0197374Y0097020D01*
X0197330Y0096793D01*
X0197279Y0096567D01*
X0197223Y0096342D01*
X0197162Y0096119D01*
X0197095Y0095897D01*
X0197023Y0095677D01*
X0196945Y0095459D01*
X0196862Y0095242D01*
X0196774Y0095028D01*
X0196681Y0094816D01*
X0196582Y0094607D01*
X0196479Y0094399D01*
X0196370Y0094195D01*
X0196256Y0093993D01*
X0196138Y0093794D01*
X0196015Y0093598D01*
X0195887Y0093405D01*
X0195754Y0093215D01*
X0195617Y0093028D01*
X0195475Y0092845D01*
X0195329Y0092665D01*
X0195178Y0092489D01*
X0195023Y0092317D01*
X0194864Y0092149D01*
X0194701Y0091984D01*
X0194534Y0091824D01*
X0194363Y0091667D01*
X0194189Y0091515D01*
X0194010Y0091367D01*
X0193829Y0091224D01*
X0193643Y0091085D01*
X0193455Y0090950D01*
X0193263Y0090820D01*
X0193068Y0090695D01*
X0192870Y0090575D01*
X0192669Y0090460D01*
X0192466Y0090349D01*
X0192259Y0090244D01*
X0192051Y0090143D01*
X0191839Y0090048D01*
X0191810Y0090117D01*
X0192019Y0090211D01*
X0192226Y0090311D01*
X0192431Y0090416D01*
X0192633Y0090525D01*
X0192832Y0090640D01*
X0193028Y0090759D01*
X0193222Y0090883D01*
X0193412Y0091012D01*
X0193599Y0091145D01*
X0193783Y0091283D01*
X0193964Y0091426D01*
X0194140Y0091572D01*
X0194314Y0091723D01*
X0194483Y0091878D01*
X0194649Y0092038D01*
X0194811Y0092201D01*
X0194968Y0092368D01*
X0195122Y0092539D01*
X0195271Y0092714D01*
X0195416Y0092892D01*
X0195557Y0093074D01*
X0195693Y0093259D01*
X0195825Y0093447D01*
X0195952Y0093639D01*
X0196074Y0093833D01*
X0196192Y0094031D01*
X0196304Y0094231D01*
X0196412Y0094434D01*
X0196515Y0094639D01*
X0196612Y0094847D01*
X0196705Y0095058D01*
X0196792Y0095270D01*
X0196875Y0095485D01*
X0196952Y0095701D01*
X0197023Y0095920D01*
X0197090Y0096140D01*
X0197151Y0096361D01*
X0197206Y0096584D01*
X0197256Y0096809D01*
X0197301Y0097034D01*
X0197340Y0097261D01*
X0197373Y0097488D01*
X0197401Y0097716D01*
X0197424Y0097945D01*
X0197440Y0098174D01*
X0197452Y0098403D01*
X0197457Y0098633D01*
X0197457Y0098863D01*
X0197452Y0099093D01*
X0197440Y0099322D01*
X0197424Y0099551D01*
X0197401Y0099780D01*
X0197373Y0100008D01*
X0197340Y0100235D01*
X0197301Y0100462D01*
X0197256Y0100687D01*
X0197206Y0100912D01*
X0197151Y0101135D01*
X0197090Y0101356D01*
X0197023Y0101576D01*
X0196952Y0101795D01*
X0196875Y0102011D01*
X0196792Y0102226D01*
X0196705Y0102438D01*
X0196612Y0102649D01*
X0196515Y0102857D01*
X0196412Y0103062D01*
X0196304Y0103265D01*
X0196192Y0103465D01*
X0196074Y0103663D01*
X0195952Y0103857D01*
X0195825Y0104049D01*
X0195693Y0104237D01*
X0195557Y0104422D01*
X0195416Y0104604D01*
X0195271Y0104782D01*
X0195122Y0104957D01*
X0194968Y0105128D01*
X0194811Y0105295D01*
X0194649Y0105458D01*
X0194483Y0105618D01*
X0194314Y0105773D01*
X0194140Y0105924D01*
X0193964Y0106070D01*
X0193783Y0106213D01*
X0193599Y0106351D01*
X0193412Y0106484D01*
X0193222Y0106613D01*
X0193028Y0106737D01*
X0192832Y0106856D01*
X0192633Y0106971D01*
X0192431Y0107080D01*
X0192226Y0107185D01*
X0192019Y0107285D01*
X0191810Y0107379D01*
X0191780Y0107310D01*
X0191988Y0107217D01*
X0192193Y0107118D01*
X0192396Y0107014D01*
X0192596Y0106905D01*
X0192794Y0106792D01*
X0192989Y0106673D01*
X0193181Y0106550D01*
X0193370Y0106422D01*
X0193555Y0106290D01*
X0193738Y0106153D01*
X0193917Y0106012D01*
X0194092Y0105866D01*
X0194264Y0105717D01*
X0194432Y0105563D01*
X0194596Y0105405D01*
X0194757Y0105243D01*
X0194913Y0105077D01*
X0195066Y0104907D01*
X0195214Y0104734D01*
X0195358Y0104557D01*
X0195497Y0104377D01*
X0195632Y0104193D01*
X0195763Y0104007D01*
X0195889Y0103817D01*
X0196010Y0103624D01*
X0196127Y0103428D01*
X0196238Y0103229D01*
X0196345Y0103028D01*
X0196447Y0102824D01*
X0196544Y0102617D01*
X0196636Y0102409D01*
X0196723Y0102198D01*
X0196804Y0101985D01*
X0196881Y0101770D01*
X0196952Y0101554D01*
X0197018Y0101335D01*
X0197078Y0101116D01*
X0197133Y0100894D01*
X0197183Y0100672D01*
X0197227Y0100448D01*
X0197266Y0100224D01*
X0197299Y0099998D01*
X0197327Y0099772D01*
X0197349Y0099545D01*
X0197366Y0099318D01*
X0197377Y0099090D01*
X0197382Y0098862D01*
X0197382Y0098634D01*
X0197377Y0098406D01*
X0197366Y0098178D01*
X0197349Y0097951D01*
X0197327Y0097724D01*
X0197299Y0097498D01*
X0197266Y0097272D01*
X0197227Y0097048D01*
X0197183Y0096824D01*
X0197133Y0096602D01*
X0197078Y0096380D01*
X0197018Y0096161D01*
X0196952Y0095942D01*
X0196881Y0095726D01*
X0196804Y0095511D01*
X0196723Y0095298D01*
X0196636Y0095087D01*
X0196544Y0094879D01*
X0196447Y0094672D01*
X0196345Y0094468D01*
X0196238Y0094267D01*
X0196127Y0094068D01*
X0196010Y0093872D01*
X0195889Y0093679D01*
X0195763Y0093489D01*
X0195632Y0093303D01*
X0195497Y0093119D01*
X0195358Y0092939D01*
X0195214Y0092762D01*
X0195066Y0092589D01*
X0194913Y0092419D01*
X0194757Y0092253D01*
X0194596Y0092091D01*
X0194432Y0091933D01*
X0194264Y0091779D01*
X0194092Y0091630D01*
X0193917Y0091484D01*
X0193738Y0091343D01*
X0193555Y0091206D01*
X0193370Y0091074D01*
X0193181Y0090946D01*
X0192989Y0090823D01*
X0192794Y0090704D01*
X0192596Y0090591D01*
X0192396Y0090482D01*
X0192193Y0090378D01*
X0191988Y0090279D01*
X0191780Y0090186D01*
X0191750Y0090254D01*
X0191956Y0090347D01*
X0192160Y0090446D01*
X0192361Y0090549D01*
X0192560Y0090656D01*
X0192756Y0090769D01*
X0192949Y0090887D01*
X0193140Y0091009D01*
X0193327Y0091135D01*
X0193511Y0091267D01*
X0193692Y0091402D01*
X0193870Y0091542D01*
X0194044Y0091687D01*
X0194214Y0091835D01*
X0194381Y0091988D01*
X0194544Y0092145D01*
X0194703Y0092306D01*
X0194858Y0092470D01*
X0195009Y0092638D01*
X0195156Y0092810D01*
X0195299Y0092985D01*
X0195437Y0093164D01*
X0195571Y0093346D01*
X0195701Y0093532D01*
X0195826Y0093720D01*
X0195946Y0093912D01*
X0196062Y0094106D01*
X0196173Y0094303D01*
X0196279Y0094503D01*
X0196380Y0094705D01*
X0196476Y0094910D01*
X0196567Y0095117D01*
X0196653Y0095326D01*
X0196734Y0095537D01*
X0196810Y0095750D01*
X0196880Y0095965D01*
X0196946Y0096181D01*
X0197006Y0096399D01*
X0197060Y0096619D01*
X0197109Y0096840D01*
X0197153Y0097061D01*
X0197192Y0097284D01*
X0197225Y0097508D01*
X0197252Y0097732D01*
X0197274Y0097957D01*
X0197291Y0098183D01*
X0197302Y0098409D01*
X0197307Y0098635D01*
X0197307Y0098861D01*
X0197302Y0099087D01*
X0197291Y0099313D01*
X0197274Y0099539D01*
X0197252Y0099764D01*
X0197225Y0099988D01*
X0197192Y0100212D01*
X0197153Y0100435D01*
X0197109Y0100656D01*
X0197060Y0100877D01*
X0197006Y0101097D01*
X0196946Y0101315D01*
X0196880Y0101531D01*
X0196810Y0101746D01*
X0196734Y0101959D01*
X0196653Y0102170D01*
X0196567Y0102379D01*
X0196476Y0102586D01*
X0196380Y0102791D01*
X0196279Y0102993D01*
X0196173Y0103193D01*
X0196062Y0103390D01*
X0195946Y0103584D01*
X0195826Y0103776D01*
X0195701Y0103964D01*
X0195571Y0104150D01*
X0195437Y0104332D01*
X0195299Y0104511D01*
X0195156Y0104686D01*
X0195009Y0104858D01*
X0194858Y0105026D01*
X0194703Y0105190D01*
X0194544Y0105351D01*
X0194381Y0105508D01*
X0194214Y0105661D01*
X0194044Y0105809D01*
X0193870Y0105954D01*
X0193692Y0106094D01*
X0193511Y0106229D01*
X0193327Y0106361D01*
X0193140Y0106487D01*
X0192949Y0106609D01*
X0192756Y0106727D01*
X0192560Y0106840D01*
X0192361Y0106947D01*
X0192160Y0107050D01*
X0191956Y0107149D01*
X0191750Y0107242D01*
X0191721Y0107173D01*
X0191925Y0107080D01*
X0192127Y0106983D01*
X0192327Y0106881D01*
X0192524Y0106774D01*
X0192718Y0106662D01*
X0192910Y0106546D01*
X0193099Y0106425D01*
X0193284Y0106299D01*
X0193467Y0106169D01*
X0193646Y0106034D01*
X0193823Y0105895D01*
X0193995Y0105752D01*
X0194164Y0105604D01*
X0194330Y0105453D01*
X0194491Y0105298D01*
X0194649Y0105138D01*
X0194803Y0104975D01*
X0194953Y0104808D01*
X0195099Y0104638D01*
X0195240Y0104464D01*
X0195378Y0104286D01*
X0195511Y0104106D01*
X0195639Y0103922D01*
X0195763Y0103735D01*
X0195882Y0103545D01*
X0195997Y0103352D01*
X0196107Y0103157D01*
X0196212Y0102959D01*
X0196312Y0102758D01*
X0196408Y0102555D01*
X0196498Y0102350D01*
X0196583Y0102142D01*
X0196664Y0101933D01*
X0196739Y0101722D01*
X0196809Y0101508D01*
X0196874Y0101294D01*
X0196933Y0101077D01*
X0196987Y0100860D01*
X0197036Y0100641D01*
X0197080Y0100421D01*
X0197118Y0100200D01*
X0197150Y0099978D01*
X0197178Y0099755D01*
X0197200Y0099532D01*
X0197216Y0099308D01*
X0197227Y0099084D01*
X0197232Y0098860D01*
X0197232Y0098636D01*
X0197227Y0098412D01*
X0197216Y0098188D01*
X0197200Y0097964D01*
X0197178Y0097741D01*
X0197150Y0097518D01*
X0197118Y0097296D01*
X0197080Y0097075D01*
X0197036Y0096855D01*
X0196987Y0096636D01*
X0196933Y0096419D01*
X0196874Y0096202D01*
X0196809Y0095988D01*
X0196739Y0095774D01*
X0196664Y0095563D01*
X0196583Y0095354D01*
X0196498Y0095146D01*
X0196408Y0094941D01*
X0196312Y0094738D01*
X0196212Y0094537D01*
X0196107Y0094339D01*
X0195997Y0094144D01*
X0195882Y0093951D01*
X0195763Y0093761D01*
X0195639Y0093574D01*
X0195511Y0093390D01*
X0195378Y0093210D01*
X0195240Y0093032D01*
X0195099Y0092858D01*
X0194953Y0092688D01*
X0194803Y0092521D01*
X0194649Y0092358D01*
X0194491Y0092198D01*
X0194330Y0092043D01*
X0194164Y0091892D01*
X0193995Y0091744D01*
X0193823Y0091601D01*
X0193646Y0091462D01*
X0193467Y0091327D01*
X0193284Y0091197D01*
X0193099Y0091071D01*
X0192910Y0090950D01*
X0192718Y0090834D01*
X0192524Y0090722D01*
X0192327Y0090615D01*
X0192127Y0090513D01*
X0191925Y0090416D01*
X0191721Y0090323D01*
X0191691Y0090392D01*
X0191894Y0090484D01*
X0192094Y0090580D01*
X0192292Y0090682D01*
X0192487Y0090788D01*
X0192680Y0090899D01*
X0192870Y0091014D01*
X0193058Y0091134D01*
X0193242Y0091259D01*
X0193423Y0091388D01*
X0193601Y0091522D01*
X0193776Y0091659D01*
X0193947Y0091801D01*
X0194114Y0091948D01*
X0194279Y0092098D01*
X0194439Y0092252D01*
X0194595Y0092410D01*
X0194748Y0092572D01*
X0194897Y0092737D01*
X0195041Y0092906D01*
X0195182Y0093079D01*
X0195318Y0093255D01*
X0195450Y0093434D01*
X0195577Y0093616D01*
X0195700Y0093802D01*
X0195818Y0093990D01*
X0195932Y0094181D01*
X0196041Y0094375D01*
X0196146Y0094572D01*
X0196245Y0094771D01*
X0196340Y0094972D01*
X0196429Y0095176D01*
X0196514Y0095381D01*
X0196593Y0095589D01*
X0196668Y0095799D01*
X0196737Y0096010D01*
X0196801Y0096223D01*
X0196860Y0096438D01*
X0196914Y0096653D01*
X0196963Y0096871D01*
X0197006Y0097089D01*
X0197044Y0097308D01*
X0197076Y0097528D01*
X0197103Y0097749D01*
X0197125Y0097970D01*
X0197141Y0098192D01*
X0197152Y0098414D01*
X0197157Y0098637D01*
X0197157Y0098859D01*
X0197152Y0099082D01*
X0197141Y0099304D01*
X0197125Y0099526D01*
X0197103Y0099747D01*
X0197076Y0099968D01*
X0197044Y0100188D01*
X0197006Y0100407D01*
X0196963Y0100625D01*
X0196914Y0100843D01*
X0196860Y0101058D01*
X0196801Y0101273D01*
X0196737Y0101486D01*
X0196668Y0101697D01*
X0196593Y0101907D01*
X0196514Y0102115D01*
X0196429Y0102320D01*
X0196340Y0102524D01*
X0196245Y0102725D01*
X0196146Y0102924D01*
X0196041Y0103121D01*
X0195932Y0103315D01*
X0195818Y0103506D01*
X0195700Y0103694D01*
X0195577Y0103880D01*
X0195450Y0104062D01*
X0195318Y0104241D01*
X0195182Y0104417D01*
X0195041Y0104590D01*
X0194897Y0104759D01*
X0194748Y0104924D01*
X0194595Y0105086D01*
X0194439Y0105244D01*
X0194279Y0105398D01*
X0194114Y0105548D01*
X0193947Y0105695D01*
X0193776Y0105837D01*
X0193601Y0105974D01*
X0193423Y0106108D01*
X0193242Y0106237D01*
X0193058Y0106362D01*
X0192870Y0106482D01*
X0192680Y0106597D01*
X0192487Y0106708D01*
X0192292Y0106814D01*
X0192094Y0106916D01*
X0191894Y0107012D01*
X0191691Y0107104D01*
D21*
X0327606Y0118748D03*
M02*
