%
M48
M72
T01C0.02400
T02C0.03600
T03C0.04000
T04C0.05500
T05C0.09000
T06C0.13780
%
T01
X76800Y66000
X73200Y76800
X120900Y95700
X108300Y108300
X140700Y106500
X126300Y131700
X136200Y141600
X149700Y149700
X162646Y139024
X180300Y90300
X137100Y76800
X156900Y45300
X225300Y69600
T02
X280869Y71346
X288669Y71346
X288669Y81189
X280869Y81189
T03
X255638Y79654
X245638Y79654
X235638Y79654
X225638Y79654
X215638Y79654
T04
X23276Y34496
X42961Y34496
X62646Y34496
X82016Y34496
X101701Y34496
X121386Y34496
X141228Y34496
X160913Y34496
X180598Y34496
X200441Y34496
X220126Y34496
X239811Y34496
X240520Y167055
X259693Y167055
X279693Y167055
X299063Y167055
X319063Y167055
X220520Y167055
X200953Y167055
X180953Y167055
X161583Y167055
X141583Y167055
X122331Y167055
X102331Y167055
X82882Y167055
X62882Y167055
X43433Y167055
X23433Y167055
T05
X299369Y99968
X299369Y52568
T06
X298276Y26622
X298276Y128984
X18748Y128984
X18748Y73866
M30
