G75*
%MOIN*%
%OFA0B0*%
%FSLAX25Y25*%
%IPPOS*%
%LPD*%
%AMOC8*
5,1,8,0,0,1.08239X$1,22.5*
%
%ADD10C,0.00000*%
%ADD11R,0.05906X0.05118*%
%ADD12R,0.05118X0.05906*%
%ADD13R,0.02362X0.08661*%
%ADD14C,0.06600*%
%ADD15C,0.13000*%
%ADD16R,0.07600X0.21000*%
%ADD17R,0.05512X0.04331*%
%ADD18C,0.06000*%
%ADD19C,0.08250*%
%ADD20R,0.06299X0.11811*%
%ADD21R,0.04724X0.04724*%
%ADD22C,0.01000*%
%ADD23C,0.04000*%
%ADD24C,0.01600*%
%ADD25C,0.02400*%
%ADD26C,0.01200*%
D10*
X0003000Y0003000D02*
X0003000Y0199850D01*
X0337646Y0199850D01*
X0337646Y0003000D01*
X0003000Y0003000D01*
X0011858Y0073866D02*
X0011860Y0074035D01*
X0011866Y0074204D01*
X0011877Y0074373D01*
X0011891Y0074541D01*
X0011910Y0074709D01*
X0011933Y0074877D01*
X0011959Y0075044D01*
X0011990Y0075210D01*
X0012025Y0075376D01*
X0012064Y0075540D01*
X0012108Y0075704D01*
X0012155Y0075866D01*
X0012206Y0076027D01*
X0012261Y0076187D01*
X0012320Y0076346D01*
X0012382Y0076503D01*
X0012449Y0076658D01*
X0012520Y0076812D01*
X0012594Y0076964D01*
X0012672Y0077114D01*
X0012753Y0077262D01*
X0012838Y0077408D01*
X0012927Y0077552D01*
X0013019Y0077694D01*
X0013115Y0077833D01*
X0013214Y0077970D01*
X0013316Y0078105D01*
X0013422Y0078237D01*
X0013531Y0078366D01*
X0013643Y0078493D01*
X0013758Y0078617D01*
X0013876Y0078738D01*
X0013997Y0078856D01*
X0014121Y0078971D01*
X0014248Y0079083D01*
X0014377Y0079192D01*
X0014509Y0079298D01*
X0014644Y0079400D01*
X0014781Y0079499D01*
X0014920Y0079595D01*
X0015062Y0079687D01*
X0015206Y0079776D01*
X0015352Y0079861D01*
X0015500Y0079942D01*
X0015650Y0080020D01*
X0015802Y0080094D01*
X0015956Y0080165D01*
X0016111Y0080232D01*
X0016268Y0080294D01*
X0016427Y0080353D01*
X0016587Y0080408D01*
X0016748Y0080459D01*
X0016910Y0080506D01*
X0017074Y0080550D01*
X0017238Y0080589D01*
X0017404Y0080624D01*
X0017570Y0080655D01*
X0017737Y0080681D01*
X0017905Y0080704D01*
X0018073Y0080723D01*
X0018241Y0080737D01*
X0018410Y0080748D01*
X0018579Y0080754D01*
X0018748Y0080756D01*
X0018917Y0080754D01*
X0019086Y0080748D01*
X0019255Y0080737D01*
X0019423Y0080723D01*
X0019591Y0080704D01*
X0019759Y0080681D01*
X0019926Y0080655D01*
X0020092Y0080624D01*
X0020258Y0080589D01*
X0020422Y0080550D01*
X0020586Y0080506D01*
X0020748Y0080459D01*
X0020909Y0080408D01*
X0021069Y0080353D01*
X0021228Y0080294D01*
X0021385Y0080232D01*
X0021540Y0080165D01*
X0021694Y0080094D01*
X0021846Y0080020D01*
X0021996Y0079942D01*
X0022144Y0079861D01*
X0022290Y0079776D01*
X0022434Y0079687D01*
X0022576Y0079595D01*
X0022715Y0079499D01*
X0022852Y0079400D01*
X0022987Y0079298D01*
X0023119Y0079192D01*
X0023248Y0079083D01*
X0023375Y0078971D01*
X0023499Y0078856D01*
X0023620Y0078738D01*
X0023738Y0078617D01*
X0023853Y0078493D01*
X0023965Y0078366D01*
X0024074Y0078237D01*
X0024180Y0078105D01*
X0024282Y0077970D01*
X0024381Y0077833D01*
X0024477Y0077694D01*
X0024569Y0077552D01*
X0024658Y0077408D01*
X0024743Y0077262D01*
X0024824Y0077114D01*
X0024902Y0076964D01*
X0024976Y0076812D01*
X0025047Y0076658D01*
X0025114Y0076503D01*
X0025176Y0076346D01*
X0025235Y0076187D01*
X0025290Y0076027D01*
X0025341Y0075866D01*
X0025388Y0075704D01*
X0025432Y0075540D01*
X0025471Y0075376D01*
X0025506Y0075210D01*
X0025537Y0075044D01*
X0025563Y0074877D01*
X0025586Y0074709D01*
X0025605Y0074541D01*
X0025619Y0074373D01*
X0025630Y0074204D01*
X0025636Y0074035D01*
X0025638Y0073866D01*
X0025636Y0073697D01*
X0025630Y0073528D01*
X0025619Y0073359D01*
X0025605Y0073191D01*
X0025586Y0073023D01*
X0025563Y0072855D01*
X0025537Y0072688D01*
X0025506Y0072522D01*
X0025471Y0072356D01*
X0025432Y0072192D01*
X0025388Y0072028D01*
X0025341Y0071866D01*
X0025290Y0071705D01*
X0025235Y0071545D01*
X0025176Y0071386D01*
X0025114Y0071229D01*
X0025047Y0071074D01*
X0024976Y0070920D01*
X0024902Y0070768D01*
X0024824Y0070618D01*
X0024743Y0070470D01*
X0024658Y0070324D01*
X0024569Y0070180D01*
X0024477Y0070038D01*
X0024381Y0069899D01*
X0024282Y0069762D01*
X0024180Y0069627D01*
X0024074Y0069495D01*
X0023965Y0069366D01*
X0023853Y0069239D01*
X0023738Y0069115D01*
X0023620Y0068994D01*
X0023499Y0068876D01*
X0023375Y0068761D01*
X0023248Y0068649D01*
X0023119Y0068540D01*
X0022987Y0068434D01*
X0022852Y0068332D01*
X0022715Y0068233D01*
X0022576Y0068137D01*
X0022434Y0068045D01*
X0022290Y0067956D01*
X0022144Y0067871D01*
X0021996Y0067790D01*
X0021846Y0067712D01*
X0021694Y0067638D01*
X0021540Y0067567D01*
X0021385Y0067500D01*
X0021228Y0067438D01*
X0021069Y0067379D01*
X0020909Y0067324D01*
X0020748Y0067273D01*
X0020586Y0067226D01*
X0020422Y0067182D01*
X0020258Y0067143D01*
X0020092Y0067108D01*
X0019926Y0067077D01*
X0019759Y0067051D01*
X0019591Y0067028D01*
X0019423Y0067009D01*
X0019255Y0066995D01*
X0019086Y0066984D01*
X0018917Y0066978D01*
X0018748Y0066976D01*
X0018579Y0066978D01*
X0018410Y0066984D01*
X0018241Y0066995D01*
X0018073Y0067009D01*
X0017905Y0067028D01*
X0017737Y0067051D01*
X0017570Y0067077D01*
X0017404Y0067108D01*
X0017238Y0067143D01*
X0017074Y0067182D01*
X0016910Y0067226D01*
X0016748Y0067273D01*
X0016587Y0067324D01*
X0016427Y0067379D01*
X0016268Y0067438D01*
X0016111Y0067500D01*
X0015956Y0067567D01*
X0015802Y0067638D01*
X0015650Y0067712D01*
X0015500Y0067790D01*
X0015352Y0067871D01*
X0015206Y0067956D01*
X0015062Y0068045D01*
X0014920Y0068137D01*
X0014781Y0068233D01*
X0014644Y0068332D01*
X0014509Y0068434D01*
X0014377Y0068540D01*
X0014248Y0068649D01*
X0014121Y0068761D01*
X0013997Y0068876D01*
X0013876Y0068994D01*
X0013758Y0069115D01*
X0013643Y0069239D01*
X0013531Y0069366D01*
X0013422Y0069495D01*
X0013316Y0069627D01*
X0013214Y0069762D01*
X0013115Y0069899D01*
X0013019Y0070038D01*
X0012927Y0070180D01*
X0012838Y0070324D01*
X0012753Y0070470D01*
X0012672Y0070618D01*
X0012594Y0070768D01*
X0012520Y0070920D01*
X0012449Y0071074D01*
X0012382Y0071229D01*
X0012320Y0071386D01*
X0012261Y0071545D01*
X0012206Y0071705D01*
X0012155Y0071866D01*
X0012108Y0072028D01*
X0012064Y0072192D01*
X0012025Y0072356D01*
X0011990Y0072522D01*
X0011959Y0072688D01*
X0011933Y0072855D01*
X0011910Y0073023D01*
X0011891Y0073191D01*
X0011877Y0073359D01*
X0011866Y0073528D01*
X0011860Y0073697D01*
X0011858Y0073866D01*
X0011858Y0128984D02*
X0011860Y0129153D01*
X0011866Y0129322D01*
X0011877Y0129491D01*
X0011891Y0129659D01*
X0011910Y0129827D01*
X0011933Y0129995D01*
X0011959Y0130162D01*
X0011990Y0130328D01*
X0012025Y0130494D01*
X0012064Y0130658D01*
X0012108Y0130822D01*
X0012155Y0130984D01*
X0012206Y0131145D01*
X0012261Y0131305D01*
X0012320Y0131464D01*
X0012382Y0131621D01*
X0012449Y0131776D01*
X0012520Y0131930D01*
X0012594Y0132082D01*
X0012672Y0132232D01*
X0012753Y0132380D01*
X0012838Y0132526D01*
X0012927Y0132670D01*
X0013019Y0132812D01*
X0013115Y0132951D01*
X0013214Y0133088D01*
X0013316Y0133223D01*
X0013422Y0133355D01*
X0013531Y0133484D01*
X0013643Y0133611D01*
X0013758Y0133735D01*
X0013876Y0133856D01*
X0013997Y0133974D01*
X0014121Y0134089D01*
X0014248Y0134201D01*
X0014377Y0134310D01*
X0014509Y0134416D01*
X0014644Y0134518D01*
X0014781Y0134617D01*
X0014920Y0134713D01*
X0015062Y0134805D01*
X0015206Y0134894D01*
X0015352Y0134979D01*
X0015500Y0135060D01*
X0015650Y0135138D01*
X0015802Y0135212D01*
X0015956Y0135283D01*
X0016111Y0135350D01*
X0016268Y0135412D01*
X0016427Y0135471D01*
X0016587Y0135526D01*
X0016748Y0135577D01*
X0016910Y0135624D01*
X0017074Y0135668D01*
X0017238Y0135707D01*
X0017404Y0135742D01*
X0017570Y0135773D01*
X0017737Y0135799D01*
X0017905Y0135822D01*
X0018073Y0135841D01*
X0018241Y0135855D01*
X0018410Y0135866D01*
X0018579Y0135872D01*
X0018748Y0135874D01*
X0018917Y0135872D01*
X0019086Y0135866D01*
X0019255Y0135855D01*
X0019423Y0135841D01*
X0019591Y0135822D01*
X0019759Y0135799D01*
X0019926Y0135773D01*
X0020092Y0135742D01*
X0020258Y0135707D01*
X0020422Y0135668D01*
X0020586Y0135624D01*
X0020748Y0135577D01*
X0020909Y0135526D01*
X0021069Y0135471D01*
X0021228Y0135412D01*
X0021385Y0135350D01*
X0021540Y0135283D01*
X0021694Y0135212D01*
X0021846Y0135138D01*
X0021996Y0135060D01*
X0022144Y0134979D01*
X0022290Y0134894D01*
X0022434Y0134805D01*
X0022576Y0134713D01*
X0022715Y0134617D01*
X0022852Y0134518D01*
X0022987Y0134416D01*
X0023119Y0134310D01*
X0023248Y0134201D01*
X0023375Y0134089D01*
X0023499Y0133974D01*
X0023620Y0133856D01*
X0023738Y0133735D01*
X0023853Y0133611D01*
X0023965Y0133484D01*
X0024074Y0133355D01*
X0024180Y0133223D01*
X0024282Y0133088D01*
X0024381Y0132951D01*
X0024477Y0132812D01*
X0024569Y0132670D01*
X0024658Y0132526D01*
X0024743Y0132380D01*
X0024824Y0132232D01*
X0024902Y0132082D01*
X0024976Y0131930D01*
X0025047Y0131776D01*
X0025114Y0131621D01*
X0025176Y0131464D01*
X0025235Y0131305D01*
X0025290Y0131145D01*
X0025341Y0130984D01*
X0025388Y0130822D01*
X0025432Y0130658D01*
X0025471Y0130494D01*
X0025506Y0130328D01*
X0025537Y0130162D01*
X0025563Y0129995D01*
X0025586Y0129827D01*
X0025605Y0129659D01*
X0025619Y0129491D01*
X0025630Y0129322D01*
X0025636Y0129153D01*
X0025638Y0128984D01*
X0025636Y0128815D01*
X0025630Y0128646D01*
X0025619Y0128477D01*
X0025605Y0128309D01*
X0025586Y0128141D01*
X0025563Y0127973D01*
X0025537Y0127806D01*
X0025506Y0127640D01*
X0025471Y0127474D01*
X0025432Y0127310D01*
X0025388Y0127146D01*
X0025341Y0126984D01*
X0025290Y0126823D01*
X0025235Y0126663D01*
X0025176Y0126504D01*
X0025114Y0126347D01*
X0025047Y0126192D01*
X0024976Y0126038D01*
X0024902Y0125886D01*
X0024824Y0125736D01*
X0024743Y0125588D01*
X0024658Y0125442D01*
X0024569Y0125298D01*
X0024477Y0125156D01*
X0024381Y0125017D01*
X0024282Y0124880D01*
X0024180Y0124745D01*
X0024074Y0124613D01*
X0023965Y0124484D01*
X0023853Y0124357D01*
X0023738Y0124233D01*
X0023620Y0124112D01*
X0023499Y0123994D01*
X0023375Y0123879D01*
X0023248Y0123767D01*
X0023119Y0123658D01*
X0022987Y0123552D01*
X0022852Y0123450D01*
X0022715Y0123351D01*
X0022576Y0123255D01*
X0022434Y0123163D01*
X0022290Y0123074D01*
X0022144Y0122989D01*
X0021996Y0122908D01*
X0021846Y0122830D01*
X0021694Y0122756D01*
X0021540Y0122685D01*
X0021385Y0122618D01*
X0021228Y0122556D01*
X0021069Y0122497D01*
X0020909Y0122442D01*
X0020748Y0122391D01*
X0020586Y0122344D01*
X0020422Y0122300D01*
X0020258Y0122261D01*
X0020092Y0122226D01*
X0019926Y0122195D01*
X0019759Y0122169D01*
X0019591Y0122146D01*
X0019423Y0122127D01*
X0019255Y0122113D01*
X0019086Y0122102D01*
X0018917Y0122096D01*
X0018748Y0122094D01*
X0018579Y0122096D01*
X0018410Y0122102D01*
X0018241Y0122113D01*
X0018073Y0122127D01*
X0017905Y0122146D01*
X0017737Y0122169D01*
X0017570Y0122195D01*
X0017404Y0122226D01*
X0017238Y0122261D01*
X0017074Y0122300D01*
X0016910Y0122344D01*
X0016748Y0122391D01*
X0016587Y0122442D01*
X0016427Y0122497D01*
X0016268Y0122556D01*
X0016111Y0122618D01*
X0015956Y0122685D01*
X0015802Y0122756D01*
X0015650Y0122830D01*
X0015500Y0122908D01*
X0015352Y0122989D01*
X0015206Y0123074D01*
X0015062Y0123163D01*
X0014920Y0123255D01*
X0014781Y0123351D01*
X0014644Y0123450D01*
X0014509Y0123552D01*
X0014377Y0123658D01*
X0014248Y0123767D01*
X0014121Y0123879D01*
X0013997Y0123994D01*
X0013876Y0124112D01*
X0013758Y0124233D01*
X0013643Y0124357D01*
X0013531Y0124484D01*
X0013422Y0124613D01*
X0013316Y0124745D01*
X0013214Y0124880D01*
X0013115Y0125017D01*
X0013019Y0125156D01*
X0012927Y0125298D01*
X0012838Y0125442D01*
X0012753Y0125588D01*
X0012672Y0125736D01*
X0012594Y0125886D01*
X0012520Y0126038D01*
X0012449Y0126192D01*
X0012382Y0126347D01*
X0012320Y0126504D01*
X0012261Y0126663D01*
X0012206Y0126823D01*
X0012155Y0126984D01*
X0012108Y0127146D01*
X0012064Y0127310D01*
X0012025Y0127474D01*
X0011990Y0127640D01*
X0011959Y0127806D01*
X0011933Y0127973D01*
X0011910Y0128141D01*
X0011891Y0128309D01*
X0011877Y0128477D01*
X0011866Y0128646D01*
X0011860Y0128815D01*
X0011858Y0128984D01*
X0291386Y0128984D02*
X0291388Y0129153D01*
X0291394Y0129322D01*
X0291405Y0129491D01*
X0291419Y0129659D01*
X0291438Y0129827D01*
X0291461Y0129995D01*
X0291487Y0130162D01*
X0291518Y0130328D01*
X0291553Y0130494D01*
X0291592Y0130658D01*
X0291636Y0130822D01*
X0291683Y0130984D01*
X0291734Y0131145D01*
X0291789Y0131305D01*
X0291848Y0131464D01*
X0291910Y0131621D01*
X0291977Y0131776D01*
X0292048Y0131930D01*
X0292122Y0132082D01*
X0292200Y0132232D01*
X0292281Y0132380D01*
X0292366Y0132526D01*
X0292455Y0132670D01*
X0292547Y0132812D01*
X0292643Y0132951D01*
X0292742Y0133088D01*
X0292844Y0133223D01*
X0292950Y0133355D01*
X0293059Y0133484D01*
X0293171Y0133611D01*
X0293286Y0133735D01*
X0293404Y0133856D01*
X0293525Y0133974D01*
X0293649Y0134089D01*
X0293776Y0134201D01*
X0293905Y0134310D01*
X0294037Y0134416D01*
X0294172Y0134518D01*
X0294309Y0134617D01*
X0294448Y0134713D01*
X0294590Y0134805D01*
X0294734Y0134894D01*
X0294880Y0134979D01*
X0295028Y0135060D01*
X0295178Y0135138D01*
X0295330Y0135212D01*
X0295484Y0135283D01*
X0295639Y0135350D01*
X0295796Y0135412D01*
X0295955Y0135471D01*
X0296115Y0135526D01*
X0296276Y0135577D01*
X0296438Y0135624D01*
X0296602Y0135668D01*
X0296766Y0135707D01*
X0296932Y0135742D01*
X0297098Y0135773D01*
X0297265Y0135799D01*
X0297433Y0135822D01*
X0297601Y0135841D01*
X0297769Y0135855D01*
X0297938Y0135866D01*
X0298107Y0135872D01*
X0298276Y0135874D01*
X0298445Y0135872D01*
X0298614Y0135866D01*
X0298783Y0135855D01*
X0298951Y0135841D01*
X0299119Y0135822D01*
X0299287Y0135799D01*
X0299454Y0135773D01*
X0299620Y0135742D01*
X0299786Y0135707D01*
X0299950Y0135668D01*
X0300114Y0135624D01*
X0300276Y0135577D01*
X0300437Y0135526D01*
X0300597Y0135471D01*
X0300756Y0135412D01*
X0300913Y0135350D01*
X0301068Y0135283D01*
X0301222Y0135212D01*
X0301374Y0135138D01*
X0301524Y0135060D01*
X0301672Y0134979D01*
X0301818Y0134894D01*
X0301962Y0134805D01*
X0302104Y0134713D01*
X0302243Y0134617D01*
X0302380Y0134518D01*
X0302515Y0134416D01*
X0302647Y0134310D01*
X0302776Y0134201D01*
X0302903Y0134089D01*
X0303027Y0133974D01*
X0303148Y0133856D01*
X0303266Y0133735D01*
X0303381Y0133611D01*
X0303493Y0133484D01*
X0303602Y0133355D01*
X0303708Y0133223D01*
X0303810Y0133088D01*
X0303909Y0132951D01*
X0304005Y0132812D01*
X0304097Y0132670D01*
X0304186Y0132526D01*
X0304271Y0132380D01*
X0304352Y0132232D01*
X0304430Y0132082D01*
X0304504Y0131930D01*
X0304575Y0131776D01*
X0304642Y0131621D01*
X0304704Y0131464D01*
X0304763Y0131305D01*
X0304818Y0131145D01*
X0304869Y0130984D01*
X0304916Y0130822D01*
X0304960Y0130658D01*
X0304999Y0130494D01*
X0305034Y0130328D01*
X0305065Y0130162D01*
X0305091Y0129995D01*
X0305114Y0129827D01*
X0305133Y0129659D01*
X0305147Y0129491D01*
X0305158Y0129322D01*
X0305164Y0129153D01*
X0305166Y0128984D01*
X0305164Y0128815D01*
X0305158Y0128646D01*
X0305147Y0128477D01*
X0305133Y0128309D01*
X0305114Y0128141D01*
X0305091Y0127973D01*
X0305065Y0127806D01*
X0305034Y0127640D01*
X0304999Y0127474D01*
X0304960Y0127310D01*
X0304916Y0127146D01*
X0304869Y0126984D01*
X0304818Y0126823D01*
X0304763Y0126663D01*
X0304704Y0126504D01*
X0304642Y0126347D01*
X0304575Y0126192D01*
X0304504Y0126038D01*
X0304430Y0125886D01*
X0304352Y0125736D01*
X0304271Y0125588D01*
X0304186Y0125442D01*
X0304097Y0125298D01*
X0304005Y0125156D01*
X0303909Y0125017D01*
X0303810Y0124880D01*
X0303708Y0124745D01*
X0303602Y0124613D01*
X0303493Y0124484D01*
X0303381Y0124357D01*
X0303266Y0124233D01*
X0303148Y0124112D01*
X0303027Y0123994D01*
X0302903Y0123879D01*
X0302776Y0123767D01*
X0302647Y0123658D01*
X0302515Y0123552D01*
X0302380Y0123450D01*
X0302243Y0123351D01*
X0302104Y0123255D01*
X0301962Y0123163D01*
X0301818Y0123074D01*
X0301672Y0122989D01*
X0301524Y0122908D01*
X0301374Y0122830D01*
X0301222Y0122756D01*
X0301068Y0122685D01*
X0300913Y0122618D01*
X0300756Y0122556D01*
X0300597Y0122497D01*
X0300437Y0122442D01*
X0300276Y0122391D01*
X0300114Y0122344D01*
X0299950Y0122300D01*
X0299786Y0122261D01*
X0299620Y0122226D01*
X0299454Y0122195D01*
X0299287Y0122169D01*
X0299119Y0122146D01*
X0298951Y0122127D01*
X0298783Y0122113D01*
X0298614Y0122102D01*
X0298445Y0122096D01*
X0298276Y0122094D01*
X0298107Y0122096D01*
X0297938Y0122102D01*
X0297769Y0122113D01*
X0297601Y0122127D01*
X0297433Y0122146D01*
X0297265Y0122169D01*
X0297098Y0122195D01*
X0296932Y0122226D01*
X0296766Y0122261D01*
X0296602Y0122300D01*
X0296438Y0122344D01*
X0296276Y0122391D01*
X0296115Y0122442D01*
X0295955Y0122497D01*
X0295796Y0122556D01*
X0295639Y0122618D01*
X0295484Y0122685D01*
X0295330Y0122756D01*
X0295178Y0122830D01*
X0295028Y0122908D01*
X0294880Y0122989D01*
X0294734Y0123074D01*
X0294590Y0123163D01*
X0294448Y0123255D01*
X0294309Y0123351D01*
X0294172Y0123450D01*
X0294037Y0123552D01*
X0293905Y0123658D01*
X0293776Y0123767D01*
X0293649Y0123879D01*
X0293525Y0123994D01*
X0293404Y0124112D01*
X0293286Y0124233D01*
X0293171Y0124357D01*
X0293059Y0124484D01*
X0292950Y0124613D01*
X0292844Y0124745D01*
X0292742Y0124880D01*
X0292643Y0125017D01*
X0292547Y0125156D01*
X0292455Y0125298D01*
X0292366Y0125442D01*
X0292281Y0125588D01*
X0292200Y0125736D01*
X0292122Y0125886D01*
X0292048Y0126038D01*
X0291977Y0126192D01*
X0291910Y0126347D01*
X0291848Y0126504D01*
X0291789Y0126663D01*
X0291734Y0126823D01*
X0291683Y0126984D01*
X0291636Y0127146D01*
X0291592Y0127310D01*
X0291553Y0127474D01*
X0291518Y0127640D01*
X0291487Y0127806D01*
X0291461Y0127973D01*
X0291438Y0128141D01*
X0291419Y0128309D01*
X0291405Y0128477D01*
X0291394Y0128646D01*
X0291388Y0128815D01*
X0291386Y0128984D01*
X0291386Y0026622D02*
X0291388Y0026791D01*
X0291394Y0026960D01*
X0291405Y0027129D01*
X0291419Y0027297D01*
X0291438Y0027465D01*
X0291461Y0027633D01*
X0291487Y0027800D01*
X0291518Y0027966D01*
X0291553Y0028132D01*
X0291592Y0028296D01*
X0291636Y0028460D01*
X0291683Y0028622D01*
X0291734Y0028783D01*
X0291789Y0028943D01*
X0291848Y0029102D01*
X0291910Y0029259D01*
X0291977Y0029414D01*
X0292048Y0029568D01*
X0292122Y0029720D01*
X0292200Y0029870D01*
X0292281Y0030018D01*
X0292366Y0030164D01*
X0292455Y0030308D01*
X0292547Y0030450D01*
X0292643Y0030589D01*
X0292742Y0030726D01*
X0292844Y0030861D01*
X0292950Y0030993D01*
X0293059Y0031122D01*
X0293171Y0031249D01*
X0293286Y0031373D01*
X0293404Y0031494D01*
X0293525Y0031612D01*
X0293649Y0031727D01*
X0293776Y0031839D01*
X0293905Y0031948D01*
X0294037Y0032054D01*
X0294172Y0032156D01*
X0294309Y0032255D01*
X0294448Y0032351D01*
X0294590Y0032443D01*
X0294734Y0032532D01*
X0294880Y0032617D01*
X0295028Y0032698D01*
X0295178Y0032776D01*
X0295330Y0032850D01*
X0295484Y0032921D01*
X0295639Y0032988D01*
X0295796Y0033050D01*
X0295955Y0033109D01*
X0296115Y0033164D01*
X0296276Y0033215D01*
X0296438Y0033262D01*
X0296602Y0033306D01*
X0296766Y0033345D01*
X0296932Y0033380D01*
X0297098Y0033411D01*
X0297265Y0033437D01*
X0297433Y0033460D01*
X0297601Y0033479D01*
X0297769Y0033493D01*
X0297938Y0033504D01*
X0298107Y0033510D01*
X0298276Y0033512D01*
X0298445Y0033510D01*
X0298614Y0033504D01*
X0298783Y0033493D01*
X0298951Y0033479D01*
X0299119Y0033460D01*
X0299287Y0033437D01*
X0299454Y0033411D01*
X0299620Y0033380D01*
X0299786Y0033345D01*
X0299950Y0033306D01*
X0300114Y0033262D01*
X0300276Y0033215D01*
X0300437Y0033164D01*
X0300597Y0033109D01*
X0300756Y0033050D01*
X0300913Y0032988D01*
X0301068Y0032921D01*
X0301222Y0032850D01*
X0301374Y0032776D01*
X0301524Y0032698D01*
X0301672Y0032617D01*
X0301818Y0032532D01*
X0301962Y0032443D01*
X0302104Y0032351D01*
X0302243Y0032255D01*
X0302380Y0032156D01*
X0302515Y0032054D01*
X0302647Y0031948D01*
X0302776Y0031839D01*
X0302903Y0031727D01*
X0303027Y0031612D01*
X0303148Y0031494D01*
X0303266Y0031373D01*
X0303381Y0031249D01*
X0303493Y0031122D01*
X0303602Y0030993D01*
X0303708Y0030861D01*
X0303810Y0030726D01*
X0303909Y0030589D01*
X0304005Y0030450D01*
X0304097Y0030308D01*
X0304186Y0030164D01*
X0304271Y0030018D01*
X0304352Y0029870D01*
X0304430Y0029720D01*
X0304504Y0029568D01*
X0304575Y0029414D01*
X0304642Y0029259D01*
X0304704Y0029102D01*
X0304763Y0028943D01*
X0304818Y0028783D01*
X0304869Y0028622D01*
X0304916Y0028460D01*
X0304960Y0028296D01*
X0304999Y0028132D01*
X0305034Y0027966D01*
X0305065Y0027800D01*
X0305091Y0027633D01*
X0305114Y0027465D01*
X0305133Y0027297D01*
X0305147Y0027129D01*
X0305158Y0026960D01*
X0305164Y0026791D01*
X0305166Y0026622D01*
X0305164Y0026453D01*
X0305158Y0026284D01*
X0305147Y0026115D01*
X0305133Y0025947D01*
X0305114Y0025779D01*
X0305091Y0025611D01*
X0305065Y0025444D01*
X0305034Y0025278D01*
X0304999Y0025112D01*
X0304960Y0024948D01*
X0304916Y0024784D01*
X0304869Y0024622D01*
X0304818Y0024461D01*
X0304763Y0024301D01*
X0304704Y0024142D01*
X0304642Y0023985D01*
X0304575Y0023830D01*
X0304504Y0023676D01*
X0304430Y0023524D01*
X0304352Y0023374D01*
X0304271Y0023226D01*
X0304186Y0023080D01*
X0304097Y0022936D01*
X0304005Y0022794D01*
X0303909Y0022655D01*
X0303810Y0022518D01*
X0303708Y0022383D01*
X0303602Y0022251D01*
X0303493Y0022122D01*
X0303381Y0021995D01*
X0303266Y0021871D01*
X0303148Y0021750D01*
X0303027Y0021632D01*
X0302903Y0021517D01*
X0302776Y0021405D01*
X0302647Y0021296D01*
X0302515Y0021190D01*
X0302380Y0021088D01*
X0302243Y0020989D01*
X0302104Y0020893D01*
X0301962Y0020801D01*
X0301818Y0020712D01*
X0301672Y0020627D01*
X0301524Y0020546D01*
X0301374Y0020468D01*
X0301222Y0020394D01*
X0301068Y0020323D01*
X0300913Y0020256D01*
X0300756Y0020194D01*
X0300597Y0020135D01*
X0300437Y0020080D01*
X0300276Y0020029D01*
X0300114Y0019982D01*
X0299950Y0019938D01*
X0299786Y0019899D01*
X0299620Y0019864D01*
X0299454Y0019833D01*
X0299287Y0019807D01*
X0299119Y0019784D01*
X0298951Y0019765D01*
X0298783Y0019751D01*
X0298614Y0019740D01*
X0298445Y0019734D01*
X0298276Y0019732D01*
X0298107Y0019734D01*
X0297938Y0019740D01*
X0297769Y0019751D01*
X0297601Y0019765D01*
X0297433Y0019784D01*
X0297265Y0019807D01*
X0297098Y0019833D01*
X0296932Y0019864D01*
X0296766Y0019899D01*
X0296602Y0019938D01*
X0296438Y0019982D01*
X0296276Y0020029D01*
X0296115Y0020080D01*
X0295955Y0020135D01*
X0295796Y0020194D01*
X0295639Y0020256D01*
X0295484Y0020323D01*
X0295330Y0020394D01*
X0295178Y0020468D01*
X0295028Y0020546D01*
X0294880Y0020627D01*
X0294734Y0020712D01*
X0294590Y0020801D01*
X0294448Y0020893D01*
X0294309Y0020989D01*
X0294172Y0021088D01*
X0294037Y0021190D01*
X0293905Y0021296D01*
X0293776Y0021405D01*
X0293649Y0021517D01*
X0293525Y0021632D01*
X0293404Y0021750D01*
X0293286Y0021871D01*
X0293171Y0021995D01*
X0293059Y0022122D01*
X0292950Y0022251D01*
X0292844Y0022383D01*
X0292742Y0022518D01*
X0292643Y0022655D01*
X0292547Y0022794D01*
X0292455Y0022936D01*
X0292366Y0023080D01*
X0292281Y0023226D01*
X0292200Y0023374D01*
X0292122Y0023524D01*
X0292048Y0023676D01*
X0291977Y0023830D01*
X0291910Y0023985D01*
X0291848Y0024142D01*
X0291789Y0024301D01*
X0291734Y0024461D01*
X0291683Y0024622D01*
X0291636Y0024784D01*
X0291592Y0024948D01*
X0291553Y0025112D01*
X0291518Y0025278D01*
X0291487Y0025444D01*
X0291461Y0025611D01*
X0291438Y0025779D01*
X0291419Y0025947D01*
X0291405Y0026115D01*
X0291394Y0026284D01*
X0291388Y0026453D01*
X0291386Y0026622D01*
D11*
X0261583Y0121701D03*
X0261583Y0128394D03*
X0084142Y0108709D03*
X0084142Y0102016D03*
D12*
X0077213Y0082567D03*
X0070520Y0082567D03*
X0070520Y0127252D03*
X0077213Y0127252D03*
D13*
X0100579Y0124299D03*
X0105579Y0124299D03*
X0110579Y0124299D03*
X0115579Y0124299D03*
X0120579Y0124299D03*
X0125579Y0124299D03*
X0130579Y0124299D03*
X0135579Y0124299D03*
X0140579Y0124299D03*
X0145579Y0124299D03*
X0150579Y0124299D03*
X0155579Y0124299D03*
X0160579Y0124299D03*
X0165579Y0124299D03*
X0165579Y0088079D03*
X0160579Y0088079D03*
X0155579Y0088079D03*
X0150579Y0088079D03*
X0145579Y0088079D03*
X0140579Y0088079D03*
X0135579Y0088079D03*
X0130579Y0088079D03*
X0125579Y0088079D03*
X0120579Y0088079D03*
X0115579Y0088079D03*
X0110579Y0088079D03*
X0105579Y0088079D03*
X0100579Y0088079D03*
D14*
X0280869Y0081189D03*
X0288669Y0081189D03*
X0288669Y0071346D03*
X0280869Y0071346D03*
D15*
X0299369Y0052568D03*
X0299369Y0099968D03*
D16*
X0047134Y0085890D03*
X0047134Y0123890D03*
D17*
X0069693Y0109299D03*
X0069693Y0101425D03*
X0203276Y0121110D03*
X0203276Y0128984D03*
X0217646Y0128984D03*
X0217646Y0121110D03*
X0232016Y0121110D03*
X0232016Y0128984D03*
X0246780Y0128984D03*
X0246780Y0121110D03*
X0276425Y0121110D03*
X0276425Y0128984D03*
D18*
X0255638Y0079654D03*
X0245638Y0079654D03*
X0235638Y0079654D03*
X0225638Y0079654D03*
X0215638Y0079654D03*
D19*
X0220126Y0038621D02*
X0220126Y0030371D01*
X0239811Y0030371D02*
X0239811Y0038621D01*
X0200441Y0038621D02*
X0200441Y0030371D01*
X0180598Y0030371D02*
X0180598Y0038621D01*
X0160913Y0038621D02*
X0160913Y0030371D01*
X0141228Y0030371D02*
X0141228Y0038621D01*
X0121386Y0038621D02*
X0121386Y0030371D01*
X0101701Y0030371D02*
X0101701Y0038621D01*
X0082016Y0038621D02*
X0082016Y0030371D01*
X0062646Y0030371D02*
X0062646Y0038621D01*
X0042961Y0038621D02*
X0042961Y0030371D01*
X0023276Y0030371D02*
X0023276Y0038621D01*
X0023433Y0162930D02*
X0023433Y0171180D01*
X0043433Y0171180D02*
X0043433Y0162930D01*
X0062882Y0162930D02*
X0062882Y0171180D01*
X0082882Y0171180D02*
X0082882Y0162930D01*
X0102331Y0162930D02*
X0102331Y0171180D01*
X0122331Y0171180D02*
X0122331Y0162930D01*
X0141583Y0162930D02*
X0141583Y0171180D01*
X0161583Y0171180D02*
X0161583Y0162930D01*
X0180953Y0162930D02*
X0180953Y0171180D01*
X0200953Y0171180D02*
X0200953Y0162930D01*
X0220520Y0162930D02*
X0220520Y0171180D01*
X0240520Y0171180D02*
X0240520Y0162930D01*
X0259693Y0162930D02*
X0259693Y0171180D01*
X0279693Y0171180D02*
X0279693Y0162930D01*
X0299063Y0162930D02*
X0299063Y0171180D01*
X0319063Y0171180D02*
X0319063Y0162930D01*
D20*
X0188039Y0107409D03*
X0188039Y0090087D03*
D21*
X0327606Y0114220D03*
X0327606Y0122488D03*
D22*
X0327606Y0114220D02*
X0327000Y0113700D01*
X0278400Y0128100D02*
X0276600Y0128100D01*
X0276425Y0128984D01*
X0275700Y0121800D02*
X0276425Y0121110D01*
X0276600Y0120900D01*
X0262200Y0120900D02*
X0261583Y0121701D01*
X0261300Y0121800D01*
X0261583Y0128394D02*
X0262200Y0129000D01*
X0246900Y0129000D02*
X0246780Y0128984D01*
X0246900Y0121800D02*
X0246780Y0121110D01*
X0246000Y0120900D01*
X0232500Y0120900D02*
X0232016Y0121110D01*
X0231600Y0120900D01*
X0218100Y0120900D02*
X0217646Y0121110D01*
X0217200Y0120900D01*
X0203700Y0120900D02*
X0203276Y0121110D01*
X0203276Y0128984D02*
X0202800Y0129000D01*
X0232016Y0128984D02*
X0232500Y0129000D01*
X0188400Y0107400D02*
X0188039Y0107409D01*
X0187500Y0108300D01*
X0181200Y0102900D02*
X0186600Y0097500D01*
X0192000Y0097500D01*
X0210900Y0078600D01*
X0210900Y0077700D01*
X0213600Y0075000D01*
X0220800Y0075000D01*
X0225300Y0079500D01*
X0225638Y0079654D01*
X0238800Y0073200D02*
X0245100Y0079500D01*
X0245638Y0079654D01*
X0238800Y0073200D02*
X0192000Y0073200D01*
X0164100Y0101100D01*
X0120900Y0101100D01*
X0101100Y0120900D01*
X0101100Y0123600D01*
X0100579Y0124299D01*
X0105579Y0124299D02*
X0105600Y0123600D01*
X0105600Y0121800D01*
X0124500Y0102900D01*
X0181200Y0102900D01*
X0165000Y0091200D02*
X0165000Y0088500D01*
X0165579Y0088079D01*
X0165000Y0091200D02*
X0160500Y0095700D01*
X0120900Y0095700D01*
X0109200Y0099300D02*
X0101100Y0091200D01*
X0101100Y0088500D01*
X0100579Y0088079D01*
X0100200Y0087600D02*
X0100200Y0084000D01*
X0120579Y0088079D02*
X0120900Y0087600D01*
X0135300Y0087600D02*
X0135579Y0088079D01*
X0139800Y0087600D02*
X0140579Y0088079D01*
X0162300Y0099300D02*
X0109200Y0099300D01*
X0084142Y0102016D02*
X0083100Y0101100D01*
X0084000Y0102000D01*
X0084142Y0102016D01*
X0084900Y0108300D02*
X0084142Y0108709D01*
X0069693Y0109299D02*
X0069600Y0109200D01*
X0050700Y0127200D02*
X0048000Y0124500D01*
X0047134Y0123890D01*
X0050700Y0127200D02*
X0070500Y0127200D01*
X0070520Y0127252D01*
X0077213Y0127252D02*
X0077700Y0127200D01*
X0120000Y0124500D02*
X0120579Y0124299D01*
X0125579Y0124299D02*
X0126300Y0124500D01*
X0129900Y0124500D02*
X0130579Y0124299D01*
X0135579Y0124299D02*
X0136200Y0124500D01*
X0140579Y0124299D02*
X0140700Y0123600D01*
X0145579Y0124299D02*
X0146100Y0123600D01*
X0146100Y0120900D01*
X0149700Y0124500D02*
X0150579Y0124299D01*
X0165579Y0124299D02*
X0165900Y0123600D01*
X0162300Y0099300D02*
X0192000Y0069600D01*
X0225300Y0069600D01*
X0188039Y0090087D02*
X0187500Y0090300D01*
X0077700Y0083100D02*
X0077213Y0082567D01*
X0076800Y0082200D01*
X0071400Y0082200D02*
X0070520Y0082567D01*
X0070500Y0083100D01*
X0048000Y0085800D02*
X0047134Y0085890D01*
X0161400Y0166800D02*
X0161583Y0167055D01*
D23*
X0149700Y0149700D03*
X0136200Y0141600D03*
X0126300Y0131700D03*
X0108300Y0108300D03*
X0120900Y0095700D03*
X0140700Y0106500D03*
X0180300Y0090300D03*
X0137100Y0076800D03*
X0156900Y0045300D03*
X0225300Y0069600D03*
X0162646Y0139024D03*
X0073200Y0076800D03*
X0076800Y0066000D03*
D24*
X0076800Y0071288D01*
X0079575Y0074063D01*
X0079575Y0080205D01*
X0077213Y0082567D01*
X0077700Y0083100D02*
X0077700Y0087739D01*
X0084299Y0094339D01*
X0084299Y0101858D01*
X0084142Y0102016D01*
X0083157Y0101031D01*
X0079181Y0101031D01*
X0077700Y0102513D01*
X0077700Y0127200D01*
X0069600Y0109200D02*
X0039121Y0109200D01*
X0037252Y0107331D01*
X0037252Y0053000D01*
X0030559Y0046307D01*
X0023079Y0046307D01*
X0022685Y0045913D01*
X0022685Y0035087D01*
X0023276Y0034496D01*
X0022882Y0034102D01*
X0022882Y0023472D01*
X0027409Y0018945D01*
X0072291Y0018945D01*
X0082200Y0028854D01*
X0082200Y0034312D01*
X0082016Y0034496D01*
X0101701Y0034496D02*
X0101701Y0036150D01*
X0110087Y0044535D01*
X0110087Y0087587D01*
X0110579Y0088079D01*
X0105579Y0088079D02*
X0105559Y0088059D01*
X0105559Y0056150D01*
X0097488Y0048079D01*
X0052016Y0048079D01*
X0042961Y0039024D01*
X0042961Y0034496D01*
X0030756Y0051425D02*
X0014024Y0051425D01*
X0010480Y0047882D01*
X0010480Y0023472D01*
X0018945Y0015008D01*
X0166976Y0015008D01*
X0171701Y0019732D01*
X0171701Y0048472D01*
X0145579Y0074594D01*
X0145579Y0088079D01*
X0135677Y0087980D02*
X0135677Y0082724D01*
X0131150Y0078197D01*
X0131150Y0075244D01*
X0139220Y0067173D01*
X0147685Y0067173D01*
X0167961Y0046898D01*
X0167961Y0021898D01*
X0165008Y0018945D01*
X0127213Y0018945D01*
X0121800Y0024357D01*
X0121800Y0034082D01*
X0121386Y0034496D01*
X0131740Y0048276D02*
X0115402Y0064614D01*
X0115402Y0087902D01*
X0115579Y0088079D01*
X0120900Y0087600D02*
X0120900Y0079982D01*
X0142567Y0058315D01*
X0143885Y0058315D01*
X0156900Y0045300D01*
X0158311Y0034500D02*
X0144535Y0048276D01*
X0131740Y0048276D01*
X0158311Y0034500D02*
X0160909Y0034500D01*
X0160913Y0034496D01*
X0180598Y0034496D02*
X0180598Y0024417D01*
X0185874Y0019142D01*
X0234299Y0019142D01*
X0239811Y0024654D01*
X0239811Y0034496D01*
X0245717Y0055362D02*
X0216189Y0055362D01*
X0201000Y0040173D01*
X0201000Y0034500D01*
X0200996Y0034496D01*
X0200441Y0034496D01*
X0245717Y0055362D02*
X0255559Y0065205D01*
X0255559Y0079575D01*
X0255638Y0079654D01*
X0247488Y0087646D02*
X0264024Y0087646D01*
X0269142Y0082528D01*
X0269142Y0071307D01*
X0274654Y0065795D01*
X0287252Y0065795D01*
X0288827Y0067370D01*
X0288827Y0071189D01*
X0288669Y0071346D01*
X0280869Y0071346D02*
X0280869Y0073162D01*
X0273079Y0080953D01*
X0273079Y0083118D01*
X0265008Y0091189D01*
X0247882Y0091189D01*
X0224654Y0114417D01*
X0201425Y0114417D01*
X0194732Y0121110D01*
X0168768Y0121110D01*
X0165579Y0124299D01*
X0160579Y0124299D02*
X0160579Y0118059D01*
X0161661Y0116976D01*
X0193748Y0116976D01*
X0199457Y0111268D01*
X0223866Y0111268D01*
X0247488Y0087646D01*
X0215638Y0079654D02*
X0215400Y0079891D01*
X0215400Y0095915D01*
X0204181Y0107134D01*
X0188315Y0107134D01*
X0188039Y0107409D01*
X0184575Y0110874D01*
X0149063Y0110874D01*
X0146100Y0113837D01*
X0146100Y0120900D01*
X0155559Y0124319D02*
X0155579Y0124299D01*
X0155559Y0124319D02*
X0155559Y0131937D01*
X0162646Y0139024D01*
X0162764Y0167055D02*
X0191583Y0138236D01*
X0208394Y0138236D01*
X0217646Y0128984D01*
X0262200Y0129000D02*
X0266173Y0129000D01*
X0269929Y0125244D01*
X0269929Y0122094D01*
X0271110Y0120913D01*
X0276228Y0120913D01*
X0276425Y0121110D01*
X0281740Y0115795D01*
X0316583Y0115795D01*
X0319142Y0118354D01*
X0330559Y0118354D01*
X0188039Y0090087D02*
X0187826Y0090300D01*
X0180300Y0090300D01*
X0135677Y0087980D02*
X0135579Y0088079D01*
X0108300Y0108300D02*
X0084550Y0108300D01*
X0084142Y0108709D01*
X0069693Y0101425D02*
X0069600Y0101332D01*
X0069600Y0101100D01*
X0042242Y0101100D01*
X0040795Y0099654D01*
X0040795Y0067567D01*
X0050835Y0057528D01*
X0092567Y0057528D01*
X0100244Y0065205D01*
X0100244Y0087744D01*
X0100579Y0088079D01*
X0073200Y0076800D02*
X0072310Y0076800D01*
X0070323Y0078787D01*
X0070323Y0082370D01*
X0070520Y0082567D01*
X0070500Y0083100D02*
X0049924Y0083100D01*
X0047134Y0085890D01*
X0033315Y0110071D02*
X0047134Y0123890D01*
X0033315Y0110071D02*
X0033315Y0053984D01*
X0030756Y0051425D01*
X0132449Y0156937D02*
X0122331Y0167055D01*
X0122445Y0167055D01*
X0122700Y0166800D01*
X0132449Y0156937D02*
X0150835Y0156937D01*
X0160698Y0166800D01*
X0161400Y0166800D01*
X0161583Y0167055D02*
X0162764Y0167055D01*
D25*
X0164024Y0153787D02*
X0142370Y0153787D01*
X0136200Y0147617D01*
X0136200Y0141600D01*
X0136200Y0133050D01*
X0135480Y0132331D01*
X0135480Y0124398D01*
X0135579Y0124299D01*
X0140579Y0124299D02*
X0140700Y0124178D01*
X0140700Y0106500D01*
X0147100Y0109864D02*
X0147100Y0115292D01*
X0148363Y0114769D01*
X0152794Y0114769D01*
X0153079Y0114886D01*
X0153363Y0114769D01*
X0155447Y0114769D01*
X0155492Y0114660D01*
X0156575Y0113578D01*
X0158263Y0111890D01*
X0160468Y0110976D01*
X0182690Y0110976D01*
X0182690Y0108453D01*
X0182334Y0108600D01*
X0147623Y0108600D01*
X0147100Y0109864D01*
X0147100Y0110933D02*
X0182690Y0110933D01*
X0182690Y0108534D02*
X0182492Y0108534D01*
X0188414Y0107784D02*
X0188414Y0107035D01*
X0193389Y0107035D01*
X0193389Y0103094D01*
X0195229Y0102332D01*
X0213275Y0084286D01*
X0213642Y0084473D01*
X0214420Y0084725D01*
X0215229Y0084854D01*
X0215638Y0084854D01*
X0215638Y0081923D01*
X0215638Y0081923D01*
X0215638Y0084854D01*
X0216047Y0084854D01*
X0216855Y0084725D01*
X0217634Y0084473D01*
X0218363Y0084101D01*
X0218549Y0083966D01*
X0218686Y0084298D01*
X0220993Y0086605D01*
X0224007Y0087854D01*
X0227269Y0087854D01*
X0230283Y0086605D01*
X0230638Y0086250D01*
X0230993Y0086605D01*
X0234007Y0087854D01*
X0237269Y0087854D01*
X0239874Y0086774D01*
X0221381Y0105268D01*
X0198263Y0105268D01*
X0196058Y0106181D01*
X0194370Y0107869D01*
X0193389Y0108850D01*
X0193389Y0107784D01*
X0188414Y0107784D01*
X0193389Y0108534D02*
X0193705Y0108534D01*
X0193389Y0106136D02*
X0196167Y0106136D01*
X0193389Y0103737D02*
X0222911Y0103737D01*
X0225310Y0101339D02*
X0196222Y0101339D01*
X0198621Y0098940D02*
X0227708Y0098940D01*
X0230107Y0096542D02*
X0201019Y0096542D01*
X0203418Y0094143D02*
X0232505Y0094143D01*
X0234904Y0091745D02*
X0205816Y0091745D01*
X0208215Y0089346D02*
X0237302Y0089346D01*
X0239455Y0086948D02*
X0239701Y0086948D01*
X0231820Y0086948D02*
X0229455Y0086948D01*
X0221820Y0086948D02*
X0210613Y0086948D01*
X0213012Y0084549D02*
X0213878Y0084549D01*
X0215638Y0084549D02*
X0215638Y0084549D01*
X0217397Y0084549D02*
X0218937Y0084549D01*
X0215638Y0082151D02*
X0215638Y0082151D01*
X0232223Y0067500D02*
X0239934Y0067500D01*
X0242029Y0068368D01*
X0245115Y0071454D01*
X0247269Y0071454D01*
X0249559Y0072402D01*
X0249559Y0067690D01*
X0243231Y0061362D01*
X0214995Y0061362D01*
X0212790Y0060449D01*
X0211102Y0058761D01*
X0200288Y0047946D01*
X0198586Y0047946D01*
X0195159Y0046527D01*
X0192535Y0043904D01*
X0191116Y0040476D01*
X0191116Y0028516D01*
X0192535Y0025089D01*
X0195159Y0022465D01*
X0198586Y0021046D01*
X0202296Y0021046D01*
X0205723Y0022465D01*
X0208346Y0025089D01*
X0209766Y0028516D01*
X0209766Y0040454D01*
X0211517Y0042205D01*
X0210801Y0040476D01*
X0210801Y0028516D01*
X0212220Y0025089D01*
X0214844Y0022465D01*
X0218271Y0021046D01*
X0221981Y0021046D01*
X0225408Y0022465D01*
X0228031Y0025089D01*
X0229451Y0028516D01*
X0229451Y0040476D01*
X0228031Y0043904D01*
X0225408Y0046527D01*
X0221981Y0047946D01*
X0218271Y0047946D01*
X0216542Y0047230D01*
X0218674Y0049362D01*
X0246910Y0049362D01*
X0249115Y0050276D01*
X0258958Y0060118D01*
X0260646Y0061806D01*
X0261559Y0064011D01*
X0261559Y0073978D01*
X0262589Y0075009D01*
X0263142Y0076342D01*
X0263142Y0070114D01*
X0264055Y0067908D01*
X0269567Y0062397D01*
X0271255Y0060709D01*
X0273460Y0059795D01*
X0288445Y0059795D01*
X0290651Y0060709D01*
X0292225Y0062284D01*
X0293913Y0063971D01*
X0294336Y0064993D01*
X0295875Y0066532D01*
X0297169Y0069656D01*
X0297169Y0073037D01*
X0295875Y0076161D01*
X0293494Y0078543D01*
X0293766Y0079078D01*
X0294034Y0079901D01*
X0294169Y0080756D01*
X0294169Y0081189D01*
X0294169Y0081622D01*
X0294034Y0082477D01*
X0293766Y0083300D01*
X0293373Y0084072D01*
X0292864Y0084772D01*
X0292252Y0085384D01*
X0291552Y0085893D01*
X0290781Y0086286D01*
X0289957Y0086554D01*
X0289102Y0086689D01*
X0288669Y0086689D01*
X0288236Y0086689D01*
X0287506Y0086573D01*
X0287269Y0086810D01*
X0287269Y0101644D01*
X0287865Y0102240D01*
X0287669Y0101508D01*
X0287669Y0098427D01*
X0288467Y0095452D01*
X0290007Y0092784D01*
X0292185Y0090605D01*
X0294853Y0089065D01*
X0297829Y0088268D01*
X0300910Y0088268D01*
X0303885Y0089065D01*
X0306553Y0090605D01*
X0308732Y0092784D01*
X0310272Y0095452D01*
X0311069Y0098427D01*
X0311069Y0101508D01*
X0310272Y0104484D01*
X0309141Y0106443D01*
X0327501Y0106443D01*
X0328022Y0106658D01*
X0331003Y0106658D01*
X0332446Y0107256D01*
X0332446Y0008200D01*
X0008200Y0008200D01*
X0008200Y0017267D01*
X0015546Y0009921D01*
X0017751Y0009008D01*
X0168170Y0009008D01*
X0170375Y0009921D01*
X0172063Y0011609D01*
X0176787Y0016334D01*
X0177701Y0018539D01*
X0177701Y0024748D01*
X0178170Y0024509D01*
X0179117Y0024201D01*
X0180101Y0024046D01*
X0180423Y0024046D01*
X0180423Y0034321D01*
X0180773Y0034321D01*
X0180773Y0024046D01*
X0181096Y0024046D01*
X0182080Y0024201D01*
X0183026Y0024509D01*
X0183914Y0024961D01*
X0184719Y0025546D01*
X0185423Y0026250D01*
X0186008Y0027056D01*
X0186460Y0027943D01*
X0186768Y0028890D01*
X0186924Y0029873D01*
X0186924Y0034321D01*
X0180773Y0034321D01*
X0180773Y0034671D01*
X0180423Y0034671D01*
X0180423Y0044946D01*
X0180101Y0044946D01*
X0179117Y0044791D01*
X0178170Y0044483D01*
X0177701Y0044244D01*
X0177701Y0049666D01*
X0176787Y0051871D01*
X0175100Y0053559D01*
X0151579Y0077080D01*
X0151579Y0078548D01*
X0152794Y0078548D01*
X0153079Y0078666D01*
X0153363Y0078548D01*
X0157794Y0078548D01*
X0158079Y0078666D01*
X0158363Y0078548D01*
X0162794Y0078548D01*
X0163079Y0078666D01*
X0163363Y0078548D01*
X0167794Y0078548D01*
X0169705Y0079340D01*
X0171168Y0080802D01*
X0171628Y0081911D01*
X0188771Y0064768D01*
X0190866Y0063900D01*
X0220818Y0063900D01*
X0221222Y0063496D01*
X0223868Y0062400D01*
X0226732Y0062400D01*
X0229378Y0063496D01*
X0231404Y0065522D01*
X0232223Y0067500D01*
X0231244Y0065361D02*
X0247230Y0065361D01*
X0249559Y0067760D02*
X0240561Y0067760D01*
X0243819Y0070158D02*
X0249559Y0070158D01*
X0261559Y0070158D02*
X0263142Y0070158D01*
X0263142Y0072557D02*
X0261559Y0072557D01*
X0262536Y0074955D02*
X0263142Y0074955D01*
X0264204Y0067760D02*
X0261559Y0067760D01*
X0261559Y0065361D02*
X0266602Y0065361D01*
X0269001Y0062963D02*
X0261125Y0062963D01*
X0259404Y0060564D02*
X0271604Y0060564D01*
X0257005Y0058166D02*
X0289091Y0058166D01*
X0288467Y0057084D02*
X0287669Y0054108D01*
X0287669Y0051027D01*
X0288467Y0048052D01*
X0290007Y0045384D01*
X0292185Y0043205D01*
X0294853Y0041665D01*
X0297829Y0040868D01*
X0300910Y0040868D01*
X0303885Y0041665D01*
X0306553Y0043205D01*
X0308732Y0045384D01*
X0310272Y0048052D01*
X0311069Y0051027D01*
X0311069Y0054108D01*
X0310272Y0057084D01*
X0308732Y0059752D01*
X0306553Y0061930D01*
X0303885Y0063470D01*
X0300910Y0064268D01*
X0297829Y0064268D01*
X0294853Y0063470D01*
X0292185Y0061930D01*
X0290007Y0059752D01*
X0288467Y0057084D01*
X0288114Y0055767D02*
X0254607Y0055767D01*
X0252208Y0053369D02*
X0287669Y0053369D01*
X0287685Y0050970D02*
X0249810Y0050970D01*
X0243932Y0043446D02*
X0243126Y0044031D01*
X0242239Y0044483D01*
X0241292Y0044791D01*
X0240309Y0044946D01*
X0239986Y0044946D01*
X0239986Y0034671D01*
X0246136Y0034671D01*
X0246136Y0039119D01*
X0245980Y0040102D01*
X0245673Y0041049D01*
X0245221Y0041936D01*
X0244636Y0042742D01*
X0243932Y0043446D01*
X0243479Y0043775D02*
X0291616Y0043775D01*
X0289551Y0046173D02*
X0225762Y0046173D01*
X0228085Y0043775D02*
X0236143Y0043775D01*
X0236496Y0044031D02*
X0235690Y0043446D01*
X0234986Y0042742D01*
X0234401Y0041936D01*
X0233949Y0041049D01*
X0233642Y0040102D01*
X0233486Y0039119D01*
X0233486Y0034671D01*
X0239636Y0034671D01*
X0239636Y0034321D01*
X0239986Y0034321D01*
X0239986Y0024046D01*
X0240309Y0024046D01*
X0241292Y0024201D01*
X0242239Y0024509D01*
X0243126Y0024961D01*
X0243932Y0025546D01*
X0244636Y0026250D01*
X0245221Y0027056D01*
X0245673Y0027943D01*
X0245980Y0028890D01*
X0246136Y0029873D01*
X0246136Y0034321D01*
X0239986Y0034321D01*
X0239986Y0034671D01*
X0239636Y0034671D01*
X0239636Y0044946D01*
X0239313Y0044946D01*
X0238330Y0044791D01*
X0237383Y0044483D01*
X0236496Y0044031D01*
X0239636Y0043775D02*
X0239986Y0043775D01*
X0239986Y0041376D02*
X0239636Y0041376D01*
X0245506Y0041376D02*
X0295931Y0041376D01*
X0296684Y0038712D02*
X0293609Y0037888D01*
X0290852Y0036296D01*
X0288601Y0034045D01*
X0287010Y0031289D01*
X0286186Y0028214D01*
X0286186Y0025030D01*
X0287010Y0021956D01*
X0288601Y0019199D01*
X0290852Y0016948D01*
X0293609Y0015356D01*
X0296684Y0014532D01*
X0299867Y0014532D01*
X0302942Y0015356D01*
X0305699Y0016948D01*
X0307950Y0019199D01*
X0309541Y0021956D01*
X0310365Y0025030D01*
X0310365Y0028214D01*
X0309541Y0031289D01*
X0307950Y0034045D01*
X0305699Y0036296D01*
X0302942Y0037888D01*
X0299867Y0038712D01*
X0296684Y0038712D01*
X0291342Y0036579D02*
X0246136Y0036579D01*
X0246136Y0034181D02*
X0288737Y0034181D01*
X0287295Y0031782D02*
X0246136Y0031782D01*
X0246059Y0029384D02*
X0286499Y0029384D01*
X0286186Y0026985D02*
X0245169Y0026985D01*
X0239986Y0026985D02*
X0239636Y0026985D01*
X0239636Y0029384D02*
X0239986Y0029384D01*
X0239986Y0031782D02*
X0239636Y0031782D01*
X0239636Y0034181D02*
X0239986Y0034181D01*
X0239636Y0034321D02*
X0239636Y0024046D01*
X0239313Y0024046D01*
X0238330Y0024201D01*
X0237383Y0024509D01*
X0236496Y0024961D01*
X0235690Y0025546D01*
X0234986Y0026250D01*
X0234401Y0027056D01*
X0233949Y0027943D01*
X0233642Y0028890D01*
X0233486Y0029873D01*
X0233486Y0034321D01*
X0239636Y0034321D01*
X0239636Y0036579D02*
X0239986Y0036579D01*
X0239986Y0038978D02*
X0239636Y0038978D01*
X0234116Y0041376D02*
X0229078Y0041376D01*
X0229451Y0038978D02*
X0233486Y0038978D01*
X0233486Y0036579D02*
X0229451Y0036579D01*
X0229451Y0034181D02*
X0233486Y0034181D01*
X0233486Y0031782D02*
X0229451Y0031782D01*
X0229451Y0029384D02*
X0233563Y0029384D01*
X0234453Y0026985D02*
X0228817Y0026985D01*
X0227530Y0024587D02*
X0237231Y0024587D01*
X0239636Y0024587D02*
X0239986Y0024587D01*
X0242391Y0024587D02*
X0286305Y0024587D01*
X0286947Y0022188D02*
X0224739Y0022188D01*
X0215513Y0022188D02*
X0205054Y0022188D01*
X0207845Y0024587D02*
X0212722Y0024587D01*
X0211435Y0026985D02*
X0209132Y0026985D01*
X0209766Y0029384D02*
X0210801Y0029384D01*
X0210801Y0031782D02*
X0209766Y0031782D01*
X0209766Y0034181D02*
X0210801Y0034181D01*
X0210801Y0036579D02*
X0209766Y0036579D01*
X0209766Y0038978D02*
X0210801Y0038978D01*
X0210688Y0041376D02*
X0211174Y0041376D01*
X0217884Y0048572D02*
X0288327Y0048572D01*
X0302807Y0041376D02*
X0332446Y0041376D01*
X0332446Y0043775D02*
X0307123Y0043775D01*
X0309187Y0046173D02*
X0332446Y0046173D01*
X0332446Y0048572D02*
X0310411Y0048572D01*
X0311054Y0050970D02*
X0332446Y0050970D01*
X0332446Y0053369D02*
X0311069Y0053369D01*
X0310625Y0055767D02*
X0332446Y0055767D01*
X0332446Y0058166D02*
X0309647Y0058166D01*
X0307919Y0060564D02*
X0332446Y0060564D01*
X0332446Y0062963D02*
X0304764Y0062963D01*
X0296384Y0067760D02*
X0332446Y0067760D01*
X0332446Y0065361D02*
X0294705Y0065361D01*
X0293974Y0062963D02*
X0292905Y0062963D01*
X0290820Y0060564D02*
X0290302Y0060564D01*
X0297169Y0070158D02*
X0332446Y0070158D01*
X0332446Y0072557D02*
X0297169Y0072557D01*
X0296375Y0074955D02*
X0332446Y0074955D01*
X0332446Y0077354D02*
X0294683Y0077354D01*
X0293986Y0079752D02*
X0332446Y0079752D01*
X0332446Y0082151D02*
X0294085Y0082151D01*
X0294169Y0081189D02*
X0289369Y0081189D01*
X0289369Y0081189D01*
X0294169Y0081189D01*
X0293026Y0084549D02*
X0332446Y0084549D01*
X0332446Y0086948D02*
X0287269Y0086948D01*
X0288669Y0086689D02*
X0288669Y0084570D01*
X0288669Y0084570D01*
X0288669Y0086689D01*
X0287269Y0089346D02*
X0294366Y0089346D01*
X0291046Y0091745D02*
X0287269Y0091745D01*
X0287269Y0094143D02*
X0289222Y0094143D01*
X0288174Y0096542D02*
X0287269Y0096542D01*
X0287269Y0098940D02*
X0287669Y0098940D01*
X0287669Y0101339D02*
X0287269Y0101339D01*
X0280869Y0104294D02*
X0289417Y0112843D01*
X0326228Y0112843D01*
X0327606Y0114220D01*
X0320044Y0119243D02*
X0305582Y0119243D01*
X0305699Y0119310D01*
X0307950Y0121561D01*
X0309541Y0124318D01*
X0310365Y0127393D01*
X0310365Y0130576D01*
X0309541Y0133651D01*
X0307950Y0136408D01*
X0305699Y0138658D01*
X0302942Y0140250D01*
X0299867Y0141074D01*
X0296684Y0141074D01*
X0293609Y0140250D01*
X0290852Y0138658D01*
X0288601Y0136408D01*
X0287010Y0133651D01*
X0286186Y0130576D01*
X0286186Y0127393D01*
X0287010Y0124318D01*
X0288601Y0121561D01*
X0290852Y0119310D01*
X0290969Y0119243D01*
X0288144Y0119243D01*
X0285792Y0118268D01*
X0283992Y0116468D01*
X0275444Y0107920D01*
X0274469Y0105568D01*
X0274469Y0096640D01*
X0268600Y0102509D01*
X0268600Y0115852D01*
X0268944Y0116196D01*
X0269735Y0118107D01*
X0269735Y0123399D01*
X0270724Y0122411D01*
X0271469Y0122102D01*
X0271469Y0121110D01*
X0271469Y0118655D01*
X0271619Y0118096D01*
X0271909Y0117594D01*
X0272318Y0117184D01*
X0272820Y0116895D01*
X0273380Y0116745D01*
X0276425Y0116745D01*
X0276425Y0121110D01*
X0276425Y0121110D01*
X0271469Y0121110D01*
X0276425Y0121110D01*
X0276425Y0121110D01*
X0276425Y0116745D01*
X0279471Y0116745D01*
X0280030Y0116895D01*
X0280532Y0117184D01*
X0280942Y0117594D01*
X0281231Y0118096D01*
X0281381Y0118655D01*
X0281381Y0121110D01*
X0276425Y0121110D01*
X0276425Y0121110D01*
X0281381Y0121110D01*
X0281381Y0122102D01*
X0282127Y0122411D01*
X0283589Y0123873D01*
X0284381Y0125785D01*
X0284381Y0125816D01*
X0284800Y0126827D01*
X0284800Y0143647D01*
X0320428Y0143647D01*
X0324159Y0139916D01*
X0324159Y0130029D01*
X0322299Y0129259D01*
X0320836Y0127796D01*
X0320044Y0125885D01*
X0320044Y0119243D01*
X0320044Y0120527D02*
X0306916Y0120527D01*
X0308738Y0122926D02*
X0320044Y0122926D01*
X0320044Y0125324D02*
X0309811Y0125324D01*
X0310365Y0127723D02*
X0320805Y0127723D01*
X0324159Y0130121D02*
X0310365Y0130121D01*
X0309845Y0132520D02*
X0324159Y0132520D01*
X0324159Y0134918D02*
X0308810Y0134918D01*
X0307041Y0137317D02*
X0324159Y0137317D01*
X0324159Y0139715D02*
X0303869Y0139715D01*
X0292683Y0139715D02*
X0284800Y0139715D01*
X0284800Y0137317D02*
X0289510Y0137317D01*
X0287741Y0134918D02*
X0284800Y0134918D01*
X0284800Y0132520D02*
X0286707Y0132520D01*
X0286186Y0130121D02*
X0284800Y0130121D01*
X0284800Y0127723D02*
X0286186Y0127723D01*
X0286740Y0125324D02*
X0284190Y0125324D01*
X0282642Y0122926D02*
X0287814Y0122926D01*
X0289635Y0120527D02*
X0281381Y0120527D01*
X0281240Y0118129D02*
X0285652Y0118129D01*
X0283254Y0115730D02*
X0268600Y0115730D01*
X0268600Y0113332D02*
X0280855Y0113332D01*
X0278457Y0110933D02*
X0268600Y0110933D01*
X0268600Y0108534D02*
X0276058Y0108534D01*
X0274705Y0106136D02*
X0268600Y0106136D01*
X0268600Y0103737D02*
X0274469Y0103737D01*
X0274469Y0101339D02*
X0269770Y0101339D01*
X0272169Y0098940D02*
X0274469Y0098940D01*
X0280869Y0104294D02*
X0280869Y0081189D01*
X0262200Y0099858D01*
X0262200Y0120900D01*
X0261583Y0121701D02*
X0261483Y0121800D01*
X0246900Y0121800D01*
X0246780Y0121110D02*
X0246569Y0120900D01*
X0231600Y0120900D01*
X0231806Y0120900D02*
X0232016Y0121110D01*
X0231806Y0120900D02*
X0217200Y0120900D01*
X0217435Y0120900D02*
X0217646Y0121110D01*
X0217435Y0120900D02*
X0203700Y0120900D01*
X0203276Y0128984D02*
X0188827Y0128984D01*
X0164024Y0153787D01*
X0149700Y0149700D02*
X0149700Y0141930D01*
X0150835Y0140795D01*
X0150835Y0124555D01*
X0150579Y0124299D01*
X0147100Y0113332D02*
X0156821Y0113332D01*
X0130756Y0124476D02*
X0130579Y0124299D01*
X0130756Y0124476D02*
X0130756Y0138236D01*
X0122700Y0146292D01*
X0122700Y0166800D01*
X0112646Y0175047D02*
X0112646Y0148079D01*
X0120717Y0140008D01*
X0120717Y0124437D01*
X0120579Y0124299D01*
X0125441Y0124437D02*
X0125441Y0128000D01*
X0126300Y0128859D01*
X0126300Y0131700D01*
X0125441Y0124437D02*
X0125579Y0124299D01*
X0114317Y0133830D02*
X0113363Y0133830D01*
X0113079Y0133712D01*
X0112794Y0133830D01*
X0108363Y0133830D01*
X0108079Y0133712D01*
X0107794Y0133830D01*
X0103363Y0133830D01*
X0103079Y0133712D01*
X0102794Y0133830D01*
X0098363Y0133830D01*
X0096452Y0133038D01*
X0094989Y0131575D01*
X0094198Y0129664D01*
X0094198Y0118934D01*
X0094989Y0117023D01*
X0096452Y0115560D01*
X0098363Y0114769D01*
X0099170Y0114769D01*
X0099639Y0114300D01*
X0091416Y0114300D01*
X0090040Y0115676D01*
X0088129Y0116468D01*
X0080155Y0116468D01*
X0078243Y0115676D01*
X0076892Y0114325D01*
X0076857Y0114410D01*
X0075394Y0115873D01*
X0073483Y0116665D01*
X0065903Y0116665D01*
X0063991Y0115873D01*
X0063319Y0115200D01*
X0056134Y0115200D01*
X0056134Y0121500D01*
X0063492Y0121500D01*
X0063552Y0121354D01*
X0065015Y0119891D01*
X0066926Y0119099D01*
X0074113Y0119099D01*
X0076024Y0119891D01*
X0077487Y0121354D01*
X0077796Y0122099D01*
X0080061Y0122099D01*
X0080621Y0122249D01*
X0081122Y0122539D01*
X0081532Y0122948D01*
X0081822Y0123450D01*
X0081972Y0124010D01*
X0081972Y0127172D01*
X0078279Y0127172D01*
X0078279Y0127331D01*
X0081972Y0127331D01*
X0081972Y0130494D01*
X0081822Y0131054D01*
X0081532Y0131556D01*
X0081122Y0131965D01*
X0080621Y0132255D01*
X0080061Y0132405D01*
X0077796Y0132405D01*
X0077487Y0133150D01*
X0076024Y0134613D01*
X0074113Y0135405D01*
X0066926Y0135405D01*
X0065015Y0134613D01*
X0063552Y0133150D01*
X0063449Y0132900D01*
X0056134Y0132900D01*
X0056134Y0135424D01*
X0055342Y0137335D01*
X0053879Y0138798D01*
X0051968Y0139590D01*
X0042300Y0139590D01*
X0040388Y0138798D01*
X0038926Y0137335D01*
X0038134Y0135424D01*
X0038134Y0123375D01*
X0028228Y0113470D01*
X0027315Y0111264D01*
X0027315Y0082397D01*
X0026171Y0083540D01*
X0023415Y0085132D01*
X0020340Y0085956D01*
X0017156Y0085956D01*
X0014082Y0085132D01*
X0011325Y0083540D01*
X0009074Y0081289D01*
X0008200Y0079776D01*
X0008200Y0123074D01*
X0009074Y0121561D01*
X0011325Y0119310D01*
X0014082Y0117718D01*
X0017156Y0116894D01*
X0020340Y0116894D01*
X0023415Y0117718D01*
X0026171Y0119310D01*
X0028422Y0121561D01*
X0030014Y0124318D01*
X0030838Y0127393D01*
X0030838Y0130576D01*
X0030014Y0133651D01*
X0028422Y0136408D01*
X0026171Y0138658D01*
X0023415Y0140250D01*
X0020340Y0141074D01*
X0017156Y0141074D01*
X0014082Y0140250D01*
X0011325Y0138658D01*
X0009074Y0136408D01*
X0008200Y0134894D01*
X0008200Y0194650D01*
X0332446Y0194650D01*
X0332446Y0149731D01*
X0326704Y0155473D01*
X0325353Y0156032D01*
X0326969Y0157648D01*
X0328388Y0161075D01*
X0328388Y0173035D01*
X0326969Y0176463D01*
X0325049Y0178382D01*
X0324489Y0179736D01*
X0317087Y0187137D01*
X0315287Y0188937D01*
X0312934Y0189912D01*
X0282239Y0189912D01*
X0279886Y0188937D01*
X0277514Y0186565D01*
X0253499Y0186565D01*
X0253350Y0186504D01*
X0249371Y0190484D01*
X0247570Y0192284D01*
X0245218Y0193258D01*
X0123184Y0193258D01*
X0120831Y0192284D01*
X0109020Y0180473D01*
X0107623Y0179076D01*
X0107613Y0179086D01*
X0104186Y0180505D01*
X0100476Y0180505D01*
X0097048Y0179086D01*
X0094425Y0176463D01*
X0093006Y0173035D01*
X0093006Y0161075D01*
X0094425Y0157648D01*
X0097048Y0155024D01*
X0100476Y0153605D01*
X0104186Y0153605D01*
X0106246Y0154458D01*
X0106246Y0146806D01*
X0107220Y0144453D01*
X0114317Y0137357D01*
X0114317Y0133830D01*
X0114317Y0134918D02*
X0075288Y0134918D01*
X0077748Y0132520D02*
X0095933Y0132520D01*
X0094387Y0130121D02*
X0081972Y0130121D01*
X0081972Y0127723D02*
X0094198Y0127723D01*
X0094198Y0125324D02*
X0081972Y0125324D01*
X0081509Y0122926D02*
X0094198Y0122926D01*
X0094198Y0120527D02*
X0076660Y0120527D01*
X0075537Y0115730D02*
X0078374Y0115730D01*
X0089910Y0115730D02*
X0096282Y0115730D01*
X0094531Y0118129D02*
X0056134Y0118129D01*
X0056134Y0120527D02*
X0064379Y0120527D01*
X0063849Y0115730D02*
X0056134Y0115730D01*
X0038134Y0125324D02*
X0030284Y0125324D01*
X0029210Y0122926D02*
X0037684Y0122926D01*
X0035286Y0120527D02*
X0027388Y0120527D01*
X0024125Y0118129D02*
X0032887Y0118129D01*
X0030489Y0115730D02*
X0008200Y0115730D01*
X0008200Y0113332D02*
X0028171Y0113332D01*
X0027315Y0110933D02*
X0008200Y0110933D01*
X0008200Y0108534D02*
X0027315Y0108534D01*
X0027315Y0106136D02*
X0008200Y0106136D01*
X0008200Y0103737D02*
X0027315Y0103737D01*
X0027315Y0101339D02*
X0008200Y0101339D01*
X0008200Y0098940D02*
X0027315Y0098940D01*
X0027315Y0096542D02*
X0008200Y0096542D01*
X0008200Y0094143D02*
X0027315Y0094143D01*
X0027315Y0091745D02*
X0008200Y0091745D01*
X0008200Y0089346D02*
X0027315Y0089346D01*
X0027315Y0086948D02*
X0008200Y0086948D01*
X0008200Y0084549D02*
X0013072Y0084549D01*
X0009935Y0082151D02*
X0008200Y0082151D01*
X0024424Y0084549D02*
X0027315Y0084549D01*
X0046795Y0070190D02*
X0051968Y0070190D01*
X0053879Y0070981D01*
X0055342Y0072444D01*
X0056134Y0074355D01*
X0056134Y0077100D01*
X0063374Y0077100D01*
X0063552Y0076669D01*
X0065015Y0075206D01*
X0065705Y0074920D01*
X0066525Y0074100D01*
X0067096Y0072722D01*
X0069122Y0070696D01*
X0071768Y0069600D01*
X0074632Y0069600D01*
X0077278Y0070696D01*
X0079304Y0072722D01*
X0080400Y0075368D01*
X0080400Y0077505D01*
X0080621Y0077564D01*
X0081122Y0077854D01*
X0081532Y0078263D01*
X0081822Y0078765D01*
X0081972Y0079325D01*
X0081972Y0082487D01*
X0078279Y0082487D01*
X0078279Y0082646D01*
X0081972Y0082646D01*
X0081972Y0085809D01*
X0081822Y0086369D01*
X0081532Y0086871D01*
X0081122Y0087280D01*
X0080621Y0087570D01*
X0080061Y0087720D01*
X0077796Y0087720D01*
X0077487Y0088465D01*
X0076024Y0089928D01*
X0074113Y0090720D01*
X0066926Y0090720D01*
X0065015Y0089928D01*
X0064187Y0089100D01*
X0056134Y0089100D01*
X0056134Y0095100D01*
X0063743Y0095100D01*
X0063991Y0094851D01*
X0065903Y0094060D01*
X0073483Y0094060D01*
X0075394Y0094851D01*
X0076857Y0096314D01*
X0077649Y0098225D01*
X0077649Y0102336D01*
X0078243Y0101741D01*
X0078989Y0101432D01*
X0078989Y0099167D01*
X0079139Y0098608D01*
X0079429Y0098106D01*
X0079838Y0097696D01*
X0080340Y0097407D01*
X0080899Y0097257D01*
X0084062Y0097257D01*
X0084062Y0100950D01*
X0084221Y0100950D01*
X0084221Y0097257D01*
X0087384Y0097257D01*
X0087944Y0097407D01*
X0088445Y0097696D01*
X0088855Y0098106D01*
X0089145Y0098608D01*
X0089294Y0099167D01*
X0089294Y0101432D01*
X0090040Y0101741D01*
X0090599Y0102300D01*
X0104118Y0102300D01*
X0104128Y0102289D01*
X0099448Y0097609D01*
X0098363Y0097609D01*
X0096452Y0096818D01*
X0094989Y0095355D01*
X0094198Y0093444D01*
X0094198Y0082714D01*
X0094244Y0082602D01*
X0094244Y0067690D01*
X0090082Y0063528D01*
X0053320Y0063528D01*
X0046795Y0070052D01*
X0046795Y0070190D01*
X0046795Y0070158D02*
X0070420Y0070158D01*
X0067261Y0072557D02*
X0055389Y0072557D01*
X0056134Y0074955D02*
X0065620Y0074955D01*
X0075980Y0070158D02*
X0094244Y0070158D01*
X0094244Y0072557D02*
X0079139Y0072557D01*
X0080229Y0074955D02*
X0094244Y0074955D01*
X0094244Y0077354D02*
X0080400Y0077354D01*
X0081972Y0079752D02*
X0094244Y0079752D01*
X0094244Y0082151D02*
X0081972Y0082151D01*
X0081972Y0084549D02*
X0094198Y0084549D01*
X0094198Y0086948D02*
X0081455Y0086948D01*
X0076606Y0089346D02*
X0094198Y0089346D01*
X0094198Y0091745D02*
X0056134Y0091745D01*
X0056134Y0094143D02*
X0065701Y0094143D01*
X0064433Y0089346D02*
X0056134Y0089346D01*
X0073685Y0094143D02*
X0094487Y0094143D01*
X0096176Y0096542D02*
X0076951Y0096542D01*
X0077649Y0098940D02*
X0079050Y0098940D01*
X0078989Y0101339D02*
X0077649Y0101339D01*
X0084062Y0098940D02*
X0084221Y0098940D01*
X0089234Y0098940D02*
X0100779Y0098940D01*
X0103178Y0101339D02*
X0089294Y0101339D01*
X0137100Y0076800D02*
X0137233Y0076800D01*
X0140402Y0079969D01*
X0140402Y0087902D01*
X0140579Y0088079D01*
X0151579Y0077354D02*
X0176185Y0077354D01*
X0173787Y0079752D02*
X0170118Y0079752D01*
X0178584Y0074955D02*
X0153703Y0074955D01*
X0156102Y0072557D02*
X0180982Y0072557D01*
X0183381Y0070158D02*
X0158500Y0070158D01*
X0160899Y0067760D02*
X0185779Y0067760D01*
X0188178Y0065361D02*
X0163297Y0065361D01*
X0165696Y0062963D02*
X0222509Y0062963D01*
X0228091Y0062963D02*
X0244832Y0062963D01*
X0213069Y0060564D02*
X0168094Y0060564D01*
X0170493Y0058166D02*
X0210507Y0058166D01*
X0208109Y0055767D02*
X0172891Y0055767D01*
X0175290Y0053369D02*
X0205710Y0053369D01*
X0203312Y0050970D02*
X0177161Y0050970D01*
X0177701Y0048572D02*
X0200913Y0048572D01*
X0194805Y0046173D02*
X0177701Y0046173D01*
X0180773Y0044946D02*
X0180773Y0034671D01*
X0186924Y0034671D01*
X0186924Y0039119D01*
X0186768Y0040102D01*
X0186460Y0041049D01*
X0186008Y0041936D01*
X0185423Y0042742D01*
X0184719Y0043446D01*
X0183914Y0044031D01*
X0183026Y0044483D01*
X0182080Y0044791D01*
X0181096Y0044946D01*
X0180773Y0044946D01*
X0180773Y0043775D02*
X0180423Y0043775D01*
X0180423Y0041376D02*
X0180773Y0041376D01*
X0184266Y0043775D02*
X0192482Y0043775D01*
X0191489Y0041376D02*
X0186294Y0041376D01*
X0186924Y0038978D02*
X0191116Y0038978D01*
X0191116Y0036579D02*
X0186924Y0036579D01*
X0186924Y0034181D02*
X0191116Y0034181D01*
X0191116Y0031782D02*
X0186924Y0031782D01*
X0186846Y0029384D02*
X0191116Y0029384D01*
X0191750Y0026985D02*
X0185957Y0026985D01*
X0180773Y0026985D02*
X0180423Y0026985D01*
X0180423Y0029384D02*
X0180773Y0029384D01*
X0180773Y0031782D02*
X0180423Y0031782D01*
X0180423Y0034181D02*
X0180773Y0034181D01*
X0180773Y0036579D02*
X0180423Y0036579D01*
X0180423Y0038978D02*
X0180773Y0038978D01*
X0180773Y0024587D02*
X0180423Y0024587D01*
X0178018Y0024587D02*
X0177701Y0024587D01*
X0177701Y0022188D02*
X0195828Y0022188D01*
X0193037Y0024587D02*
X0183179Y0024587D01*
X0177701Y0019790D02*
X0288260Y0019790D01*
X0290409Y0017391D02*
X0177225Y0017391D01*
X0175446Y0014993D02*
X0294966Y0014993D01*
X0301585Y0014993D02*
X0332446Y0014993D01*
X0332446Y0017391D02*
X0306142Y0017391D01*
X0308291Y0019790D02*
X0332446Y0019790D01*
X0332446Y0022188D02*
X0309604Y0022188D01*
X0310246Y0024587D02*
X0332446Y0024587D01*
X0332446Y0026985D02*
X0310365Y0026985D01*
X0310052Y0029384D02*
X0332446Y0029384D01*
X0332446Y0031782D02*
X0309256Y0031782D01*
X0307814Y0034181D02*
X0332446Y0034181D01*
X0332446Y0036579D02*
X0305209Y0036579D01*
X0332446Y0038978D02*
X0246136Y0038978D01*
X0288669Y0081189D02*
X0288780Y0081300D01*
X0289200Y0081300D01*
X0304373Y0089346D02*
X0332446Y0089346D01*
X0332446Y0091745D02*
X0307693Y0091745D01*
X0309517Y0094143D02*
X0332446Y0094143D01*
X0332446Y0096542D02*
X0310564Y0096542D01*
X0311069Y0098940D02*
X0332446Y0098940D01*
X0332446Y0101339D02*
X0311069Y0101339D01*
X0310472Y0103737D02*
X0332446Y0103737D01*
X0332446Y0106136D02*
X0309318Y0106136D01*
X0327606Y0122488D02*
X0330559Y0125441D01*
X0330559Y0142567D01*
X0323079Y0150047D01*
X0281346Y0150047D01*
X0278400Y0147101D01*
X0278400Y0128100D01*
X0270209Y0122926D02*
X0269735Y0122926D01*
X0269735Y0120527D02*
X0271469Y0120527D01*
X0271610Y0118129D02*
X0269735Y0118129D01*
X0276425Y0118129D02*
X0276425Y0118129D01*
X0276425Y0120527D02*
X0276425Y0120527D01*
X0268469Y0127680D02*
X0267481Y0128668D01*
X0266735Y0128977D01*
X0266735Y0131242D01*
X0266585Y0131802D01*
X0266296Y0132304D01*
X0265886Y0132713D01*
X0265385Y0133003D01*
X0264825Y0133153D01*
X0261662Y0133153D01*
X0261662Y0129460D01*
X0261503Y0129460D01*
X0261503Y0133153D01*
X0258340Y0133153D01*
X0257781Y0133003D01*
X0257279Y0132713D01*
X0256869Y0132304D01*
X0256580Y0131802D01*
X0256430Y0131242D01*
X0256430Y0128977D01*
X0255684Y0128668D01*
X0255216Y0128200D01*
X0254735Y0128200D01*
X0254735Y0132184D01*
X0253944Y0134095D01*
X0253300Y0134739D01*
X0253300Y0151532D01*
X0253476Y0151708D01*
X0255276Y0153509D01*
X0255685Y0154496D01*
X0257838Y0153605D01*
X0261548Y0153605D01*
X0264975Y0155024D01*
X0267598Y0157648D01*
X0269018Y0161075D01*
X0269018Y0173035D01*
X0268716Y0173765D01*
X0270670Y0173765D01*
X0270368Y0173035D01*
X0270368Y0161075D01*
X0271787Y0157648D01*
X0274411Y0155024D01*
X0276434Y0154186D01*
X0275921Y0153673D01*
X0272974Y0150726D01*
X0272000Y0148374D01*
X0272000Y0136087D01*
X0270724Y0135558D01*
X0269261Y0134095D01*
X0268469Y0132184D01*
X0268469Y0127680D01*
X0268469Y0127723D02*
X0268427Y0127723D01*
X0268469Y0130121D02*
X0266735Y0130121D01*
X0266080Y0132520D02*
X0268608Y0132520D01*
X0270084Y0134918D02*
X0253300Y0134918D01*
X0253300Y0137317D02*
X0272000Y0137317D01*
X0272000Y0139715D02*
X0253300Y0139715D01*
X0253300Y0142114D02*
X0272000Y0142114D01*
X0272000Y0144512D02*
X0253300Y0144512D01*
X0253300Y0146911D02*
X0272000Y0146911D01*
X0272387Y0149309D02*
X0253300Y0149309D01*
X0253475Y0151708D02*
X0273956Y0151708D01*
X0276354Y0154106D02*
X0262759Y0154106D01*
X0256627Y0154106D02*
X0255524Y0154106D01*
X0249850Y0157134D02*
X0249850Y0175244D01*
X0254772Y0180165D01*
X0280165Y0180165D01*
X0280165Y0167528D01*
X0279693Y0167055D01*
X0270368Y0166099D02*
X0269018Y0166099D01*
X0269018Y0168497D02*
X0270368Y0168497D01*
X0270368Y0170896D02*
X0269018Y0170896D01*
X0268911Y0173294D02*
X0270475Y0173294D01*
X0280165Y0180165D02*
X0283512Y0183512D01*
X0311661Y0183512D01*
X0319063Y0176110D01*
X0319063Y0167055D01*
X0328388Y0166099D02*
X0332446Y0166099D01*
X0332446Y0168497D02*
X0328388Y0168497D01*
X0328388Y0170896D02*
X0332446Y0170896D01*
X0332446Y0173294D02*
X0328281Y0173294D01*
X0327287Y0175693D02*
X0332446Y0175693D01*
X0332446Y0178091D02*
X0325340Y0178091D01*
X0323734Y0180490D02*
X0332446Y0180490D01*
X0332446Y0182888D02*
X0321336Y0182888D01*
X0318937Y0185287D02*
X0332446Y0185287D01*
X0332446Y0187685D02*
X0316539Y0187685D01*
X0332446Y0190084D02*
X0249770Y0190084D01*
X0252169Y0187685D02*
X0278634Y0187685D01*
X0249850Y0180953D02*
X0249850Y0175244D01*
X0249850Y0180953D02*
X0243945Y0186858D01*
X0124457Y0186858D01*
X0112646Y0175047D01*
X0109037Y0180490D02*
X0104223Y0180490D01*
X0100438Y0180490D02*
X0088928Y0180490D01*
X0088928Y0181045D02*
X0087953Y0183397D01*
X0086153Y0185197D01*
X0084213Y0187137D01*
X0084213Y0187137D01*
X0082413Y0188937D01*
X0080060Y0189912D01*
X0048184Y0189912D01*
X0045831Y0188937D01*
X0044031Y0187137D01*
X0038007Y0181113D01*
X0037033Y0178761D01*
X0037033Y0177968D01*
X0035528Y0176463D01*
X0034108Y0173035D01*
X0034108Y0161075D01*
X0035528Y0157648D01*
X0038151Y0155024D01*
X0041578Y0153605D01*
X0045288Y0153605D01*
X0048715Y0155024D01*
X0051339Y0157648D01*
X0052758Y0161075D01*
X0052758Y0173035D01*
X0051374Y0176378D01*
X0052108Y0177112D01*
X0055626Y0177112D01*
X0054976Y0176463D01*
X0053557Y0173035D01*
X0053557Y0161075D01*
X0054976Y0157648D01*
X0057600Y0155024D01*
X0061027Y0153605D01*
X0064737Y0153605D01*
X0068164Y0155024D01*
X0070787Y0157648D01*
X0072207Y0161075D01*
X0072207Y0173035D01*
X0070787Y0176463D01*
X0070138Y0177112D01*
X0075626Y0177112D01*
X0074976Y0176463D01*
X0073557Y0173035D01*
X0073557Y0161075D01*
X0074976Y0157648D01*
X0077600Y0155024D01*
X0081027Y0153605D01*
X0084737Y0153605D01*
X0088164Y0155024D01*
X0090787Y0157648D01*
X0092207Y0161075D01*
X0092207Y0173035D01*
X0090787Y0176463D01*
X0088928Y0178322D01*
X0088928Y0181045D01*
X0088164Y0182888D02*
X0111436Y0182888D01*
X0113834Y0185287D02*
X0086063Y0185287D01*
X0086153Y0185197D02*
X0086153Y0185197D01*
X0083665Y0187685D02*
X0116233Y0187685D01*
X0118631Y0190084D02*
X0008200Y0190084D01*
X0008200Y0192482D02*
X0121311Y0192482D01*
X0141583Y0176228D02*
X0146701Y0181346D01*
X0216386Y0181346D01*
X0220520Y0177213D01*
X0220520Y0167055D01*
X0210480Y0153591D02*
X0201000Y0163071D01*
X0201000Y0167008D01*
X0200953Y0167055D01*
X0210480Y0153591D02*
X0238039Y0153591D01*
X0239417Y0154969D01*
X0239417Y0165953D01*
X0240520Y0167055D01*
X0249850Y0157134D02*
X0246900Y0154183D01*
X0246900Y0129000D01*
X0254735Y0130121D02*
X0256430Y0130121D01*
X0257086Y0132520D02*
X0254596Y0132520D01*
X0261503Y0132520D02*
X0261662Y0132520D01*
X0261662Y0130121D02*
X0261503Y0130121D01*
X0284800Y0142114D02*
X0321961Y0142114D01*
X0330469Y0151708D02*
X0332446Y0151708D01*
X0332446Y0154106D02*
X0328071Y0154106D01*
X0325826Y0156505D02*
X0332446Y0156505D01*
X0332446Y0158903D02*
X0327489Y0158903D01*
X0328388Y0161302D02*
X0332446Y0161302D01*
X0332446Y0163700D02*
X0328388Y0163700D01*
X0332446Y0192482D02*
X0247091Y0192482D01*
X0269018Y0163700D02*
X0270368Y0163700D01*
X0270368Y0161302D02*
X0269018Y0161302D01*
X0268119Y0158903D02*
X0271267Y0158903D01*
X0272930Y0156505D02*
X0266456Y0156505D01*
X0239417Y0154969D02*
X0239417Y0150835D01*
X0232500Y0143917D01*
X0232500Y0129000D01*
X0141583Y0167055D02*
X0141583Y0176228D01*
X0106246Y0154106D02*
X0105396Y0154106D01*
X0106246Y0151708D02*
X0008200Y0151708D01*
X0008200Y0154106D02*
X0020367Y0154106D01*
X0021578Y0153605D02*
X0018151Y0155024D01*
X0015528Y0157648D01*
X0014108Y0161075D01*
X0014108Y0173035D01*
X0015528Y0176463D01*
X0018151Y0179086D01*
X0021578Y0180505D01*
X0025288Y0180505D01*
X0028715Y0179086D01*
X0031339Y0176463D01*
X0032758Y0173035D01*
X0032758Y0161075D01*
X0031339Y0157648D01*
X0028715Y0155024D01*
X0025288Y0153605D01*
X0021578Y0153605D01*
X0026499Y0154106D02*
X0040367Y0154106D01*
X0036670Y0156505D02*
X0030196Y0156505D01*
X0031859Y0158903D02*
X0035007Y0158903D01*
X0034108Y0161302D02*
X0032758Y0161302D01*
X0032758Y0163700D02*
X0034108Y0163700D01*
X0034108Y0166099D02*
X0032758Y0166099D01*
X0032758Y0168497D02*
X0034108Y0168497D01*
X0034108Y0170896D02*
X0032758Y0170896D01*
X0032651Y0173294D02*
X0034215Y0173294D01*
X0035209Y0175693D02*
X0031657Y0175693D01*
X0029710Y0178091D02*
X0037033Y0178091D01*
X0037749Y0180490D02*
X0025326Y0180490D01*
X0021540Y0180490D02*
X0008200Y0180490D01*
X0008200Y0182888D02*
X0039782Y0182888D01*
X0042181Y0185287D02*
X0008200Y0185287D01*
X0008200Y0187685D02*
X0044579Y0187685D01*
X0049457Y0183512D02*
X0078787Y0183512D01*
X0082528Y0179772D01*
X0082528Y0167409D01*
X0082882Y0167055D01*
X0073557Y0166099D02*
X0072207Y0166099D01*
X0072207Y0168497D02*
X0073557Y0168497D01*
X0073557Y0170896D02*
X0072207Y0170896D01*
X0072100Y0173294D02*
X0073664Y0173294D01*
X0074658Y0175693D02*
X0071106Y0175693D01*
X0054658Y0175693D02*
X0051657Y0175693D01*
X0052651Y0173294D02*
X0053664Y0173294D01*
X0053557Y0170896D02*
X0052758Y0170896D01*
X0052758Y0168497D02*
X0053557Y0168497D01*
X0053557Y0166099D02*
X0052758Y0166099D01*
X0052758Y0163700D02*
X0053557Y0163700D01*
X0053557Y0161302D02*
X0052758Y0161302D01*
X0051859Y0158903D02*
X0054456Y0158903D01*
X0056119Y0156505D02*
X0050196Y0156505D01*
X0046499Y0154106D02*
X0059816Y0154106D01*
X0065947Y0154106D02*
X0079816Y0154106D01*
X0085947Y0154106D02*
X0099265Y0154106D01*
X0095568Y0156505D02*
X0089645Y0156505D01*
X0091307Y0158903D02*
X0093905Y0158903D01*
X0093006Y0161302D02*
X0092207Y0161302D01*
X0092207Y0163700D02*
X0093006Y0163700D01*
X0093006Y0166099D02*
X0092207Y0166099D01*
X0092207Y0168497D02*
X0093006Y0168497D01*
X0093006Y0170896D02*
X0092207Y0170896D01*
X0092100Y0173294D02*
X0093113Y0173294D01*
X0094106Y0175693D02*
X0091106Y0175693D01*
X0089159Y0178091D02*
X0096054Y0178091D01*
X0073557Y0163700D02*
X0072207Y0163700D01*
X0072207Y0161302D02*
X0073557Y0161302D01*
X0074456Y0158903D02*
X0071307Y0158903D01*
X0069645Y0156505D02*
X0076119Y0156505D01*
X0055350Y0137317D02*
X0114317Y0137317D01*
X0111958Y0139715D02*
X0024341Y0139715D01*
X0027513Y0137317D02*
X0038918Y0137317D01*
X0038134Y0134918D02*
X0029282Y0134918D01*
X0030317Y0132520D02*
X0038134Y0132520D01*
X0038134Y0130121D02*
X0030838Y0130121D01*
X0030838Y0127723D02*
X0038134Y0127723D01*
X0056134Y0134918D02*
X0065752Y0134918D01*
X0106246Y0146911D02*
X0008200Y0146911D01*
X0008200Y0149309D02*
X0106246Y0149309D01*
X0107196Y0144512D02*
X0008200Y0144512D01*
X0008200Y0142114D02*
X0109560Y0142114D01*
X0043433Y0167055D02*
X0043433Y0177488D01*
X0049457Y0183512D01*
X0017156Y0178091D02*
X0008200Y0178091D01*
X0008200Y0175693D02*
X0015209Y0175693D01*
X0014215Y0173294D02*
X0008200Y0173294D01*
X0008200Y0170896D02*
X0014108Y0170896D01*
X0014108Y0168497D02*
X0008200Y0168497D01*
X0008200Y0166099D02*
X0014108Y0166099D01*
X0014108Y0163700D02*
X0008200Y0163700D01*
X0008200Y0161302D02*
X0014108Y0161302D01*
X0015007Y0158903D02*
X0008200Y0158903D01*
X0008200Y0156505D02*
X0016670Y0156505D01*
X0013155Y0139715D02*
X0008200Y0139715D01*
X0008200Y0137317D02*
X0009983Y0137317D01*
X0008214Y0134918D02*
X0008200Y0134918D01*
X0008200Y0122926D02*
X0008286Y0122926D01*
X0008200Y0120527D02*
X0010108Y0120527D01*
X0008200Y0118129D02*
X0013371Y0118129D01*
X0049088Y0067760D02*
X0094244Y0067760D01*
X0091915Y0065361D02*
X0051486Y0065361D01*
X0054501Y0042079D02*
X0057339Y0042079D01*
X0057236Y0041936D01*
X0056784Y0041049D01*
X0056476Y0040102D01*
X0056320Y0039119D01*
X0056320Y0034671D01*
X0062471Y0034671D01*
X0062471Y0034321D01*
X0056320Y0034321D01*
X0056320Y0029873D01*
X0056476Y0028890D01*
X0056784Y0027943D01*
X0057236Y0027056D01*
X0057821Y0026250D01*
X0058525Y0025546D01*
X0059331Y0024961D01*
X0059362Y0024945D01*
X0050722Y0024945D01*
X0050866Y0025089D01*
X0052286Y0028516D01*
X0052286Y0039864D01*
X0054501Y0042079D01*
X0053798Y0041376D02*
X0056950Y0041376D01*
X0056320Y0038978D02*
X0052286Y0038978D01*
X0052286Y0036579D02*
X0056320Y0036579D01*
X0056320Y0034181D02*
X0052286Y0034181D01*
X0052286Y0031782D02*
X0056320Y0031782D01*
X0056398Y0029384D02*
X0052286Y0029384D01*
X0051652Y0026985D02*
X0057287Y0026985D01*
X0065929Y0024945D02*
X0065961Y0024961D01*
X0066766Y0025546D01*
X0067470Y0026250D01*
X0068055Y0027056D01*
X0068507Y0027943D01*
X0068815Y0028890D01*
X0068971Y0029873D01*
X0068971Y0034321D01*
X0062821Y0034321D01*
X0062821Y0034671D01*
X0068971Y0034671D01*
X0068971Y0039119D01*
X0068815Y0040102D01*
X0068507Y0041049D01*
X0068055Y0041936D01*
X0067952Y0042079D01*
X0073354Y0042079D01*
X0072691Y0040476D01*
X0072691Y0028516D01*
X0072892Y0028030D01*
X0069806Y0024945D01*
X0065929Y0024945D01*
X0068004Y0026985D02*
X0071846Y0026985D01*
X0072691Y0029384D02*
X0068893Y0029384D01*
X0068971Y0031782D02*
X0072691Y0031782D01*
X0072691Y0034181D02*
X0068971Y0034181D01*
X0068971Y0036579D02*
X0072691Y0036579D01*
X0072691Y0038978D02*
X0068971Y0038978D01*
X0068341Y0041376D02*
X0073063Y0041376D01*
X0090677Y0042079D02*
X0091341Y0040476D01*
X0091341Y0028516D01*
X0089921Y0025089D01*
X0087298Y0022465D01*
X0083871Y0021046D01*
X0082877Y0021046D01*
X0082840Y0021008D01*
X0164491Y0021008D01*
X0165701Y0022218D01*
X0165701Y0022260D01*
X0162768Y0021046D01*
X0159058Y0021046D01*
X0155631Y0022465D01*
X0153008Y0025089D01*
X0151588Y0028516D01*
X0151588Y0032738D01*
X0150554Y0033772D01*
X0150554Y0028516D01*
X0149134Y0025089D01*
X0146511Y0022465D01*
X0143083Y0021046D01*
X0139373Y0021046D01*
X0135946Y0022465D01*
X0133323Y0025089D01*
X0131903Y0028516D01*
X0131903Y0040476D01*
X0132649Y0042276D01*
X0130547Y0042276D01*
X0128341Y0043189D01*
X0116087Y0055444D01*
X0116087Y0043342D01*
X0115173Y0041137D01*
X0113485Y0039449D01*
X0111026Y0036990D01*
X0111026Y0028516D01*
X0109606Y0025089D01*
X0106983Y0022465D01*
X0103556Y0021046D01*
X0099846Y0021046D01*
X0096418Y0022465D01*
X0093795Y0025089D01*
X0092376Y0028516D01*
X0092376Y0040476D01*
X0093039Y0042079D01*
X0090677Y0042079D01*
X0090968Y0041376D02*
X0092748Y0041376D01*
X0092376Y0038978D02*
X0091341Y0038978D01*
X0091341Y0036579D02*
X0092376Y0036579D01*
X0092376Y0034181D02*
X0091341Y0034181D01*
X0091341Y0031782D02*
X0092376Y0031782D01*
X0092376Y0029384D02*
X0091341Y0029384D01*
X0090707Y0026985D02*
X0093010Y0026985D01*
X0094297Y0024587D02*
X0089419Y0024587D01*
X0086629Y0022188D02*
X0097088Y0022188D01*
X0106314Y0022188D02*
X0136615Y0022188D01*
X0133825Y0024587D02*
X0123966Y0024587D01*
X0123814Y0024509D02*
X0124701Y0024961D01*
X0125506Y0025546D01*
X0126210Y0026250D01*
X0126796Y0027056D01*
X0127248Y0027943D01*
X0127555Y0028890D01*
X0127711Y0029873D01*
X0127711Y0034321D01*
X0121561Y0034321D01*
X0121561Y0034671D01*
X0127711Y0034671D01*
X0127711Y0039119D01*
X0127555Y0040102D01*
X0127248Y0041049D01*
X0126796Y0041936D01*
X0126210Y0042742D01*
X0125506Y0043446D01*
X0124701Y0044031D01*
X0123814Y0044483D01*
X0122867Y0044791D01*
X0121884Y0044946D01*
X0121561Y0044946D01*
X0121561Y0034671D01*
X0121211Y0034671D01*
X0121211Y0044946D01*
X0120888Y0044946D01*
X0119905Y0044791D01*
X0118958Y0044483D01*
X0118071Y0044031D01*
X0117265Y0043446D01*
X0116561Y0042742D01*
X0115976Y0041936D01*
X0115524Y0041049D01*
X0115216Y0040102D01*
X0115061Y0039119D01*
X0115061Y0034671D01*
X0121211Y0034671D01*
X0121211Y0034321D01*
X0121561Y0034321D01*
X0121561Y0024046D01*
X0121884Y0024046D01*
X0122867Y0024201D01*
X0123814Y0024509D01*
X0121561Y0024587D02*
X0121211Y0024587D01*
X0121211Y0024046D02*
X0121211Y0034321D01*
X0115061Y0034321D01*
X0115061Y0029873D01*
X0115216Y0028890D01*
X0115524Y0027943D01*
X0115976Y0027056D01*
X0116561Y0026250D01*
X0117265Y0025546D01*
X0118071Y0024961D01*
X0118958Y0024509D01*
X0119905Y0024201D01*
X0120888Y0024046D01*
X0121211Y0024046D01*
X0118806Y0024587D02*
X0109104Y0024587D01*
X0110392Y0026985D02*
X0116027Y0026985D01*
X0115138Y0029384D02*
X0111026Y0029384D01*
X0111026Y0031782D02*
X0115061Y0031782D01*
X0115061Y0034181D02*
X0111026Y0034181D01*
X0111026Y0036579D02*
X0115061Y0036579D01*
X0115061Y0038978D02*
X0113014Y0038978D01*
X0115272Y0041376D02*
X0115691Y0041376D01*
X0116087Y0043775D02*
X0117718Y0043775D01*
X0116087Y0046173D02*
X0125357Y0046173D01*
X0125054Y0043775D02*
X0127756Y0043775D01*
X0127081Y0041376D02*
X0132276Y0041376D01*
X0131903Y0038978D02*
X0127711Y0038978D01*
X0127711Y0036579D02*
X0131903Y0036579D01*
X0131903Y0034181D02*
X0127711Y0034181D01*
X0127711Y0031782D02*
X0131903Y0031782D01*
X0131903Y0029384D02*
X0127633Y0029384D01*
X0126744Y0026985D02*
X0132537Y0026985D01*
X0121561Y0026985D02*
X0121211Y0026985D01*
X0121211Y0029384D02*
X0121561Y0029384D01*
X0121561Y0031782D02*
X0121211Y0031782D01*
X0121211Y0034181D02*
X0121561Y0034181D01*
X0121561Y0036579D02*
X0121211Y0036579D01*
X0121211Y0038978D02*
X0121561Y0038978D01*
X0121561Y0041376D02*
X0121211Y0041376D01*
X0121211Y0043775D02*
X0121561Y0043775D01*
X0122959Y0048572D02*
X0116087Y0048572D01*
X0116087Y0050970D02*
X0120560Y0050970D01*
X0118162Y0053369D02*
X0116087Y0053369D01*
X0150554Y0031782D02*
X0151588Y0031782D01*
X0151588Y0029384D02*
X0150554Y0029384D01*
X0149919Y0026985D02*
X0152222Y0026985D01*
X0153510Y0024587D02*
X0148632Y0024587D01*
X0145841Y0022188D02*
X0156300Y0022188D01*
X0165526Y0022188D02*
X0165671Y0022188D01*
X0173048Y0012594D02*
X0332446Y0012594D01*
X0332446Y0010196D02*
X0170649Y0010196D01*
X0015272Y0010196D02*
X0008200Y0010196D01*
X0008200Y0012594D02*
X0012873Y0012594D01*
X0010475Y0014993D02*
X0008200Y0014993D01*
D26*
X0289200Y0081300D02*
X0310237Y0081300D01*
X0332134Y0103197D01*
X0332134Y0116780D01*
X0330559Y0118354D01*
M02*
