G75*
%MOIN*%
%OFA0B0*%
%FSLAX25Y25*%
%IPPOS*%
%LPD*%
%AMOC8*
5,1,8,0,0,1.08239X$1,22.5*
%
%ADD10C,0.06600*%
%ADD11C,0.13000*%
%ADD12C,0.06000*%
%ADD13C,0.08250*%
%ADD14C,0.04000*%
%ADD15C,0.02400*%
%ADD16C,0.01000*%
%ADD17C,0.01600*%
%ADD18C,0.04000*%
D10*
X0280869Y0071346D03*
X0288669Y0071346D03*
X0288669Y0081189D03*
X0280869Y0081189D03*
D11*
X0299369Y0099968D03*
X0299369Y0052568D03*
D12*
X0255638Y0079654D03*
X0245638Y0079654D03*
X0235638Y0079654D03*
X0225638Y0079654D03*
X0215638Y0079654D03*
D13*
X0220126Y0038621D02*
X0220126Y0030371D01*
X0239811Y0030371D02*
X0239811Y0038621D01*
X0200441Y0038621D02*
X0200441Y0030371D01*
X0180598Y0030371D02*
X0180598Y0038621D01*
X0160913Y0038621D02*
X0160913Y0030371D01*
X0141228Y0030371D02*
X0141228Y0038621D01*
X0121386Y0038621D02*
X0121386Y0030371D01*
X0101701Y0030371D02*
X0101701Y0038621D01*
X0082016Y0038621D02*
X0082016Y0030371D01*
X0062646Y0030371D02*
X0062646Y0038621D01*
X0042961Y0038621D02*
X0042961Y0030371D01*
X0023276Y0030371D02*
X0023276Y0038621D01*
X0023433Y0162930D02*
X0023433Y0171180D01*
X0043433Y0171180D02*
X0043433Y0162930D01*
X0062882Y0162930D02*
X0062882Y0171180D01*
X0082882Y0171180D02*
X0082882Y0162930D01*
X0102331Y0162930D02*
X0102331Y0171180D01*
X0122331Y0171180D02*
X0122331Y0162930D01*
X0141583Y0162930D02*
X0141583Y0171180D01*
X0161583Y0171180D02*
X0161583Y0162930D01*
X0180953Y0162930D02*
X0180953Y0171180D01*
X0200953Y0171180D02*
X0200953Y0162930D01*
X0220520Y0162930D02*
X0220520Y0171180D01*
X0240520Y0171180D02*
X0240520Y0162930D01*
X0259693Y0162930D02*
X0259693Y0171180D01*
X0279693Y0171180D02*
X0279693Y0162930D01*
X0299063Y0162930D02*
X0299063Y0171180D01*
X0319063Y0171180D02*
X0319063Y0162930D01*
D14*
X0180300Y0090300D03*
X0140700Y0106500D03*
X0120900Y0095700D03*
X0108300Y0108300D03*
X0126300Y0131700D03*
X0136200Y0141600D03*
X0149700Y0149700D03*
X0162646Y0139024D03*
X0137100Y0076800D03*
X0156900Y0045300D03*
X0225300Y0069600D03*
X0076800Y0066000D03*
X0073200Y0076800D03*
D15*
X0137100Y0076800D01*
X0132528Y0085283D02*
X0128984Y0088827D01*
X0128984Y0104575D01*
X0131150Y0106740D01*
X0140460Y0106740D01*
X0140700Y0106500D01*
X0144397Y0102803D01*
X0159299Y0102803D01*
X0171802Y0090300D01*
X0180300Y0090300D01*
X0180165Y0090165D01*
X0180165Y0068157D01*
X0200100Y0048223D01*
X0200100Y0034500D01*
X0200437Y0034500D01*
X0200441Y0034496D01*
X0190402Y0025835D02*
X0198276Y0017961D01*
X0215992Y0017961D01*
X0219929Y0021898D01*
X0219929Y0034299D01*
X0220126Y0034496D01*
X0239700Y0034500D02*
X0239704Y0034496D01*
X0239811Y0034496D01*
X0239700Y0034500D02*
X0239700Y0041103D01*
X0227803Y0053000D01*
X0220913Y0053000D01*
X0214417Y0059496D01*
X0214417Y0078433D01*
X0215638Y0079654D01*
X0216583Y0080598D01*
X0216583Y0088236D01*
X0221504Y0093157D01*
X0281346Y0093157D01*
X0288669Y0085835D01*
X0288669Y0081189D01*
X0280869Y0081189D02*
X0279334Y0079654D01*
X0255638Y0079654D01*
X0235638Y0079654D02*
X0234890Y0078906D01*
X0234890Y0074063D01*
X0230427Y0069600D01*
X0225300Y0069600D01*
X0190402Y0046307D02*
X0190402Y0025835D01*
X0180598Y0020559D02*
X0178000Y0017961D01*
X0126425Y0017961D01*
X0122488Y0021898D01*
X0122488Y0023276D01*
X0118748Y0019535D01*
X0068157Y0019535D01*
X0062646Y0025047D01*
X0062646Y0034496D01*
X0062646Y0051846D01*
X0076800Y0066000D01*
X0090992Y0052016D02*
X0133709Y0052016D01*
X0134496Y0051228D01*
X0134496Y0060087D01*
X0141976Y0067567D01*
X0154181Y0067567D01*
X0162252Y0075638D01*
X0162252Y0082331D01*
X0159299Y0085283D01*
X0132528Y0085283D01*
X0121110Y0095910D02*
X0120900Y0095700D01*
X0121110Y0095910D02*
X0121110Y0102803D01*
X0115613Y0108300D01*
X0108300Y0108300D01*
X0126300Y0131700D02*
X0179535Y0131700D01*
X0201031Y0153197D01*
X0201031Y0166976D01*
X0200953Y0167055D01*
X0220520Y0167055D02*
X0220520Y0152016D01*
X0229969Y0142567D01*
X0277606Y0142567D01*
X0283315Y0148276D01*
X0293551Y0148276D01*
X0299260Y0153984D01*
X0299260Y0166858D01*
X0299063Y0167055D01*
X0259693Y0167055D02*
X0259693Y0179575D01*
X0255953Y0183315D01*
X0184299Y0183315D01*
X0181346Y0180362D01*
X0181543Y0180165D01*
X0181543Y0167646D01*
X0180953Y0167055D01*
X0181346Y0180362D02*
X0177803Y0183906D01*
X0108315Y0183906D01*
X0102606Y0178197D01*
X0102606Y0167331D01*
X0102331Y0167055D01*
X0102606Y0178197D02*
X0102606Y0178787D01*
X0097882Y0183512D01*
X0031346Y0183512D01*
X0023433Y0175598D01*
X0023433Y0167055D01*
X0062882Y0167055D02*
X0063137Y0166800D01*
X0063300Y0166800D01*
X0063300Y0157267D01*
X0074260Y0146307D01*
X0086465Y0146307D01*
X0091780Y0140992D01*
X0127606Y0140992D01*
X0133118Y0135480D01*
X0145126Y0135480D01*
X0149260Y0139614D01*
X0149260Y0149260D01*
X0149700Y0149700D01*
X0141583Y0157817D01*
X0141583Y0167055D01*
X0127556Y0150244D02*
X0136200Y0141600D01*
X0127556Y0150244D02*
X0095323Y0150244D01*
X0083100Y0162467D01*
X0083100Y0166837D01*
X0082882Y0167055D01*
X0090992Y0052016D02*
X0082200Y0043224D01*
X0082200Y0034500D01*
X0082196Y0034496D01*
X0082016Y0034496D01*
X0121386Y0034496D02*
X0122488Y0033394D01*
X0122488Y0023276D01*
X0140402Y0035323D02*
X0141228Y0034496D01*
X0140402Y0035323D02*
X0140402Y0045323D01*
X0134496Y0051228D01*
X0156900Y0047845D02*
X0156900Y0045300D01*
X0156900Y0047845D02*
X0160677Y0051622D01*
X0185087Y0051622D01*
X0190402Y0046307D01*
X0180598Y0034496D02*
X0180598Y0020559D01*
D16*
X0215638Y0079654D02*
X0216300Y0079500D01*
D17*
X0166386Y0139024D02*
X0162646Y0139024D01*
X0166386Y0139024D02*
X0180953Y0153591D01*
X0180953Y0167055D01*
D18*
X0009000Y0065385D02*
X0009000Y0009000D01*
X0331646Y0009000D01*
X0331646Y0193850D01*
X0009000Y0193850D01*
X0009000Y0137465D01*
X0010834Y0139299D01*
X0013773Y0140996D01*
X0017051Y0141874D01*
X0020445Y0141874D01*
X0023723Y0140996D01*
X0026663Y0139299D01*
X0029062Y0136899D01*
X0030759Y0133960D01*
X0031638Y0130681D01*
X0031638Y0127287D01*
X0030759Y0124009D01*
X0029062Y0121070D01*
X0026663Y0118670D01*
X0023723Y0116973D01*
X0020445Y0116094D01*
X0017051Y0116094D01*
X0013773Y0116973D01*
X0010834Y0118670D01*
X0009000Y0120503D01*
X0009000Y0082347D01*
X0010834Y0084181D01*
X0013773Y0085877D01*
X0017051Y0086756D01*
X0020445Y0086756D01*
X0023723Y0085877D01*
X0026663Y0084181D01*
X0029062Y0081781D01*
X0030759Y0078841D01*
X0031638Y0075563D01*
X0031638Y0072169D01*
X0030759Y0068891D01*
X0029062Y0065952D01*
X0026663Y0063552D01*
X0023723Y0061855D01*
X0020445Y0060976D01*
X0017051Y0060976D01*
X0013773Y0061855D01*
X0010834Y0063552D01*
X0009000Y0065385D01*
X0009000Y0062978D02*
X0011828Y0062978D01*
X0009000Y0058979D02*
X0059597Y0058979D01*
X0056542Y0055924D02*
X0055446Y0053278D01*
X0055446Y0045740D01*
X0054543Y0044838D01*
X0053210Y0042529D01*
X0052803Y0041009D01*
X0052396Y0042529D01*
X0051063Y0044838D01*
X0049178Y0046723D01*
X0046869Y0048056D01*
X0044294Y0048746D01*
X0041628Y0048746D01*
X0039052Y0048056D01*
X0036744Y0046723D01*
X0034858Y0044838D01*
X0033525Y0042529D01*
X0033118Y0041009D01*
X0032711Y0042529D01*
X0031378Y0044838D01*
X0029493Y0046723D01*
X0027184Y0048056D01*
X0024609Y0048746D01*
X0021943Y0048746D01*
X0019367Y0048056D01*
X0017059Y0046723D01*
X0015173Y0044838D01*
X0013840Y0042529D01*
X0013150Y0039954D01*
X0013150Y0029038D01*
X0013840Y0026463D01*
X0015173Y0024154D01*
X0017059Y0022269D01*
X0019367Y0020936D01*
X0021943Y0020246D01*
X0024609Y0020246D01*
X0027184Y0020936D01*
X0029493Y0022269D01*
X0031378Y0024154D01*
X0032711Y0026463D01*
X0033118Y0027983D01*
X0033525Y0026463D01*
X0034858Y0024154D01*
X0036744Y0022269D01*
X0039052Y0020936D01*
X0041628Y0020246D01*
X0044294Y0020246D01*
X0046869Y0020936D01*
X0049178Y0022269D01*
X0051063Y0024154D01*
X0052396Y0026463D01*
X0052803Y0027983D01*
X0053210Y0026463D01*
X0054543Y0024154D01*
X0055703Y0022995D01*
X0056542Y0020969D01*
X0062054Y0015457D01*
X0064079Y0013432D01*
X0066725Y0012335D01*
X0120180Y0012335D01*
X0121374Y0012830D01*
X0122347Y0011857D01*
X0124993Y0010761D01*
X0179432Y0010761D01*
X0182078Y0011857D01*
X0184104Y0013882D01*
X0186702Y0016481D01*
X0187543Y0018511D01*
X0192172Y0013882D01*
X0194197Y0011857D01*
X0196843Y0010761D01*
X0217424Y0010761D01*
X0220071Y0011857D01*
X0224008Y0015794D01*
X0226033Y0017819D01*
X0227129Y0020465D01*
X0227129Y0023055D01*
X0228228Y0024154D01*
X0229561Y0026463D01*
X0229968Y0027983D01*
X0230376Y0026463D01*
X0231709Y0024154D01*
X0233594Y0022269D01*
X0235903Y0020936D01*
X0238478Y0020246D01*
X0241144Y0020246D01*
X0243719Y0020936D01*
X0246028Y0022269D01*
X0247913Y0024154D01*
X0249246Y0026463D01*
X0249936Y0029038D01*
X0249936Y0039954D01*
X0249246Y0042529D01*
X0247913Y0044838D01*
X0246028Y0046723D01*
X0243719Y0048056D01*
X0242640Y0048346D01*
X0233907Y0057078D01*
X0231882Y0059104D01*
X0229235Y0060200D01*
X0223896Y0060200D01*
X0221638Y0062458D01*
X0223709Y0061600D01*
X0226891Y0061600D01*
X0228823Y0062400D01*
X0231859Y0062400D01*
X0234505Y0063496D01*
X0238968Y0067959D01*
X0240994Y0069985D01*
X0241648Y0071565D01*
X0243848Y0070654D01*
X0247428Y0070654D01*
X0250638Y0071983D01*
X0253848Y0070654D01*
X0257428Y0070654D01*
X0260736Y0072024D01*
X0261166Y0072454D01*
X0271569Y0072454D01*
X0271569Y0069497D01*
X0272985Y0066078D01*
X0275601Y0063462D01*
X0279019Y0062046D01*
X0282719Y0062046D01*
X0284769Y0062896D01*
X0286819Y0062046D01*
X0290519Y0062046D01*
X0291631Y0062507D01*
X0289367Y0060243D01*
X0287721Y0057393D01*
X0286869Y0054213D01*
X0286869Y0050922D01*
X0287721Y0047743D01*
X0289367Y0044893D01*
X0291694Y0042565D01*
X0294544Y0040920D01*
X0297724Y0040068D01*
X0301015Y0040068D01*
X0304194Y0040920D01*
X0307044Y0042565D01*
X0309372Y0044893D01*
X0311017Y0047743D01*
X0311869Y0050922D01*
X0311869Y0054213D01*
X0311017Y0057393D01*
X0309372Y0060243D01*
X0307044Y0062570D01*
X0304194Y0064216D01*
X0301015Y0065068D01*
X0297724Y0065068D01*
X0294744Y0064269D01*
X0296553Y0066078D01*
X0297969Y0069497D01*
X0297969Y0073196D01*
X0296697Y0076268D01*
X0297969Y0079339D01*
X0297969Y0083039D01*
X0296553Y0086457D01*
X0295869Y0087141D01*
X0295869Y0087267D01*
X0295544Y0088052D01*
X0297724Y0087468D01*
X0301015Y0087468D01*
X0304194Y0088320D01*
X0307044Y0089965D01*
X0309372Y0092293D01*
X0311017Y0095143D01*
X0311869Y0098322D01*
X0311869Y0101613D01*
X0311017Y0104793D01*
X0309372Y0107643D01*
X0307044Y0109970D01*
X0304194Y0111616D01*
X0301015Y0112468D01*
X0297724Y0112468D01*
X0294544Y0111616D01*
X0291694Y0109970D01*
X0289367Y0107643D01*
X0287721Y0104793D01*
X0286869Y0101613D01*
X0286869Y0098322D01*
X0287054Y0097632D01*
X0285425Y0099261D01*
X0282779Y0100357D01*
X0220072Y0100357D01*
X0217425Y0099261D01*
X0212504Y0094340D01*
X0210479Y0092315D01*
X0209383Y0089668D01*
X0209383Y0086126D01*
X0208008Y0084752D01*
X0206638Y0081444D01*
X0206638Y0077863D01*
X0207217Y0076464D01*
X0207217Y0058064D01*
X0208313Y0055418D01*
X0210339Y0053392D01*
X0215873Y0047858D01*
X0213909Y0046723D01*
X0212024Y0044838D01*
X0210691Y0042529D01*
X0210283Y0041009D01*
X0209876Y0042529D01*
X0208543Y0044838D01*
X0207300Y0046081D01*
X0207300Y0049655D01*
X0206204Y0052301D01*
X0187365Y0071140D01*
X0187365Y0086452D01*
X0188300Y0088709D01*
X0188300Y0091891D01*
X0187082Y0094832D01*
X0184832Y0097082D01*
X0181891Y0098300D01*
X0178709Y0098300D01*
X0176777Y0097500D01*
X0174785Y0097500D01*
X0163378Y0108907D01*
X0160731Y0110003D01*
X0147908Y0110003D01*
X0147482Y0111032D01*
X0145232Y0113282D01*
X0142291Y0114500D01*
X0139109Y0114500D01*
X0137757Y0113940D01*
X0129717Y0113940D01*
X0127071Y0112844D01*
X0125046Y0110819D01*
X0124161Y0109934D01*
X0119692Y0114404D01*
X0117046Y0115500D01*
X0111823Y0115500D01*
X0109891Y0116300D01*
X0106709Y0116300D01*
X0103768Y0115082D01*
X0101518Y0112832D01*
X0100300Y0109891D01*
X0100300Y0106709D01*
X0101518Y0103768D01*
X0103768Y0101518D01*
X0106709Y0100300D01*
X0109891Y0100300D01*
X0111823Y0101100D01*
X0112631Y0101100D01*
X0113910Y0099821D01*
X0113910Y0099730D01*
X0112900Y0097291D01*
X0112900Y0094109D01*
X0114118Y0091168D01*
X0116368Y0088918D01*
X0119309Y0087700D01*
X0121784Y0087700D01*
X0121784Y0087395D01*
X0122880Y0084748D01*
X0123629Y0084000D01*
X0076723Y0084000D01*
X0074791Y0084800D01*
X0071609Y0084800D01*
X0068668Y0083582D01*
X0066418Y0081332D01*
X0065200Y0078391D01*
X0065200Y0075209D01*
X0066418Y0072268D01*
X0068668Y0070018D01*
X0069639Y0069616D01*
X0069218Y0068600D01*
X0056542Y0055924D01*
X0056151Y0054981D02*
X0009000Y0054981D01*
X0009000Y0050982D02*
X0055446Y0050982D01*
X0055446Y0046984D02*
X0048727Y0046984D01*
X0052133Y0042985D02*
X0053474Y0042985D01*
X0069846Y0045740D02*
X0070748Y0044838D01*
X0072081Y0042529D01*
X0072331Y0041597D01*
X0072581Y0042529D01*
X0073914Y0044838D01*
X0075799Y0046723D01*
X0075875Y0046767D01*
X0076096Y0047302D01*
X0084888Y0056094D01*
X0086914Y0058120D01*
X0089560Y0059216D01*
X0127296Y0059216D01*
X0127296Y0061519D01*
X0128392Y0064165D01*
X0133754Y0069527D01*
X0133577Y0069600D01*
X0083968Y0069600D01*
X0084800Y0067591D01*
X0084800Y0064409D01*
X0083582Y0061468D01*
X0081332Y0059218D01*
X0079400Y0058418D01*
X0069846Y0048863D01*
X0069846Y0045740D01*
X0069846Y0046984D02*
X0075964Y0046984D01*
X0072844Y0042985D02*
X0071818Y0042985D01*
X0071964Y0050982D02*
X0079776Y0050982D01*
X0075963Y0054981D02*
X0083775Y0054981D01*
X0080755Y0058979D02*
X0088989Y0058979D01*
X0084207Y0062978D02*
X0127900Y0062978D01*
X0131203Y0066976D02*
X0084800Y0066976D01*
X0067594Y0066976D02*
X0029654Y0066976D01*
X0031318Y0070975D02*
X0067712Y0070975D01*
X0065298Y0074973D02*
X0031638Y0074973D01*
X0030684Y0078972D02*
X0065440Y0078972D01*
X0068057Y0082970D02*
X0027873Y0082970D01*
X0009623Y0082970D02*
X0009000Y0082970D01*
X0009000Y0086969D02*
X0121961Y0086969D01*
X0114319Y0090967D02*
X0009000Y0090967D01*
X0009000Y0094966D02*
X0112900Y0094966D01*
X0113593Y0098964D02*
X0009000Y0098964D01*
X0009000Y0102963D02*
X0102323Y0102963D01*
X0100300Y0106961D02*
X0009000Y0106961D01*
X0009000Y0110960D02*
X0100743Y0110960D01*
X0103645Y0114958D02*
X0009000Y0114958D01*
X0009000Y0118957D02*
X0010547Y0118957D01*
X0026949Y0118957D02*
X0290074Y0118957D01*
X0290361Y0118670D02*
X0293300Y0116973D01*
X0296579Y0116094D01*
X0299973Y0116094D01*
X0303251Y0116973D01*
X0306190Y0118670D01*
X0308590Y0121070D01*
X0310287Y0124009D01*
X0311165Y0127287D01*
X0311165Y0130681D01*
X0310287Y0133960D01*
X0308590Y0136899D01*
X0306190Y0139299D01*
X0303251Y0140996D01*
X0299973Y0141874D01*
X0296911Y0141874D01*
X0297630Y0142172D01*
X0299655Y0144197D01*
X0299655Y0144197D01*
X0303338Y0147880D01*
X0305364Y0149906D01*
X0306460Y0152552D01*
X0306460Y0156008D01*
X0307165Y0156713D01*
X0308498Y0159022D01*
X0309063Y0161130D01*
X0309628Y0159022D01*
X0310961Y0156713D01*
X0312846Y0154828D01*
X0315155Y0153495D01*
X0317730Y0152805D01*
X0320396Y0152805D01*
X0322971Y0153495D01*
X0325280Y0154828D01*
X0327165Y0156713D01*
X0328498Y0159022D01*
X0329188Y0161597D01*
X0329188Y0172513D01*
X0328498Y0175088D01*
X0327165Y0177397D01*
X0325280Y0179282D01*
X0322971Y0180615D01*
X0320396Y0181305D01*
X0317730Y0181305D01*
X0315155Y0180615D01*
X0312846Y0179282D01*
X0310961Y0177397D01*
X0309628Y0175088D01*
X0309063Y0172981D01*
X0308498Y0175088D01*
X0307165Y0177397D01*
X0305280Y0179282D01*
X0302971Y0180615D01*
X0300396Y0181305D01*
X0297730Y0181305D01*
X0295155Y0180615D01*
X0292846Y0179282D01*
X0290961Y0177397D01*
X0289628Y0175088D01*
X0289378Y0174156D01*
X0289128Y0175088D01*
X0287795Y0177397D01*
X0285910Y0179282D01*
X0283601Y0180615D01*
X0281026Y0181305D01*
X0278360Y0181305D01*
X0275785Y0180615D01*
X0273476Y0179282D01*
X0271591Y0177397D01*
X0270258Y0175088D01*
X0269693Y0172981D01*
X0269128Y0175088D01*
X0267795Y0177397D01*
X0266893Y0178300D01*
X0266893Y0181007D01*
X0265797Y0183653D01*
X0262057Y0187393D01*
X0260031Y0189419D01*
X0257385Y0190515D01*
X0182867Y0190515D01*
X0181764Y0190058D01*
X0179235Y0191105D01*
X0106883Y0191105D01*
X0104236Y0190009D01*
X0102902Y0188674D01*
X0101960Y0189616D01*
X0099314Y0190712D01*
X0029914Y0190712D01*
X0027268Y0189616D01*
X0025243Y0187590D01*
X0017329Y0179677D01*
X0017130Y0179197D01*
X0015331Y0177397D01*
X0013998Y0175088D01*
X0013308Y0172513D01*
X0013308Y0161597D01*
X0013998Y0159022D01*
X0015331Y0156713D01*
X0017216Y0154828D01*
X0019525Y0153495D01*
X0022100Y0152805D01*
X0024766Y0152805D01*
X0027341Y0153495D01*
X0029650Y0154828D01*
X0031535Y0156713D01*
X0032868Y0159022D01*
X0033433Y0161130D01*
X0033998Y0159022D01*
X0035331Y0156713D01*
X0037216Y0154828D01*
X0039525Y0153495D01*
X0042100Y0152805D01*
X0044766Y0152805D01*
X0047341Y0153495D01*
X0049650Y0154828D01*
X0051535Y0156713D01*
X0052868Y0159022D01*
X0053157Y0160101D01*
X0053447Y0159022D01*
X0054780Y0156713D01*
X0056413Y0155080D01*
X0057196Y0153188D01*
X0068156Y0142229D01*
X0070181Y0140203D01*
X0072828Y0139107D01*
X0083482Y0139107D01*
X0085676Y0136914D01*
X0087701Y0134888D01*
X0090347Y0133792D01*
X0118507Y0133792D01*
X0118300Y0133291D01*
X0118300Y0130109D01*
X0119518Y0127168D01*
X0121768Y0124918D01*
X0124709Y0123700D01*
X0127891Y0123700D01*
X0129823Y0124500D01*
X0180967Y0124500D01*
X0183613Y0125596D01*
X0205110Y0147093D01*
X0207135Y0149118D01*
X0208231Y0151765D01*
X0208231Y0155889D01*
X0209055Y0156713D01*
X0210388Y0159022D01*
X0210736Y0160322D01*
X0211084Y0159022D01*
X0212418Y0156713D01*
X0213320Y0155811D01*
X0213320Y0150584D01*
X0214416Y0147937D01*
X0223865Y0138488D01*
X0225890Y0136463D01*
X0228536Y0135367D01*
X0279038Y0135367D01*
X0281685Y0136463D01*
X0286297Y0141076D01*
X0293599Y0141076D01*
X0293300Y0140996D01*
X0290361Y0139299D01*
X0287961Y0136899D01*
X0286264Y0133960D01*
X0285386Y0130681D01*
X0285386Y0127287D01*
X0286264Y0124009D01*
X0287961Y0121070D01*
X0290361Y0118670D01*
X0286873Y0122955D02*
X0030151Y0122955D01*
X0031548Y0126954D02*
X0119732Y0126954D01*
X0118300Y0130952D02*
X0031565Y0130952D01*
X0030187Y0134951D02*
X0087638Y0134951D01*
X0083640Y0138949D02*
X0027012Y0138949D01*
X0010484Y0138949D02*
X0009000Y0138949D01*
X0009000Y0142948D02*
X0067437Y0142948D01*
X0063438Y0146946D02*
X0009000Y0146946D01*
X0009000Y0150945D02*
X0059440Y0150945D01*
X0056469Y0154943D02*
X0049766Y0154943D01*
X0052822Y0158942D02*
X0053493Y0158942D01*
X0037100Y0154943D02*
X0029766Y0154943D01*
X0032822Y0158942D02*
X0034044Y0158942D01*
X0017100Y0154943D02*
X0009000Y0154943D01*
X0009000Y0158942D02*
X0014044Y0158942D01*
X0013308Y0162940D02*
X0009000Y0162940D01*
X0009000Y0166939D02*
X0013308Y0166939D01*
X0013308Y0170937D02*
X0009000Y0170937D01*
X0009000Y0174936D02*
X0013957Y0174936D01*
X0016868Y0178934D02*
X0009000Y0178934D01*
X0009000Y0182933D02*
X0020585Y0182933D01*
X0024584Y0186932D02*
X0009000Y0186932D01*
X0009000Y0190930D02*
X0106459Y0190930D01*
X0111297Y0176706D02*
X0113829Y0176706D01*
X0112896Y0175088D01*
X0112331Y0172981D01*
X0111766Y0175088D01*
X0111002Y0176411D01*
X0111297Y0176706D01*
X0111807Y0174936D02*
X0112855Y0174936D01*
X0130832Y0176706D02*
X0133081Y0176706D01*
X0132147Y0175088D01*
X0131957Y0174376D01*
X0131766Y0175088D01*
X0130832Y0176706D01*
X0131807Y0174936D02*
X0132107Y0174936D01*
X0150084Y0176706D02*
X0151018Y0175088D01*
X0151583Y0172981D01*
X0152147Y0175088D01*
X0153081Y0176706D01*
X0150084Y0176706D01*
X0151059Y0174936D02*
X0152107Y0174936D01*
X0151583Y0161130D02*
X0152147Y0159022D01*
X0153420Y0156818D01*
X0152300Y0157282D01*
X0150850Y0158732D01*
X0151018Y0159022D01*
X0151583Y0161130D01*
X0150972Y0158942D02*
X0152194Y0158942D01*
X0156508Y0154168D02*
X0157674Y0153495D01*
X0160250Y0152805D01*
X0162916Y0152805D01*
X0165491Y0153495D01*
X0167800Y0154828D01*
X0169685Y0156713D01*
X0171018Y0159022D01*
X0171268Y0159954D01*
X0171518Y0159022D01*
X0172851Y0156713D01*
X0173655Y0155909D01*
X0164613Y0146868D01*
X0164237Y0147024D01*
X0161054Y0147024D01*
X0158114Y0145806D01*
X0156460Y0144151D01*
X0156460Y0145146D01*
X0156482Y0145168D01*
X0157700Y0148109D01*
X0157700Y0151291D01*
X0156508Y0154168D01*
X0157700Y0150945D02*
X0168690Y0150945D01*
X0167915Y0154943D02*
X0172689Y0154943D01*
X0171564Y0158942D02*
X0170972Y0158942D01*
X0187753Y0155411D02*
X0187753Y0152238D01*
X0186718Y0149739D01*
X0184805Y0147826D01*
X0175879Y0138900D01*
X0176552Y0138900D01*
X0193608Y0155956D01*
X0192851Y0156713D01*
X0191518Y0159022D01*
X0190953Y0161130D01*
X0190388Y0159022D01*
X0189055Y0156713D01*
X0187753Y0155411D01*
X0187753Y0154943D02*
X0192596Y0154943D01*
X0191564Y0158942D02*
X0190342Y0158942D01*
X0188597Y0150945D02*
X0187217Y0150945D01*
X0184599Y0146946D02*
X0183925Y0146946D01*
X0180600Y0142948D02*
X0179927Y0142948D01*
X0176602Y0138949D02*
X0175928Y0138949D01*
X0164692Y0146946D02*
X0164423Y0146946D01*
X0160868Y0146946D02*
X0157219Y0146946D01*
X0142060Y0147054D02*
X0140732Y0148382D01*
X0138800Y0149182D01*
X0131634Y0156348D01*
X0130495Y0156820D01*
X0131766Y0159022D01*
X0131957Y0159734D01*
X0132147Y0159022D01*
X0133480Y0156713D01*
X0134789Y0155405D01*
X0135479Y0153739D01*
X0142060Y0147158D01*
X0142060Y0147054D01*
X0138273Y0150945D02*
X0137037Y0150945D01*
X0134980Y0154943D02*
X0133039Y0154943D01*
X0132194Y0158942D02*
X0131720Y0158942D01*
X0113806Y0157444D02*
X0110855Y0157444D01*
X0111766Y0159022D01*
X0112331Y0161130D01*
X0112896Y0159022D01*
X0113806Y0157444D01*
X0112942Y0158942D02*
X0111720Y0158942D01*
X0092606Y0174009D02*
X0092317Y0175088D01*
X0091611Y0176312D01*
X0093602Y0176312D01*
X0092896Y0175088D01*
X0092606Y0174009D01*
X0092358Y0174936D02*
X0092855Y0174936D01*
X0074153Y0176312D02*
X0073447Y0175088D01*
X0072882Y0172981D01*
X0072317Y0175088D01*
X0071611Y0176312D01*
X0074153Y0176312D01*
X0073406Y0174936D02*
X0072358Y0174936D01*
X0054153Y0176312D02*
X0053447Y0175088D01*
X0053157Y0174009D01*
X0052868Y0175088D01*
X0052162Y0176312D01*
X0054153Y0176312D01*
X0053406Y0174936D02*
X0052909Y0174936D01*
X0034704Y0176312D02*
X0033998Y0175088D01*
X0033433Y0172981D01*
X0032918Y0174901D01*
X0034329Y0176312D01*
X0034704Y0176312D01*
X0033957Y0174936D02*
X0032953Y0174936D01*
X0072882Y0161130D02*
X0072317Y0159022D01*
X0072101Y0158648D01*
X0077242Y0153507D01*
X0078952Y0153507D01*
X0076665Y0154828D01*
X0074780Y0156713D01*
X0073447Y0159022D01*
X0072882Y0161130D01*
X0072271Y0158942D02*
X0073493Y0158942D01*
X0075806Y0154943D02*
X0076549Y0154943D01*
X0118353Y0114958D02*
X0331646Y0114958D01*
X0331646Y0110960D02*
X0305330Y0110960D01*
X0309765Y0106961D02*
X0331646Y0106961D01*
X0331646Y0102963D02*
X0311508Y0102963D01*
X0311869Y0098964D02*
X0331646Y0098964D01*
X0331646Y0094966D02*
X0310915Y0094966D01*
X0308046Y0090967D02*
X0331646Y0090967D01*
X0331646Y0086969D02*
X0296042Y0086969D01*
X0297969Y0082970D02*
X0331646Y0082970D01*
X0331646Y0078972D02*
X0297817Y0078972D01*
X0297233Y0074973D02*
X0331646Y0074973D01*
X0331646Y0070975D02*
X0297969Y0070975D01*
X0296925Y0066976D02*
X0331646Y0066976D01*
X0331646Y0062978D02*
X0306339Y0062978D01*
X0310101Y0058979D02*
X0331646Y0058979D01*
X0331646Y0054981D02*
X0311664Y0054981D01*
X0311869Y0050982D02*
X0331646Y0050982D01*
X0331646Y0046984D02*
X0310579Y0046984D01*
X0307464Y0042985D02*
X0331646Y0042985D01*
X0331646Y0038987D02*
X0301933Y0038987D01*
X0303251Y0038633D02*
X0299973Y0039512D01*
X0296579Y0039512D01*
X0293300Y0038633D01*
X0290361Y0036936D01*
X0287961Y0034537D01*
X0286264Y0031597D01*
X0285386Y0028319D01*
X0285386Y0024925D01*
X0286264Y0021647D01*
X0287961Y0018708D01*
X0290361Y0016308D01*
X0293300Y0014611D01*
X0296579Y0013732D01*
X0299973Y0013732D01*
X0303251Y0014611D01*
X0306190Y0016308D01*
X0308590Y0018708D01*
X0310287Y0021647D01*
X0311165Y0024925D01*
X0311165Y0028319D01*
X0310287Y0031597D01*
X0308590Y0034537D01*
X0306190Y0036936D01*
X0303251Y0038633D01*
X0308138Y0034988D02*
X0331646Y0034988D01*
X0331646Y0030990D02*
X0310450Y0030990D01*
X0311165Y0026991D02*
X0331646Y0026991D01*
X0331646Y0022993D02*
X0310648Y0022993D01*
X0308755Y0018994D02*
X0331646Y0018994D01*
X0331646Y0014996D02*
X0303917Y0014996D01*
X0292634Y0014996D02*
X0223209Y0014996D01*
X0226520Y0018994D02*
X0287796Y0018994D01*
X0285904Y0022993D02*
X0246752Y0022993D01*
X0249388Y0026991D02*
X0285386Y0026991D01*
X0286101Y0030990D02*
X0249936Y0030990D01*
X0249936Y0034988D02*
X0288413Y0034988D01*
X0294619Y0038987D02*
X0249936Y0038987D01*
X0248983Y0042985D02*
X0291274Y0042985D01*
X0288159Y0046984D02*
X0245577Y0046984D01*
X0240003Y0050982D02*
X0286869Y0050982D01*
X0287075Y0054981D02*
X0236005Y0054981D01*
X0232006Y0058979D02*
X0288637Y0058979D01*
X0276771Y0062978D02*
X0233254Y0062978D01*
X0237985Y0066976D02*
X0272613Y0066976D01*
X0271569Y0070975D02*
X0258203Y0070975D01*
X0253072Y0070975D02*
X0248203Y0070975D01*
X0243072Y0070975D02*
X0241404Y0070975D01*
X0209383Y0086969D02*
X0187579Y0086969D01*
X0187365Y0082970D02*
X0207270Y0082970D01*
X0206638Y0078972D02*
X0187365Y0078972D01*
X0187365Y0074973D02*
X0207217Y0074973D01*
X0207217Y0070975D02*
X0187530Y0070975D01*
X0191529Y0066976D02*
X0207217Y0066976D01*
X0207217Y0062978D02*
X0195527Y0062978D01*
X0199526Y0058979D02*
X0207217Y0058979D01*
X0208750Y0054981D02*
X0203525Y0054981D01*
X0206750Y0050982D02*
X0212749Y0050982D01*
X0214360Y0046984D02*
X0207300Y0046984D01*
X0209613Y0042985D02*
X0210954Y0042985D01*
X0210283Y0027983D02*
X0210691Y0026463D01*
X0211443Y0025161D01*
X0209124Y0025161D01*
X0209876Y0026463D01*
X0210283Y0027983D01*
X0210018Y0026991D02*
X0210549Y0026991D01*
X0227129Y0022993D02*
X0232870Y0022993D01*
X0230234Y0026991D02*
X0229703Y0026991D01*
X0217995Y0010997D02*
X0331646Y0010997D01*
X0196273Y0010997D02*
X0180003Y0010997D01*
X0185217Y0014996D02*
X0191058Y0014996D01*
X0171915Y0025161D02*
X0169597Y0025161D01*
X0170349Y0026463D01*
X0170756Y0027983D01*
X0171163Y0026463D01*
X0171915Y0025161D01*
X0171022Y0026991D02*
X0170490Y0026991D01*
X0170756Y0041009D02*
X0170349Y0042529D01*
X0169256Y0044422D01*
X0172256Y0044422D01*
X0171163Y0042529D01*
X0170756Y0041009D01*
X0170085Y0042985D02*
X0171426Y0042985D01*
X0154573Y0055701D02*
X0150796Y0051923D01*
X0149700Y0049277D01*
X0149700Y0048823D01*
X0148900Y0046891D01*
X0148900Y0045269D01*
X0147602Y0046567D01*
X0147602Y0046755D01*
X0146505Y0049401D01*
X0144480Y0051427D01*
X0141696Y0054211D01*
X0141696Y0057104D01*
X0144959Y0060367D01*
X0155613Y0060367D01*
X0158260Y0061463D01*
X0166330Y0069534D01*
X0168356Y0071559D01*
X0169452Y0074206D01*
X0169452Y0083480D01*
X0170370Y0083100D01*
X0172965Y0083100D01*
X0172965Y0066725D01*
X0174061Y0064079D01*
X0176087Y0062054D01*
X0179318Y0058822D01*
X0159245Y0058822D01*
X0156599Y0057726D01*
X0154573Y0055701D01*
X0153853Y0054981D02*
X0141696Y0054981D01*
X0143571Y0058979D02*
X0179161Y0058979D01*
X0175163Y0062978D02*
X0159774Y0062978D01*
X0163773Y0066976D02*
X0172965Y0066976D01*
X0172965Y0070975D02*
X0167771Y0070975D01*
X0169452Y0074973D02*
X0172965Y0074973D01*
X0172965Y0078972D02*
X0169452Y0078972D01*
X0169452Y0082970D02*
X0172965Y0082970D01*
X0159437Y0092483D02*
X0156317Y0095603D01*
X0142965Y0095603D01*
X0140318Y0096699D01*
X0138100Y0098918D01*
X0136598Y0099540D01*
X0136184Y0099540D01*
X0136184Y0092483D01*
X0159437Y0092483D01*
X0156954Y0094966D02*
X0136184Y0094966D01*
X0136184Y0098964D02*
X0137988Y0098964D01*
X0147512Y0110960D02*
X0293408Y0110960D01*
X0288973Y0106961D02*
X0165323Y0106961D01*
X0169322Y0102963D02*
X0287231Y0102963D01*
X0286869Y0098964D02*
X0285722Y0098964D01*
X0306477Y0118957D02*
X0331646Y0118957D01*
X0331646Y0122955D02*
X0309679Y0122955D01*
X0311076Y0126954D02*
X0331646Y0126954D01*
X0331646Y0130952D02*
X0311093Y0130952D01*
X0309715Y0134951D02*
X0331646Y0134951D01*
X0331646Y0138949D02*
X0306539Y0138949D01*
X0298406Y0142948D02*
X0331646Y0142948D01*
X0331646Y0146946D02*
X0302404Y0146946D01*
X0303338Y0147880D02*
X0303338Y0147880D01*
X0305794Y0150945D02*
X0331646Y0150945D01*
X0331646Y0154943D02*
X0325396Y0154943D01*
X0328452Y0158942D02*
X0331646Y0158942D01*
X0331646Y0162940D02*
X0329188Y0162940D01*
X0329188Y0166939D02*
X0331646Y0166939D01*
X0331646Y0170937D02*
X0329188Y0170937D01*
X0328539Y0174936D02*
X0331646Y0174936D01*
X0331646Y0178934D02*
X0325628Y0178934D01*
X0331646Y0182933D02*
X0266095Y0182933D01*
X0266893Y0178934D02*
X0273128Y0178934D01*
X0270217Y0174936D02*
X0269169Y0174936D01*
X0286258Y0178934D02*
X0292498Y0178934D01*
X0289587Y0174936D02*
X0289169Y0174936D01*
X0305628Y0178934D02*
X0312498Y0178934D01*
X0309587Y0174936D02*
X0308539Y0174936D01*
X0331646Y0186932D02*
X0262519Y0186932D01*
X0250850Y0176115D02*
X0250258Y0175088D01*
X0250106Y0174523D01*
X0249955Y0175088D01*
X0249362Y0176115D01*
X0250850Y0176115D01*
X0250217Y0174936D02*
X0249996Y0174936D01*
X0231677Y0176115D02*
X0231084Y0175088D01*
X0230520Y0172981D01*
X0229955Y0175088D01*
X0229362Y0176115D01*
X0231677Y0176115D01*
X0231044Y0174936D02*
X0229996Y0174936D01*
X0211677Y0176115D02*
X0211084Y0175088D01*
X0210736Y0173789D01*
X0210388Y0175088D01*
X0209795Y0176115D01*
X0211677Y0176115D01*
X0211044Y0174936D02*
X0210429Y0174936D01*
X0192110Y0176115D02*
X0191518Y0175088D01*
X0190953Y0172981D01*
X0190388Y0175088D01*
X0189795Y0176115D01*
X0192110Y0176115D01*
X0191477Y0174936D02*
X0190429Y0174936D01*
X0172451Y0176706D02*
X0171518Y0175088D01*
X0171268Y0174156D01*
X0171018Y0175088D01*
X0170084Y0176706D01*
X0172451Y0176706D01*
X0171477Y0174936D02*
X0171059Y0174936D01*
X0179659Y0190930D02*
X0331646Y0190930D01*
X0343000Y0202603D02*
X0342835Y0203000D01*
X0343000Y0203000D01*
X0343000Y0202603D01*
X0343000Y0202926D02*
X0342866Y0202926D01*
X0309674Y0158942D02*
X0308452Y0158942D01*
X0306460Y0154943D02*
X0312730Y0154943D01*
X0291383Y0156290D02*
X0290569Y0155476D01*
X0286558Y0155476D01*
X0287795Y0156713D01*
X0289128Y0159022D01*
X0289378Y0159954D01*
X0289628Y0159022D01*
X0290961Y0156713D01*
X0291383Y0156290D01*
X0289674Y0158942D02*
X0289082Y0158942D01*
X0277809Y0152952D02*
X0277211Y0152354D01*
X0274624Y0149767D01*
X0232951Y0149767D01*
X0227720Y0154998D01*
X0227720Y0155811D01*
X0228622Y0156713D01*
X0229955Y0159022D01*
X0230520Y0161130D01*
X0231084Y0159022D01*
X0232418Y0156713D01*
X0234303Y0154828D01*
X0236612Y0153495D01*
X0239187Y0152805D01*
X0241853Y0152805D01*
X0244428Y0153495D01*
X0246737Y0154828D01*
X0248622Y0156713D01*
X0249955Y0159022D01*
X0250106Y0159587D01*
X0250258Y0159022D01*
X0251591Y0156713D01*
X0253476Y0154828D01*
X0255785Y0153495D01*
X0258360Y0152805D01*
X0261026Y0152805D01*
X0263601Y0153495D01*
X0265910Y0154828D01*
X0267795Y0156713D01*
X0269128Y0159022D01*
X0269693Y0161130D01*
X0270258Y0159022D01*
X0271591Y0156713D01*
X0273476Y0154828D01*
X0275785Y0153495D01*
X0277809Y0152952D01*
X0275802Y0150945D02*
X0231773Y0150945D01*
X0234187Y0154943D02*
X0227774Y0154943D01*
X0229909Y0158942D02*
X0231131Y0158942D01*
X0246852Y0154943D02*
X0253360Y0154943D01*
X0250304Y0158942D02*
X0249909Y0158942D01*
X0266026Y0154943D02*
X0273360Y0154943D01*
X0270304Y0158942D02*
X0269082Y0158942D01*
X0284171Y0138949D02*
X0290012Y0138949D01*
X0286837Y0134951D02*
X0192968Y0134951D01*
X0196966Y0138949D02*
X0223404Y0138949D01*
X0219405Y0142948D02*
X0200965Y0142948D01*
X0204963Y0146946D02*
X0215407Y0146946D01*
X0213320Y0150945D02*
X0207892Y0150945D01*
X0208231Y0154943D02*
X0213320Y0154943D01*
X0211131Y0158942D02*
X0210342Y0158942D01*
X0188969Y0130952D02*
X0285458Y0130952D01*
X0285475Y0126954D02*
X0184971Y0126954D01*
X0173320Y0098964D02*
X0217128Y0098964D01*
X0213130Y0094966D02*
X0186948Y0094966D01*
X0188300Y0090967D02*
X0209921Y0090967D01*
X0154515Y0078083D02*
X0145100Y0078083D01*
X0145100Y0075209D01*
X0144917Y0074767D01*
X0151199Y0074767D01*
X0154515Y0078083D01*
X0151405Y0074973D02*
X0145002Y0074973D01*
X0144925Y0050982D02*
X0150406Y0050982D01*
X0148938Y0046984D02*
X0147507Y0046984D01*
X0132240Y0043303D02*
X0131793Y0042529D01*
X0131307Y0040715D01*
X0130821Y0042529D01*
X0129501Y0044816D01*
X0130726Y0044816D01*
X0132240Y0043303D01*
X0132056Y0042985D02*
X0130558Y0042985D01*
X0113271Y0044816D02*
X0111951Y0042529D01*
X0111543Y0041009D01*
X0111136Y0042529D01*
X0109816Y0044816D01*
X0113271Y0044816D01*
X0112214Y0042985D02*
X0110873Y0042985D01*
X0093054Y0043896D02*
X0092266Y0042529D01*
X0091858Y0041009D01*
X0091501Y0042342D01*
X0093054Y0043896D01*
X0092529Y0042985D02*
X0092144Y0042985D01*
X0091858Y0027983D02*
X0091524Y0026735D01*
X0092193Y0026735D01*
X0091858Y0027983D01*
X0091592Y0026991D02*
X0092124Y0026991D01*
X0111209Y0026735D02*
X0111543Y0027983D01*
X0111878Y0026735D01*
X0111209Y0026735D01*
X0111278Y0026991D02*
X0111809Y0026991D01*
X0130069Y0025161D02*
X0130821Y0026463D01*
X0131307Y0028277D01*
X0131793Y0026463D01*
X0132545Y0025161D01*
X0130069Y0025161D01*
X0130963Y0026991D02*
X0131652Y0026991D01*
X0149912Y0025161D02*
X0150664Y0026463D01*
X0151071Y0027983D01*
X0151478Y0026463D01*
X0152230Y0025161D01*
X0149912Y0025161D01*
X0150805Y0026991D02*
X0151337Y0026991D01*
X0124422Y0010997D02*
X0009000Y0010997D01*
X0009000Y0014996D02*
X0062515Y0014996D01*
X0062054Y0015457D02*
X0062054Y0015457D01*
X0058517Y0018994D02*
X0009000Y0018994D01*
X0009000Y0022993D02*
X0016335Y0022993D01*
X0013699Y0026991D02*
X0009000Y0026991D01*
X0009000Y0030990D02*
X0013150Y0030990D01*
X0013150Y0034988D02*
X0009000Y0034988D01*
X0009000Y0038987D02*
X0013150Y0038987D01*
X0014103Y0042985D02*
X0009000Y0042985D01*
X0009000Y0046984D02*
X0017509Y0046984D01*
X0029042Y0046984D02*
X0037194Y0046984D01*
X0033789Y0042985D02*
X0032448Y0042985D01*
X0032852Y0026991D02*
X0033384Y0026991D01*
X0036020Y0022993D02*
X0030216Y0022993D01*
X0049902Y0022993D02*
X0055704Y0022993D01*
X0053069Y0026991D02*
X0052537Y0026991D01*
X0072154Y0026735D02*
X0072331Y0027395D01*
X0072507Y0026735D01*
X0072154Y0026735D01*
X0072222Y0026991D02*
X0072439Y0026991D01*
X0063595Y0062978D02*
X0025668Y0062978D01*
X0123136Y0110960D02*
X0125187Y0110960D01*
M02*
